<svg xmlns="http://www.w3.org/2000/svg" xmlns:xlink="http://www.w3.org/1999/xlink" width="500" zoomAndPan="magnify" viewBox="0 0 375 374.999991" height="500" preserveAspectRatio="xMidYMid meet" version="1.0"><defs><filter x="0%" y="0%" width="100%" height="100%" id="d3252eb602"><feColorMatrix values="0 0 0 0 1 0 0 0 0 1 0 0 0 0 1 0 0 0 1 0" color-interpolation-filters="sRGB"/></filter><g/><clipPath id="18a9d3d2e9"><path d="M 99.574219 27.453125 L 279.382812 27.453125 L 279.382812 207.265625 L 99.574219 207.265625 Z M 99.574219 27.453125 " clip-rule="nonzero"/></clipPath><clipPath id="d41d558ca2"><path d="M 189.480469 27.453125 C 139.824219 27.453125 99.574219 67.707031 99.574219 117.359375 C 99.574219 167.011719 139.824219 207.265625 189.480469 207.265625 C 239.132812 207.265625 279.382812 167.011719 279.382812 117.359375 C 279.382812 67.707031 239.132812 27.453125 189.480469 27.453125 Z M 189.480469 27.453125 " clip-rule="nonzero"/></clipPath><clipPath id="4ab78d4662"><path d="M 113.273438 70 L 189 70 L 189 146 L 113.273438 146 Z M 113.273438 70 " clip-rule="nonzero"/></clipPath><clipPath id="5839cea86c"><path d="M 202 106 L 279.023438 106 L 279.023438 226 L 202 226 Z M 202 106 " clip-rule="nonzero"/></clipPath><mask id="8b8d9aa31b"><g filter="url(#d3252eb602)"><rect x="-37.5" width="450" fill="#000000" y="-37.499999" height="449.999989" fill-opacity="0.46"/></g></mask><clipPath id="a4017d8598"><path d="M 33 0.480469 L 48.921875 0.480469 L 48.921875 24 L 33 24 Z M 33 0.480469 " clip-rule="nonzero"/></clipPath><clipPath id="e084fe2685"><rect x="0" width="49" y="0" height="117"/></clipPath><clipPath id="682df81dbe"><path d="M 145 53.773438 L 261 53.773438 L 261 227 L 145 227 Z M 145 53.773438 " clip-rule="nonzero"/></clipPath></defs><rect x="-37.5" width="450" fill="#ffffff" y="-37.499999" height="449.999989" fill-opacity="1"/><rect x="-37.5" width="450" fill="#fffcfa" y="-37.499999" height="449.999989" fill-opacity="1"/><g clip-path="url(#18a9d3d2e9)"><g clip-path="url(#d41d558ca2)"><path fill="#c5f3ff" d="M 99.574219 27.453125 L 279.382812 27.453125 L 279.382812 207.265625 L 99.574219 207.265625 Z M 99.574219 27.453125 " fill-opacity="1" fill-rule="nonzero"/></g></g><path fill="#3598db" d="M 160.074219 149.945312 L 155.324219 149.945312 L 171.019531 172.472656 L 175.125 175.984375 C 176.019531 175.742188 176.917969 175.507812 177.824219 175.363281 C 179.390625 175.082031 180.824219 174.484375 182.128906 173.578125 L 182.316406 173.433594 L 164.4375 147.75 C 163.925781 148.441406 163.285156 148.980469 162.515625 149.367188 C 161.75 149.753906 160.933594 149.945312 160.074219 149.945312 Z M 160.074219 149.945312 " fill-opacity="1" fill-rule="nonzero"/><path fill="#3598db" d="M 211.773438 74.957031 L 202.613281 61.847656 C 202.050781 61.042969 201.417969 60.300781 200.707031 59.621094 C 200 58.941406 199.234375 58.335938 198.40625 57.808594 C 197.578125 57.277344 196.707031 56.835938 195.792969 56.480469 C 194.878906 56.121094 193.941406 55.855469 192.972656 55.683594 C 192.007812 55.511719 191.035156 55.4375 190.050781 55.457031 C 189.070312 55.476562 188.101562 55.589844 187.140625 55.800781 C 186.183594 56.011719 185.253906 56.316406 184.355469 56.707031 C 183.457031 57.101562 182.605469 57.578125 181.800781 58.140625 L 165.71875 69.363281 C 165.445312 69.554688 165.339844 69.816406 165.394531 70.144531 C 165.425781 70.316406 165.449219 70.492188 165.464844 70.667969 L 165.570312 71.960938 L 166.445312 71.21875 C 167.347656 70.433594 168.394531 69.984375 169.585938 69.863281 C 170.382812 69.789062 171.160156 69.890625 171.914062 70.167969 C 172.664062 70.441406 173.324219 70.863281 173.890625 71.429688 L 180.515625 78.058594 L 192.335938 69.808594 C 192.570312 69.648438 192.8125 69.511719 193.070312 69.398438 C 193.328125 69.289062 193.597656 69.203125 193.871094 69.140625 C 194.148438 69.082031 194.425781 69.050781 194.707031 69.042969 C 194.988281 69.039062 195.265625 69.0625 195.542969 69.109375 C 195.820312 69.160156 196.089844 69.234375 196.351562 69.339844 C 196.613281 69.441406 196.863281 69.566406 197.101562 69.71875 C 197.339844 69.871094 197.558594 70.042969 197.761719 70.238281 C 197.964844 70.433594 198.148438 70.644531 198.308594 70.875 L 206.992188 83.359375 C 207.304688 82.566406 206.039062 79.46875 206.394531 78.699219 C 207.4375 76.546875 210.3125 76.839844 211.773438 74.957031 Z M 211.773438 74.957031 " fill-opacity="1" fill-rule="nonzero"/><g clip-path="url(#4ab78d4662)"><path fill="#204188" d="M 188.164062 117.191406 L 188.164062 98.480469 C 188.164062 98.289062 188.097656 98.121094 187.96875 97.976562 C 187.835938 97.835938 187.675781 97.757812 187.484375 97.738281 L 179.882812 97.113281 C 179.589844 96.320312 179.269531 95.550781 178.925781 94.804688 L 183.859375 88.980469 C 183.984375 88.832031 184.042969 88.660156 184.035156 88.46875 C 184.027344 88.273438 183.953125 88.109375 183.816406 87.972656 L 170.582031 74.738281 C 170.445312 74.601562 170.28125 74.53125 170.085938 74.523438 C 169.894531 74.515625 169.722656 74.574219 169.578125 74.699219 L 163.753906 79.628906 C 162.996094 79.28125 162.226562 78.960938 161.441406 78.675781 L 160.816406 71.070312 C 160.800781 70.878906 160.722656 70.71875 160.578125 70.585938 C 160.4375 70.457031 160.269531 70.390625 160.074219 70.390625 L 141.359375 70.390625 C 141.167969 70.390625 141 70.457031 140.855469 70.585938 C 140.714844 70.71875 140.636719 70.878906 140.617188 71.070312 L 139.992188 78.675781 C 139.207031 78.960938 138.4375 79.28125 137.683594 79.628906 L 131.859375 74.699219 C 131.710938 74.574219 131.542969 74.515625 131.347656 74.523438 C 131.15625 74.53125 130.992188 74.601562 130.855469 74.738281 L 117.625 87.972656 C 117.484375 88.109375 117.414062 88.273438 117.402344 88.46875 C 117.394531 88.660156 117.453125 88.832031 117.574219 88.980469 L 122.515625 94.804688 C 122.167969 95.554688 121.847656 96.324219 121.558594 97.113281 L 113.953125 97.738281 C 113.757812 97.757812 113.597656 97.835938 113.46875 97.976562 C 113.339844 98.121094 113.273438 98.289062 113.273438 98.480469 L 113.273438 117.191406 C 113.273438 117.382812 113.339844 117.550781 113.46875 117.691406 C 113.597656 117.835938 113.757812 117.914062 113.953125 117.933594 L 121.554688 118.5625 C 121.84375 119.347656 122.164062 120.117188 122.511719 120.871094 L 117.574219 126.691406 C 117.453125 126.839844 117.394531 127.007812 117.402344 127.203125 C 117.410156 127.394531 117.480469 127.558594 117.617188 127.695312 L 130.855469 140.914062 C 130.992188 141.050781 131.15625 141.121094 131.347656 141.128906 C 131.542969 141.136719 131.710938 141.078125 131.859375 140.949219 L 137.683594 136.019531 C 138.4375 136.367188 139.207031 136.6875 139.992188 136.976562 L 140.617188 144.582031 C 140.636719 144.773438 140.714844 144.933594 140.855469 145.066406 C 141 145.199219 141.167969 145.261719 141.359375 145.265625 L 160.074219 145.265625 C 160.269531 145.261719 160.4375 145.199219 160.578125 145.066406 C 160.722656 144.933594 160.800781 144.773438 160.816406 144.582031 L 161.441406 136.976562 C 162.226562 136.691406 162.996094 136.371094 163.753906 136.019531 L 169.578125 140.949219 C 169.722656 141.078125 169.894531 141.136719 170.085938 141.128906 C 170.28125 141.121094 170.445312 141.050781 170.582031 140.914062 L 183.8125 127.675781 C 183.949219 127.539062 184.019531 127.375 184.03125 127.183594 C 184.039062 126.992188 183.980469 126.820312 183.855469 126.671875 L 178.921875 120.851562 C 179.269531 120.097656 179.589844 119.328125 179.875 118.542969 L 187.480469 117.914062 C 187.667969 117.898438 187.828125 117.820312 187.960938 117.683594 C 188.089844 117.542969 188.15625 117.378906 188.164062 117.191406 Z M 150.71875 128.480469 C 150.042969 128.480469 149.367188 128.445312 148.691406 128.378906 C 148.019531 128.3125 147.351562 128.214844 146.6875 128.082031 C 146.023438 127.953125 145.367188 127.785156 144.722656 127.589844 C 144.074219 127.394531 143.4375 127.167969 142.8125 126.90625 C 142.1875 126.648438 141.578125 126.359375 140.980469 126.039062 C 140.382812 125.722656 139.804688 125.375 139.242188 125 C 138.679688 124.621094 138.136719 124.21875 137.613281 123.789062 C 137.089844 123.363281 136.589844 122.90625 136.109375 122.429688 C 135.632812 121.949219 135.179688 121.449219 134.75 120.925781 C 134.320312 120.402344 133.917969 119.863281 133.542969 119.300781 C 133.164062 118.734375 132.820312 118.15625 132.5 117.558594 C 132.179688 116.964844 131.890625 116.351562 131.632812 115.726562 C 131.375 115.101562 131.144531 114.464844 130.949219 113.820312 C 130.753906 113.171875 130.589844 112.515625 130.457031 111.851562 C 130.324219 111.1875 130.226562 110.519531 130.160156 109.847656 C 130.09375 109.171875 130.0625 108.5 130.0625 107.820312 C 130.0625 107.144531 130.09375 106.46875 130.160156 105.796875 C 130.226562 105.125 130.328125 104.457031 130.457031 103.792969 C 130.589844 103.128906 130.753906 102.472656 130.949219 101.824219 C 131.148438 101.175781 131.375 100.542969 131.632812 99.917969 C 131.894531 99.292969 132.183594 98.679688 132.5 98.082031 C 132.820312 97.488281 133.167969 96.90625 133.542969 96.34375 C 133.917969 95.78125 134.320312 95.238281 134.75 94.71875 C 135.179688 94.195312 135.632812 93.691406 136.113281 93.214844 C 136.589844 92.738281 137.09375 92.28125 137.613281 91.855469 C 138.136719 91.425781 138.679688 91.023438 139.242188 90.644531 C 139.804688 90.269531 140.386719 89.921875 140.984375 89.605469 C 141.578125 89.285156 142.191406 88.996094 142.816406 88.738281 C 143.441406 88.480469 144.078125 88.25 144.722656 88.054688 C 145.371094 87.859375 146.027344 87.695312 146.691406 87.5625 C 147.355469 87.429688 148.023438 87.332031 148.695312 87.265625 C 149.371094 87.199219 150.042969 87.167969 150.722656 87.167969 C 151.398438 87.167969 152.074219 87.199219 152.746094 87.265625 C 153.417969 87.332031 154.085938 87.433594 154.75 87.5625 C 155.414062 87.695312 156.070312 87.859375 156.71875 88.058594 C 157.363281 88.253906 158 88.480469 158.625 88.738281 C 159.25 89 159.863281 89.289062 160.457031 89.605469 C 161.054688 89.925781 161.636719 90.273438 162.199219 90.648438 C 162.761719 91.027344 163.300781 91.429688 163.824219 91.859375 C 164.347656 92.285156 164.847656 92.742188 165.328125 93.21875 C 165.804688 93.699219 166.257812 94.199219 166.6875 94.722656 C 167.117188 95.246094 167.519531 95.789062 167.894531 96.351562 C 168.273438 96.914062 168.617188 97.492188 168.9375 98.089844 C 169.257812 98.6875 169.546875 99.296875 169.804688 99.921875 C 170.0625 100.546875 170.289062 101.183594 170.488281 101.832031 C 170.683594 102.480469 170.847656 103.132812 170.980469 103.796875 C 171.109375 104.460938 171.210938 105.128906 171.277344 105.804688 C 171.34375 106.476562 171.375 107.152344 171.375 107.828125 C 171.375 108.503906 171.339844 109.179688 171.273438 109.851562 C 171.207031 110.527344 171.109375 111.195312 170.976562 111.855469 C 170.84375 112.519531 170.679688 113.175781 170.484375 113.824219 C 170.289062 114.46875 170.058594 115.105469 169.800781 115.730469 C 169.542969 116.355469 169.253906 116.96875 168.933594 117.5625 C 168.613281 118.160156 168.269531 118.738281 167.890625 119.300781 C 167.515625 119.863281 167.113281 120.40625 166.683594 120.929688 C 166.253906 121.453125 165.800781 121.953125 165.324219 122.429688 C 164.84375 122.910156 164.34375 123.363281 163.820312 123.792969 C 163.296875 124.222656 162.753906 124.625 162.191406 125 C 161.628906 125.375 161.050781 125.722656 160.453125 126.042969 C 159.859375 126.359375 159.246094 126.648438 158.621094 126.910156 C 157.996094 127.167969 157.359375 127.394531 156.714844 127.589844 C 156.066406 127.789062 155.410156 127.953125 154.746094 128.082031 C 154.082031 128.214844 153.414062 128.316406 152.742188 128.378906 C 152.070312 128.445312 151.394531 128.480469 150.71875 128.480469 Z M 150.71875 128.480469 " fill-opacity="1" fill-rule="nonzero"/></g><path fill="#ffffff" d="M 150.71875 83.355469 C 149.136719 83.425781 147.574219 83.644531 146.03125 84.007812 C 144.492188 84.375 143 84.878906 141.554688 85.527344 C 140.109375 86.175781 138.738281 86.953125 137.4375 87.863281 C 136.140625 88.769531 134.9375 89.789062 133.832031 90.925781 C 133.289062 91.484375 132.777344 92.070312 132.289062 92.679688 C 131.800781 93.289062 131.34375 93.917969 130.917969 94.574219 C 130.492188 95.226562 130.097656 95.898438 129.738281 96.589844 C 129.378906 97.28125 129.050781 97.988281 128.757812 98.710938 C 128.464844 99.433594 128.207031 100.167969 127.984375 100.914062 C 127.761719 101.664062 127.574219 102.421875 127.425781 103.1875 C 127.277344 103.949219 127.164062 104.722656 127.089844 105.5 C 127.015625 106.273438 126.976562 107.054688 126.976562 107.832031 C 126.976562 108.613281 127.015625 109.390625 127.089844 110.167969 C 127.164062 110.945312 127.277344 111.714844 127.425781 112.480469 C 127.574219 113.246094 127.761719 114.003906 127.984375 114.75 C 128.207031 115.496094 128.464844 116.234375 128.757812 116.957031 C 129.050781 117.679688 129.378906 118.386719 129.738281 119.078125 C 130.097656 119.769531 130.492188 120.441406 130.917969 121.09375 C 131.34375 121.746094 131.800781 122.378906 132.289062 122.988281 C 132.777344 123.597656 133.289062 124.179688 133.832031 124.742188 C 134.9375 125.875 136.140625 126.898438 137.4375 127.804688 C 138.734375 128.710938 140.109375 129.488281 141.554688 130.136719 C 143 130.785156 144.492188 131.289062 146.03125 131.65625 C 147.574219 132.019531 149.136719 132.238281 150.71875 132.304688 C 147.445312 132.441406 144.277344 131.925781 141.214844 130.761719 C 138.132812 129.574219 135.398438 127.832031 133.019531 125.535156 C 130.632812 123.222656 128.785156 120.539062 127.480469 117.480469 C 126.832031 115.960938 126.34375 114.390625 126.011719 112.769531 C 125.683594 111.148438 125.519531 109.511719 125.519531 107.855469 C 125.519531 106.203125 125.683594 104.566406 126.011719 102.945312 C 126.34375 101.324219 126.832031 99.753906 127.480469 98.230469 C 128.78125 95.160156 130.628906 92.460938 133.019531 90.136719 C 135.398438 87.824219 138.128906 86.070312 141.222656 84.875 C 144.28125 83.71875 147.449219 83.210938 150.71875 83.355469 Z M 150.71875 83.355469 " fill-opacity="1" fill-rule="nonzero"/><g clip-path="url(#5839cea86c)"><path fill="#204188" d="M 256.140625 106.636719 C 254.367188 108.621094 252.390625 110.375 250.210938 111.898438 C 246.964844 114.152344 243.4375 115.804688 239.628906 116.859375 C 238.671875 117.128906 237.675781 117.339844 236.691406 117.539062 C 235.125 117.820312 233.691406 118.417969 232.390625 119.332031 C 232.320312 119.375 232.265625 119.421875 232.199219 119.472656 L 259.742188 158.949219 C 259.902344 159.179688 260.035156 159.425781 260.148438 159.683594 C 260.261719 159.941406 260.347656 160.207031 260.40625 160.480469 C 260.46875 160.757812 260.5 161.035156 260.507812 161.316406 C 260.511719 161.597656 260.488281 161.878906 260.441406 162.152344 C 260.390625 162.429688 260.316406 162.699219 260.214844 162.964844 C 260.113281 163.226562 259.984375 163.476562 259.832031 163.710938 C 259.683594 163.949219 259.511719 164.171875 259.316406 164.375 C 259.121094 164.578125 258.910156 164.757812 258.679688 164.921875 L 210.09375 198.828125 C 209.9375 202.355469 209.253906 205.78125 208.042969 209.097656 C 206.828125 212.414062 205.144531 215.46875 202.988281 218.265625 L 203.535156 219.054688 C 204.097656 219.859375 204.730469 220.601562 205.441406 221.28125 C 206.148438 221.960938 206.914062 222.566406 207.742188 223.097656 C 208.570312 223.625 209.4375 224.066406 210.351562 224.425781 C 211.265625 224.78125 212.207031 225.046875 213.171875 225.21875 C 214.140625 225.390625 215.113281 225.46875 216.09375 225.449219 C 217.074219 225.429688 218.046875 225.3125 219.003906 225.101562 C 219.964844 224.890625 220.890625 224.589844 221.789062 224.195312 C 222.691406 223.800781 223.542969 223.324219 224.347656 222.761719 L 272.980469 188.835938 C 273.785156 188.273438 274.527344 187.640625 275.207031 186.929688 C 275.886719 186.222656 276.492188 185.457031 277.023438 184.628906 C 277.550781 183.800781 277.992188 182.933594 278.351562 182.019531 C 278.707031 181.105469 278.972656 180.164062 279.144531 179.199219 C 279.316406 178.230469 279.394531 177.257812 279.375 176.277344 C 279.355469 175.296875 279.238281 174.324219 279.027344 173.367188 C 278.816406 172.40625 278.515625 171.480469 278.121094 170.582031 C 277.726562 169.679688 277.25 168.828125 276.6875 168.023438 L 243.582031 120.570312 C 246.761719 118.4375 253.554688 113.253906 256.140625 106.636719 Z M 244.960938 200.488281 C 244.542969 200.78125 244.101562 201.027344 243.632812 201.230469 C 243.167969 201.4375 242.6875 201.59375 242.1875 201.703125 C 241.691406 201.8125 241.1875 201.875 240.679688 201.886719 C 240.171875 201.894531 239.664062 201.855469 239.164062 201.769531 C 238.664062 201.679688 238.175781 201.542969 237.699219 201.355469 C 237.226562 201.171875 236.773438 200.941406 236.34375 200.667969 C 235.914062 200.394531 235.515625 200.082031 235.148438 199.730469 C 234.78125 199.375 234.453125 198.992188 234.160156 198.574219 C 233.867188 198.15625 233.621094 197.714844 233.414062 197.25 C 233.210938 196.78125 233.054688 196.300781 232.945312 195.804688 C 232.832031 195.304688 232.773438 194.804688 232.761719 194.292969 C 232.753906 193.785156 232.792969 193.28125 232.878906 192.777344 C 232.96875 192.277344 233.105469 191.789062 233.289062 191.316406 C 233.476562 190.839844 233.703125 190.386719 233.980469 189.957031 C 234.253906 189.53125 234.566406 189.132812 234.917969 188.761719 C 235.269531 188.394531 235.65625 188.066406 236.074219 187.773438 C 236.488281 187.484375 236.933594 187.234375 237.398438 187.03125 C 237.863281 186.824219 238.347656 186.667969 238.84375 186.558594 C 239.339844 186.449219 239.84375 186.386719 240.351562 186.375 C 240.863281 186.367188 241.367188 186.40625 241.867188 186.492188 C 242.371094 186.582031 242.859375 186.71875 243.332031 186.902344 C 243.808594 187.089844 244.257812 187.316406 244.6875 187.59375 C 245.117188 187.867188 245.515625 188.179688 245.882812 188.53125 C 246.25 188.882812 246.582031 189.269531 246.871094 189.6875 C 247.164062 190.101562 247.414062 190.546875 247.617188 191.011719 C 247.824219 191.476562 247.980469 191.960938 248.089844 192.457031 C 248.199219 192.953125 248.261719 193.457031 248.269531 193.964844 C 248.28125 194.476562 248.242188 194.980469 248.152344 195.484375 C 248.066406 195.984375 247.929688 196.472656 247.742188 196.945312 C 247.558594 197.421875 247.328125 197.875 247.054688 198.304688 C 246.78125 198.730469 246.46875 199.128906 246.113281 199.5 C 245.761719 199.867188 245.378906 200.195312 244.960938 200.488281 Z M 244.960938 200.488281 " fill-opacity="1" fill-rule="nonzero"/></g><path fill="#ffffff" d="M 273.550781 170.210938 C 274.699219 171.617188 275.441406 173.210938 275.78125 174.992188 C 275.945312 175.898438 275.996094 176.8125 275.9375 177.734375 C 275.878906 178.65625 275.707031 179.554688 275.425781 180.433594 C 275.144531 181.3125 274.761719 182.144531 274.28125 182.929688 C 273.796875 183.714844 273.222656 184.429688 272.566406 185.078125 C 272.398438 185.234375 272.238281 185.410156 272.0625 185.554688 L 271.511719 185.984375 C 271.144531 186.285156 270.789062 186.511719 270.433594 186.773438 L 268.289062 188.289062 L 263.957031 191.265625 C 262.5 192.21875 261.054688 193.222656 259.582031 194.171875 C 256.648438 196.082031 253.6875 197.964844 250.644531 199.722656 C 253.347656 197.476562 256.128906 195.34375 258.941406 193.253906 C 260.339844 192.195312 261.769531 191.183594 263.183594 190.148438 L 267.488281 187.113281 L 269.652344 185.621094 C 270 185.371094 270.394531 185.144531 270.699219 184.875 L 271.179688 184.503906 C 271.335938 184.375 271.480469 184.230469 271.65625 184.089844 C 272.894531 182.953125 273.8125 181.601562 274.410156 180.027344 C 275.027344 178.429688 275.257812 176.78125 275.109375 175.078125 C 274.941406 173.34375 274.421875 171.71875 273.550781 170.210938 Z M 273.550781 170.210938 " fill-opacity="1" fill-rule="nonzero"/><g mask="url(#8b8d9aa31b)"><g transform="matrix(1, 0, 0, 1, 163, 60)"><g clip-path="url(#e084fe2685)"><path fill="#204188" d="M 19.308594 113.429688 L 9.71875 99.65625 L 9.527344 99.796875 C 8.480469 100.527344 7.328125 101.003906 6.070312 101.230469 C 4.382812 101.542969 2.722656 101.972656 1.097656 102.519531 L 8.019531 112.472656 L 12.125 115.984375 C 13.019531 115.742188 13.917969 115.507812 14.824219 115.363281 C 16.390625 115.082031 17.824219 114.484375 19.128906 113.578125 Z M 19.308594 113.429688 " fill-opacity="1" fill-rule="nonzero"/><g clip-path="url(#a4017d8598)"><path fill="#204188" d="M 48.773438 14.957031 L 39.613281 1.847656 C 39.363281 1.492188 39.105469 1.160156 38.835938 0.832031 C 37.125 2.976562 35.675781 5.285156 34.484375 7.753906 C 34.207031 8.328125 33.949219 8.914062 33.699219 9.503906 C 34.351562 9.824219 34.886719 10.285156 35.300781 10.882812 L 43.992188 23.359375 C 44.304688 22.566406 43.039062 19.46875 43.394531 18.699219 C 44.4375 16.546875 47.3125 16.839844 48.773438 14.957031 Z M 48.773438 14.957031 " fill-opacity="1" fill-rule="nonzero"/></g></g></g></g><g clip-path="url(#682df81dbe)"><path fill="#ffffff" d="M 202.210938 182.925781 C 201.65625 181.875 201.234375 180.773438 200.9375 179.621094 C 200.644531 178.472656 200.488281 177.300781 200.46875 176.113281 C 200.453125 174.925781 200.574219 173.753906 200.832031 172.59375 C 201.09375 171.433594 201.484375 170.320312 202.007812 169.253906 L 224.957031 121.691406 C 225.46875 120.617188 226.097656 119.617188 226.84375 118.691406 C 227.589844 117.765625 228.429688 116.941406 229.371094 116.214844 C 230.3125 115.488281 231.328125 114.882812 232.410156 114.398438 C 233.496094 113.910156 234.621094 113.558594 235.789062 113.335938 C 236.378906 113.230469 236.964844 113.105469 237.546875 112.964844 C 238.128906 112.824219 238.707031 112.667969 239.277344 112.492188 C 239.851562 112.316406 240.417969 112.125 240.976562 111.917969 C 241.539062 111.707031 242.09375 111.480469 242.640625 111.238281 C 243.1875 111 243.730469 110.738281 244.261719 110.464844 C 244.792969 110.191406 245.316406 109.902344 245.832031 109.597656 C 246.347656 109.292969 246.851562 108.972656 247.347656 108.636719 C 247.84375 108.300781 248.332031 107.949219 248.804688 107.585938 C 249.28125 107.222656 249.746094 106.84375 250.199219 106.453125 C 250.648438 106.058594 251.089844 105.65625 251.519531 105.234375 C 251.949219 104.816406 252.363281 104.386719 252.765625 103.945312 C 253.167969 103.5 253.558594 103.046875 253.933594 102.582031 C 254.308594 102.113281 254.671875 101.636719 255.019531 101.148438 C 255.367188 100.660156 255.699219 100.164062 256.015625 99.65625 C 256.332031 99.148438 256.636719 98.632812 256.921875 98.105469 C 257.210938 97.582031 257.480469 97.046875 257.734375 96.507812 C 257.992188 95.964844 258.230469 95.414062 258.453125 94.859375 C 258.675781 94.304688 258.878906 93.742188 259.070312 93.171875 C 259.257812 92.605469 259.429688 92.03125 259.585938 91.453125 C 259.738281 90.875 259.878906 90.292969 259.996094 89.707031 C 260.117188 89.121094 260.21875 88.53125 260.304688 87.9375 C 260.390625 87.34375 260.457031 86.75 260.507812 86.152344 C 260.554688 85.554688 260.589844 84.957031 260.601562 84.359375 C 260.617188 83.761719 260.613281 83.164062 260.589844 82.566406 C 260.570312 81.964844 260.527344 81.371094 260.472656 80.773438 C 260.414062 80.175781 260.339844 79.582031 260.246094 78.992188 C 260.152344 78.398438 260.042969 77.8125 259.917969 77.226562 C 259.789062 76.640625 259.644531 76.0625 259.480469 75.484375 C 259.320312 74.910156 259.140625 74.335938 258.941406 73.773438 C 258.746094 73.207031 258.535156 72.648438 258.304688 72.09375 C 258.074219 71.542969 257.828125 70.996094 257.566406 70.457031 C 257.304688 69.917969 257.027344 69.386719 256.734375 68.867188 L 246.492188 90.070312 C 246.261719 90.542969 245.929688 90.929688 245.492188 91.230469 C 245.058594 91.53125 244.578125 91.703125 244.050781 91.746094 L 227.574219 93.183594 C 227.027344 93.226562 226.511719 93.132812 226.019531 92.894531 C 225.527344 92.660156 225.128906 92.3125 224.824219 91.855469 L 215.667969 78.0625 C 215.375 77.621094 215.210938 77.136719 215.175781 76.609375 C 215.140625 76.085938 215.238281 75.582031 215.464844 75.105469 L 225.695312 53.886719 C 225.101562 53.980469 224.515625 54.09375 223.929688 54.222656 C 223.34375 54.351562 222.765625 54.5 222.1875 54.664062 C 221.613281 54.828125 221.042969 55.011719 220.476562 55.207031 C 219.910156 55.40625 219.351562 55.621094 218.800781 55.855469 C 218.25 56.085938 217.703125 56.332031 217.164062 56.597656 C 216.628906 56.863281 216.097656 57.140625 215.578125 57.4375 C 215.058594 57.734375 214.546875 58.046875 214.042969 58.371094 C 213.539062 58.699219 213.046875 59.039062 212.566406 59.394531 C 212.082031 59.75 211.613281 60.121094 211.152344 60.503906 C 210.691406 60.886719 210.246094 61.285156 209.808594 61.695312 C 209.371094 62.105469 208.949219 62.527344 208.535156 62.964844 C 208.125 63.398438 207.726562 63.847656 207.34375 64.304688 C 206.957031 64.765625 206.589844 65.234375 206.230469 65.71875 C 205.875 66.199219 205.53125 66.691406 205.207031 67.191406 C 204.878906 67.695312 204.566406 68.203125 204.269531 68.726562 C 203.972656 69.246094 203.691406 69.773438 203.425781 70.3125 C 203.160156 70.847656 202.914062 71.394531 202.679688 71.945312 C 202.449219 72.496094 202.230469 73.054688 202.03125 73.621094 C 201.832031 74.1875 201.648438 74.757812 201.484375 75.332031 C 201.320312 75.90625 201.171875 76.488281 201.039062 77.070312 C 200.910156 77.65625 200.796875 78.246094 200.699219 78.835938 C 200.601562 79.425781 200.523438 80.019531 200.464844 80.617188 C 200.402344 81.214844 200.363281 81.808594 200.335938 82.410156 C 200.3125 83.007812 200.304688 83.605469 200.316406 84.207031 C 200.324219 84.804688 200.355469 85.402344 200.402344 86 C 200.449219 86.597656 200.511719 87.191406 200.59375 87.785156 C 200.675781 88.378906 200.773438 88.96875 200.890625 89.558594 C 201.007812 90.144531 201.144531 90.726562 201.296875 91.308594 C 201.445312 91.886719 201.617188 92.460938 201.800781 93.03125 C 201.988281 93.601562 202.191406 94.164062 202.410156 94.722656 C 202.628906 95.277344 202.867188 95.828125 203.117188 96.371094 C 203.371094 96.914062 203.640625 97.449219 203.921875 97.976562 C 204.480469 99.027344 204.90625 100.128906 205.199219 101.28125 C 205.496094 102.433594 205.652344 103.601562 205.671875 104.789062 C 205.6875 105.980469 205.566406 107.152344 205.308594 108.3125 C 205.046875 109.472656 204.65625 110.585938 204.132812 111.652344 L 181.183594 159.210938 C 180.671875 160.285156 180.046875 161.285156 179.300781 162.210938 C 178.554688 163.136719 177.710938 163.960938 176.769531 164.6875 C 175.832031 165.414062 174.816406 166.019531 173.734375 166.507812 C 172.648438 166.992188 171.523438 167.347656 170.355469 167.566406 C 169.765625 167.671875 169.179688 167.792969 168.597656 167.933594 C 168.015625 168.078125 167.441406 168.234375 166.867188 168.410156 C 166.292969 168.585938 165.726562 168.777344 165.167969 168.984375 C 164.605469 169.195312 164.050781 169.417969 163.503906 169.660156 C 162.957031 169.902344 162.414062 170.160156 161.882812 170.433594 C 161.351562 170.710938 160.828125 171 160.3125 171.304688 C 159.796875 171.609375 159.289062 171.929688 158.792969 172.265625 C 158.296875 172.601562 157.8125 172.949219 157.335938 173.316406 C 156.863281 173.679688 156.398438 174.058594 155.945312 174.449219 C 155.492188 174.839844 155.050781 175.246094 154.625 175.664062 C 154.195312 176.082031 153.78125 176.511719 153.378906 176.957031 C 152.972656 177.398438 152.585938 177.855469 152.207031 178.320312 C 151.832031 178.785156 151.472656 179.261719 151.125 179.75 C 150.777344 180.238281 150.445312 180.738281 150.125 181.242188 C 149.808594 181.75 149.507812 182.269531 149.21875 182.792969 C 148.933594 183.320312 148.660156 183.851562 148.40625 184.394531 C 148.152344 184.9375 147.910156 185.484375 147.691406 186.042969 C 147.46875 186.597656 147.261719 187.160156 147.074219 187.726562 C 146.882812 188.296875 146.710938 188.867188 146.554688 189.445312 C 146.402344 190.027344 146.265625 190.609375 146.144531 191.195312 C 146.023438 191.78125 145.921875 192.371094 145.835938 192.964844 C 145.75 193.554688 145.683594 194.152344 145.632812 194.746094 C 145.585938 195.34375 145.554688 195.941406 145.539062 196.542969 C 145.523438 197.140625 145.527344 197.738281 145.550781 198.335938 C 145.574219 198.933594 145.613281 199.53125 145.667969 200.128906 C 145.726562 200.722656 145.800781 201.316406 145.894531 201.910156 C 145.988281 202.5 146.097656 203.089844 146.222656 203.675781 C 146.351562 204.257812 146.496094 204.839844 146.660156 205.417969 C 146.820312 205.992188 147 206.5625 147.199219 207.128906 C 147.394531 207.695312 147.605469 208.253906 147.835938 208.808594 C 148.066406 209.359375 148.3125 209.90625 148.574219 210.445312 C 148.835938 210.984375 149.113281 211.511719 149.40625 212.035156 L 159.65625 190.839844 C 159.886719 190.363281 160.21875 189.972656 160.652344 189.671875 C 161.089844 189.371094 161.570312 189.199219 162.097656 189.15625 L 178.574219 187.71875 C 179.121094 187.675781 179.640625 187.769531 180.132812 188.007812 C 180.625 188.246094 181.023438 188.59375 181.324219 189.050781 L 190.480469 202.820312 C 190.773438 203.261719 190.9375 203.746094 190.972656 204.273438 C 191.007812 204.800781 190.914062 205.304688 190.683594 205.78125 L 180.449219 226.996094 C 181.042969 226.902344 181.628906 226.792969 182.214844 226.660156 C 182.800781 226.53125 183.378906 226.386719 183.957031 226.222656 C 184.53125 226.058594 185.101562 225.878906 185.667969 225.679688 C 186.234375 225.480469 186.792969 225.265625 187.34375 225.035156 C 187.898438 224.804688 188.441406 224.554688 188.980469 224.292969 C 189.519531 224.027344 190.046875 223.75 190.570312 223.453125 C 191.089844 223.15625 191.601562 222.847656 192.105469 222.519531 C 192.605469 222.195312 193.097656 221.855469 193.582031 221.5 C 194.0625 221.144531 194.535156 220.773438 194.996094 220.390625 C 195.457031 220.007812 195.902344 219.609375 196.339844 219.199219 C 196.777344 218.789062 197.199219 218.367188 197.613281 217.933594 C 198.023438 217.496094 198.421875 217.050781 198.804688 216.589844 C 199.191406 216.128906 199.5625 215.660156 199.917969 215.179688 C 200.273438 214.699219 200.617188 214.207031 200.941406 213.703125 C 201.269531 213.203125 201.582031 212.691406 201.878906 212.171875 C 202.175781 211.652344 202.457031 211.121094 202.722656 210.585938 C 202.988281 210.046875 203.234375 209.503906 203.46875 208.953125 C 203.703125 208.398438 203.917969 207.839844 204.117188 207.277344 C 204.316406 206.710938 204.5 206.140625 204.664062 205.566406 C 204.828125 204.988281 204.976562 204.410156 205.109375 203.824219 C 205.238281 203.242188 205.351562 202.652344 205.449219 202.0625 C 205.542969 201.46875 205.621094 200.875 205.683594 200.28125 C 205.742188 199.683594 205.785156 199.085938 205.808594 198.488281 C 205.835938 197.890625 205.839844 197.292969 205.828125 196.691406 C 205.820312 196.09375 205.789062 195.496094 205.742188 194.898438 C 205.695312 194.300781 205.632812 193.707031 205.550781 193.113281 C 205.46875 192.519531 205.367188 191.929688 205.25 191.34375 C 205.132812 190.753906 205 190.171875 204.847656 189.59375 C 204.695312 189.011719 204.523438 188.4375 204.335938 187.867188 C 204.152344 187.300781 203.949219 186.738281 203.726562 186.179688 C 203.507812 185.621094 203.269531 185.074219 203.019531 184.53125 C 202.765625 183.988281 202.496094 183.453125 202.210938 182.925781 Z M 191.453125 172.234375 C 191.261719 172.636719 191.003906 172.988281 190.671875 173.289062 C 190.339844 173.589844 189.964844 173.816406 189.542969 173.964844 C 189.121094 174.113281 188.6875 174.175781 188.242188 174.152344 C 187.796875 174.128906 187.371094 174.019531 186.96875 173.824219 C 186.566406 173.632812 186.21875 173.367188 185.921875 173.035156 C 185.625 172.699219 185.402344 172.320312 185.257812 171.898438 C 185.113281 171.476562 185.054688 171.042969 185.082031 170.59375 C 185.113281 170.148438 185.226562 169.726562 185.421875 169.324219 L 214.671875 108.667969 C 214.863281 108.265625 215.125 107.914062 215.453125 107.613281 C 215.785156 107.3125 216.160156 107.085938 216.582031 106.9375 C 217.003906 106.789062 217.4375 106.726562 217.882812 106.75 C 218.328125 106.773438 218.753906 106.882812 219.15625 107.078125 C 219.558594 107.269531 219.910156 107.535156 220.207031 107.867188 C 220.503906 108.203125 220.722656 108.582031 220.867188 109.003906 C 221.015625 109.425781 221.070312 109.859375 221.042969 110.308594 C 221.015625 110.753906 220.902344 111.175781 220.703125 111.578125 Z M 191.453125 172.234375 " fill-opacity="1" fill-rule="nonzero"/></g><path fill="#ffffff" d="M 200.117188 184.0625 C 201.449219 185.886719 202.566406 187.832031 203.464844 189.90625 C 203.574219 190.167969 203.695312 190.425781 203.800781 190.691406 L 204.070312 191.503906 C 204.261719 192.042969 204.421875 192.589844 204.550781 193.148438 C 204.816406 194.277344 204.976562 195.417969 205.027344 196.578125 C 205.027344 197.15625 205.027344 197.738281 204.960938 198.3125 L 204.859375 199.171875 C 204.835938 199.460938 204.789062 199.742188 204.722656 200.023438 C 204.617188 200.585938 204.480469 201.144531 204.316406 201.691406 L 204.078125 202.515625 C 203.992188 202.78125 203.878906 203.046875 203.785156 203.3125 C 202.972656 205.417969 201.941406 207.414062 200.691406 209.289062 C 201.378906 207.152344 202.125 205.070312 202.691406 202.960938 C 202.84375 202.433594 202.957031 201.902344 203.074219 201.371094 C 203.195312 200.847656 203.292969 200.320312 203.359375 199.785156 C 203.464844 199.253906 203.480469 198.722656 203.535156 198.191406 C 203.59375 197.660156 203.535156 197.125 203.570312 196.59375 C 203.480469 194.433594 203.089844 192.328125 202.402344 190.277344 C 201.734375 188.214844 200.902344 186.160156 200.117188 184.0625 Z M 200.117188 184.0625 " fill-opacity="1" fill-rule="nonzero"/><path fill="#ffffff" d="M 235.355469 110.984375 C 232.746094 111.585938 230.417969 112.75 228.367188 114.476562 C 227.375 115.308594 226.515625 116.265625 225.789062 117.34375 C 225.074219 118.414062 224.539062 119.566406 224.175781 120.800781 L 224.175781 120.871094 C 223.257812 122.875 222.335938 124.871094 221.402344 126.863281 C 220.46875 128.859375 219.535156 130.847656 218.578125 132.832031 C 216.695312 136.804688 214.753906 140.757812 212.839844 144.714844 L 209.863281 150.644531 L 206.875 156.53125 C 204.867188 160.445312 202.832031 164.351562 200.714844 168.210938 C 202.417969 164.152344 204.210938 160.128906 206.019531 156.117188 L 208.769531 150.113281 L 211.566406 144.136719 C 213.476562 140.160156 215.347656 136.1875 217.304688 132.238281 C 218.257812 130.257812 219.230469 128.285156 220.214844 126.320312 C 221.199219 124.351562 222.1875 122.386719 223.175781 120.417969 L 223.144531 120.488281 C 223.585938 119.167969 224.222656 117.949219 225.058594 116.835938 C 225.878906 115.742188 226.835938 114.785156 227.929688 113.96875 C 230.140625 112.320312 232.617188 111.328125 235.355469 110.984375 Z M 235.355469 110.984375 " fill-opacity="1" fill-rule="nonzero"/><path fill="#ffffff" d="M 150.683594 185.1875 C 152.171875 181.828125 154.25 178.890625 156.925781 176.375 C 159.625 173.839844 162.707031 171.929688 166.175781 170.636719 C 167.039062 170.316406 167.914062 170.03125 168.800781 169.796875 C 169.691406 169.566406 170.625 169.386719 171.441406 169.191406 C 173.132812 168.769531 174.726562 168.113281 176.222656 167.214844 C 179.238281 165.332031 181.699219 162.890625 183.601562 159.886719 L 183.558594 159.96875 C 185.472656 155.992188 187.382812 152.035156 189.296875 148.082031 C 191.210938 144.125 193.175781 140.179688 195.121094 136.230469 C 197.066406 132.28125 199.050781 128.355469 201.050781 124.433594 L 204.070312 118.5625 C 205.074219 116.605469 206.09375 114.65625 207.121094 112.710938 C 206.246094 114.726562 205.347656 116.742188 204.445312 118.746094 L 201.734375 124.765625 C 199.90625 128.769531 198.058594 132.761719 196.191406 136.746094 C 194.316406 140.730469 192.453125 144.714844 190.550781 148.703125 C 188.644531 152.691406 186.753906 156.640625 184.8125 160.59375 L 184.8125 160.675781 C 183.792969 162.226562 182.628906 163.664062 181.320312 164.980469 C 179.992188 166.289062 178.519531 167.417969 176.90625 168.359375 C 175.28125 169.300781 173.550781 169.972656 171.71875 170.382812 C 170.785156 170.578125 169.949219 170.699219 169.085938 170.914062 C 168.222656 171.117188 167.375 171.359375 166.539062 171.648438 C 164.851562 172.230469 163.230469 172.964844 161.679688 173.851562 C 160.128906 174.742188 158.675781 175.765625 157.320312 176.929688 C 155.964844 178.089844 154.726562 179.371094 153.613281 180.769531 C 152.5 182.164062 151.527344 183.652344 150.695312 185.234375 Z M 150.683594 185.1875 " fill-opacity="1" fill-rule="nonzero"/><g fill="#131a44" fill-opacity="1"><g transform="translate(22.019514, 277.304247)"><g><path d="M 4.3125 0 L 4.3125 -33.453125 L 12.40625 -33.453125 L 21.28125 -9.65625 L 30.15625 -33.453125 L 38.25 -33.453125 L 38.25 0 L 32.484375 0 L 32.484375 -25.015625 L 24.1875 -2.90625 L 18.375 -2.90625 L 10.078125 -25.015625 L 10.078125 0 Z M 4.3125 0 "/></g></g></g><g fill="#131a44" fill-opacity="1"><g transform="translate(62.888976, 277.304247)"><g><path d="M 4.3125 0 L 4.3125 -33.453125 L 26.5625 -33.453125 L 26.5625 -27.9375 L 10.328125 -27.9375 L 10.328125 -19.484375 L 25.453125 -19.484375 L 25.453125 -13.96875 L 10.328125 -13.96875 L 10.328125 -5.6875 L 26.5625 -5.6875 L 26.5625 0 Z M 4.3125 0 "/></g></g></g><g fill="#131a44" fill-opacity="1"><g transform="translate(90.666501, 277.304247)"><g><path d="M 0.28125 0 L 13.6875 -33.453125 L 18.1875 -33.453125 L 31.515625 0 L 25.015625 0 L 22.4375 -7.265625 L 9.453125 -7.265625 L 6.84375 0 Z M 11.484375 -12.40625 L 20.40625 -12.40625 L 15.953125 -24.625 Z M 11.484375 -12.40625 "/></g></g></g><g fill="#131a44" fill-opacity="1"><g transform="translate(120.764121, 277.304247)"><g><path d="M 4.3125 0 L 4.3125 -33.453125 L 10.328125 -33.453125 L 10.328125 -5.6875 L 24.625 -5.6875 L 24.625 0 Z M 4.3125 0 "/></g></g></g><g fill="#131a44" fill-opacity="1"><g transform="translate(144.232901, 277.304247)"><g/></g></g><g fill="#131a44" fill-opacity="1"><g transform="translate(154.183604, 277.304247)"><g><path d="M 4.3125 0 L 4.3125 -33.453125 L 14.796875 -33.453125 C 16.503906 -33.453125 18.070312 -33.234375 19.5 -32.796875 C 20.9375 -32.367188 22.1875 -31.726562 23.25 -30.875 C 24.320312 -30.03125 25.148438 -28.992188 25.734375 -27.765625 C 26.316406 -26.535156 26.609375 -25.132812 26.609375 -23.5625 C 26.609375 -22 26.316406 -20.613281 25.734375 -19.40625 C 25.148438 -18.207031 24.320312 -17.191406 23.25 -16.359375 C 22.1875 -15.535156 20.9375 -14.914062 19.5 -14.5 C 18.070312 -14.082031 16.503906 -13.875 14.796875 -13.875 L 10.28125 -13.875 L 10.28125 0 Z M 10.28125 -19.484375 L 14.796875 -19.484375 C 16.859375 -19.484375 18.347656 -19.828125 19.265625 -20.515625 C 20.179688 -21.210938 20.640625 -22.226562 20.640625 -23.5625 C 20.640625 -24.914062 20.171875 -25.96875 19.234375 -26.71875 C 18.304688 -27.46875 16.828125 -27.84375 14.796875 -27.84375 L 10.28125 -27.84375 Z M 10.28125 -19.484375 "/></g></g></g><g fill="#131a44" fill-opacity="1"><g transform="translate(180.114531, 277.304247)"><g><path d="M 4.3125 0 L 4.3125 -33.453125 L 10.328125 -33.453125 L 10.328125 -5.6875 L 24.625 -5.6875 L 24.625 0 Z M 4.3125 0 "/></g></g></g><g fill="#131a44" fill-opacity="1"><g transform="translate(203.58331, 277.304247)"><g><path d="M 0.28125 0 L 13.6875 -33.453125 L 18.1875 -33.453125 L 31.515625 0 L 25.015625 0 L 22.4375 -7.265625 L 9.453125 -7.265625 L 6.84375 0 Z M 11.484375 -12.40625 L 20.40625 -12.40625 L 15.953125 -24.625 Z M 11.484375 -12.40625 "/></g></g></g><g fill="#131a44" fill-opacity="1"><g transform="translate(233.680921, 277.304247)"><g><path d="M 4.3125 0 L 4.3125 -33.453125 L 10.28125 -33.453125 L 24.34375 -10.03125 L 24.34375 -33.453125 L 30.109375 -33.453125 L 30.109375 0 L 24.09375 0 L 10.078125 -23.46875 L 10.078125 0 Z M 4.3125 0 "/></g></g></g><g fill="#131a44" fill-opacity="1"><g transform="translate(266.406395, 277.304247)"><g><path d="M 4.3125 0 L 4.3125 -33.453125 L 10.28125 -33.453125 L 24.34375 -10.03125 L 24.34375 -33.453125 L 30.109375 -33.453125 L 30.109375 0 L 24.09375 0 L 10.078125 -23.46875 L 10.078125 0 Z M 4.3125 0 "/></g></g></g><g fill="#131a44" fill-opacity="1"><g transform="translate(299.131869, 277.304247)"><g><path d="M 4.3125 0 L 4.3125 -33.453125 L 26.5625 -33.453125 L 26.5625 -27.9375 L 10.328125 -27.9375 L 10.328125 -19.484375 L 25.453125 -19.484375 L 25.453125 -13.96875 L 10.328125 -13.96875 L 10.328125 -5.6875 L 26.5625 -5.6875 L 26.5625 0 Z M 4.3125 0 "/></g></g></g><g fill="#131a44" fill-opacity="1"><g transform="translate(326.909399, 277.304247)"><g><path d="M 4.3125 0.046875 L 4.3125 -33.453125 L 15.125 -33.453125 C 16.6875 -33.453125 18.164062 -33.234375 19.5625 -32.796875 C 20.957031 -32.367188 22.1875 -31.726562 23.25 -30.875 C 24.320312 -30.03125 25.164062 -29 25.78125 -27.78125 C 26.394531 -26.5625 26.703125 -25.171875 26.703125 -23.609375 C 26.703125 -22.203125 26.421875 -20.921875 25.859375 -19.765625 C 25.296875 -18.617188 24.519531 -17.628906 23.53125 -16.796875 C 22.550781 -15.960938 21.429688 -15.328125 20.171875 -14.890625 L 29.46875 0.046875 L 22.578125 0.046875 L 14.34375 -14.296875 L 10.328125 -14.296875 L 10.328125 0.046875 Z M 10.375 -19.203125 L 15.671875 -19.203125 C 17.265625 -19.273438 18.507812 -19.695312 19.40625 -20.46875 C 20.3125 -21.25 20.765625 -22.265625 20.765625 -23.515625 C 20.765625 -24.898438 20.257812 -26.003906 19.25 -26.828125 C 18.25 -27.660156 16.890625 -28.078125 15.171875 -28.078125 L 10.375 -28.078125 Z M 10.375 -19.203125 "/></g></g></g><g fill="#131a44" fill-opacity="1"><g transform="translate(41.326388, 310.915455)"><g><path d="M 7.28125 -4.84375 L 9.375 -4.84375 L 9.375 -1.125 C 8.851562 -0.757812 8.226562 -0.460938 7.5 -0.234375 C 6.769531 -0.00390625 6.078125 0.109375 5.421875 0.109375 C 3.960938 0.109375 2.75 -0.351562 1.78125 -1.28125 C 0.8125 -2.21875 0.328125 -3.378906 0.328125 -4.765625 C 0.328125 -6.140625 0.828125 -7.289062 1.828125 -8.21875 C 2.828125 -9.144531 4.078125 -9.609375 5.578125 -9.609375 C 6.285156 -9.609375 6.988281 -9.476562 7.6875 -9.21875 C 8.382812 -8.96875 8.976562 -8.625 9.46875 -8.1875 L 8.109375 -6.546875 C 7.765625 -6.859375 7.363281 -7.109375 6.90625 -7.296875 C 6.457031 -7.484375 6.007812 -7.578125 5.5625 -7.578125 C 4.78125 -7.578125 4.125 -7.304688 3.59375 -6.765625 C 3.0625 -6.222656 2.796875 -5.554688 2.796875 -4.765625 C 2.796875 -3.953125 3.0625 -3.273438 3.59375 -2.734375 C 4.132812 -2.191406 4.800781 -1.921875 5.59375 -1.921875 C 6.101562 -1.921875 6.664062 -2.070312 7.28125 -2.375 Z M 7.28125 -4.84375 "/></g></g></g><g fill="#131a44" fill-opacity="1"><g transform="translate(58.246892, 310.915455)"><g><path d="M 8.40625 -7.625 L 3.375 -7.625 L 3.375 -5.734375 L 7.921875 -5.734375 L 7.921875 -3.828125 L 3.375 -3.828125 L 3.375 -1.90625 L 8.5625 -1.90625 L 8.5625 0 L 0.953125 0 L 0.953125 -9.53125 L 8.40625 -9.53125 Z M 8.40625 -7.625 "/></g></g></g><g fill="#131a44" fill-opacity="1"><g transform="translate(74.228494, 310.915455)"><g><path d="M 9.75 0 L 7.609375 0 L 3.21875 -5.859375 L 3.21875 0 L 0.953125 0 L 0.953125 -9.53125 L 3.09375 -9.53125 L 7.484375 -3.640625 L 7.484375 -9.53125 L 9.75 -9.53125 Z M 9.75 0 "/></g></g></g><g fill="#131a44" fill-opacity="1"><g transform="translate(91.734111, 310.915455)"><g><path d="M 6.703125 0 L 5.28125 -2.6875 L 3.375 -2.6875 L 3.375 0 L 0.953125 0 L 0.953125 -9.53125 L 5.21875 -9.53125 C 6.476562 -9.53125 7.453125 -9.238281 8.140625 -8.65625 C 8.828125 -8.082031 9.171875 -7.265625 9.171875 -6.203125 C 9.171875 -4.734375 8.59375 -3.710938 7.4375 -3.140625 L 9.4375 0 Z M 3.375 -4.59375 L 5.21875 -4.59375 C 5.738281 -4.59375 6.144531 -4.722656 6.4375 -4.984375 C 6.726562 -5.242188 6.875 -5.625 6.875 -6.125 C 6.875 -6.613281 6.726562 -6.984375 6.4375 -7.234375 C 6.144531 -7.492188 5.738281 -7.625 5.21875 -7.625 L 3.375 -7.625 Z M 3.375 -4.59375 "/></g></g></g><g fill="#131a44" fill-opacity="1"><g transform="translate(108.396079, 310.915455)"><g><path d="M 8.40625 -7.625 L 3.375 -7.625 L 3.375 -5.734375 L 7.921875 -5.734375 L 7.921875 -3.828125 L 3.375 -3.828125 L 3.375 -1.90625 L 8.5625 -1.90625 L 8.5625 0 L 0.953125 0 L 0.953125 -9.53125 L 8.40625 -9.53125 Z M 8.40625 -7.625 "/></g></g></g><g fill="#131a44" fill-opacity="1"><g transform="translate(124.377682, 310.915455)"><g><path d="M 7.28125 -1.75 L 3.109375 -1.75 L 2.421875 0 L -0.0625 0 L 4.046875 -9.53125 L 6.53125 -9.53125 L 10.546875 0 L 7.96875 0 Z M 6.578125 -3.59375 L 5.21875 -7.125 L 3.828125 -3.59375 Z M 6.578125 -3.59375 "/></g></g></g><g fill="#131a44" fill-opacity="1"><g transform="translate(141.665581, 310.915455)"><g><path d="M 8.234375 -7.578125 L 5.359375 -7.578125 L 5.359375 0 L 2.9375 0 L 2.9375 -7.578125 L 0.09375 -7.578125 L 0.09375 -9.546875 L 8.234375 -9.546875 Z M 8.234375 -7.578125 "/></g></g></g><g fill="#131a44" fill-opacity="1"><g transform="translate(156.789921, 310.915455)"><g><path d="M 8.40625 -7.625 L 3.375 -7.625 L 3.375 -5.734375 L 7.921875 -5.734375 L 7.921875 -3.828125 L 3.375 -3.828125 L 3.375 -1.90625 L 8.5625 -1.90625 L 8.5625 0 L 0.953125 0 L 0.953125 -9.53125 L 8.40625 -9.53125 Z M 8.40625 -7.625 "/></g></g></g><g fill="#131a44" fill-opacity="1"><g transform="translate(172.771524, 310.915455)"><g/></g></g><g fill="#131a44" fill-opacity="1"><g transform="translate(182.738731, 310.915455)"><g><path d="M 11.421875 0 L 9.28125 0 L 9.265625 -6.1875 L 6.984375 -0.953125 L 5.40625 -0.953125 L 3.109375 -6.1875 L 3.109375 0 L 0.953125 0 L 0.953125 -9.546875 L 3.609375 -9.546875 L 6.1875 -3.859375 L 8.78125 -9.546875 L 11.421875 -9.546875 Z M 11.421875 0 "/></g></g></g><g fill="#131a44" fill-opacity="1"><g transform="translate(201.931644, 310.915455)"><g><path d="M 8.40625 -7.625 L 3.375 -7.625 L 3.375 -5.734375 L 7.921875 -5.734375 L 7.921875 -3.828125 L 3.375 -3.828125 L 3.375 -1.90625 L 8.5625 -1.90625 L 8.5625 0 L 0.953125 0 L 0.953125 -9.53125 L 8.40625 -9.53125 Z M 8.40625 -7.625 "/></g></g></g><g fill="#131a44" fill-opacity="1"><g transform="translate(217.913247, 310.915455)"><g><path d="M 7.28125 -1.75 L 3.109375 -1.75 L 2.421875 0 L -0.0625 0 L 4.046875 -9.53125 L 6.53125 -9.53125 L 10.546875 0 L 7.96875 0 Z M 6.578125 -3.59375 L 5.21875 -7.125 L 3.828125 -3.59375 Z M 6.578125 -3.59375 "/></g></g></g><g fill="#131a44" fill-opacity="1"><g transform="translate(235.201146, 310.915455)"><g><path d="M 3.375 -2.03125 L 7.421875 -2.03125 L 7.421875 0 L 0.953125 0 L 0.953125 -9.53125 L 3.375 -9.53125 Z M 3.375 -2.03125 "/></g></g></g><g fill="#131a44" fill-opacity="1"><g transform="translate(249.631522, 310.915455)"><g/></g></g><g fill="#131a44" fill-opacity="1"><g transform="translate(259.598717, 310.915455)"><g><path d="M 0.953125 -9.53125 L 5.109375 -9.53125 C 6.316406 -9.53125 7.253906 -9.238281 7.921875 -8.65625 C 8.597656 -8.082031 8.9375 -7.265625 8.9375 -6.203125 C 8.9375 -5.085938 8.597656 -4.222656 7.921875 -3.609375 C 7.253906 -2.992188 6.316406 -2.6875 5.109375 -2.6875 L 3.375 -2.6875 L 3.375 0 L 0.953125 0 Z M 3.375 -7.625 L 3.375 -4.59375 L 4.984375 -4.59375 C 5.515625 -4.59375 5.925781 -4.722656 6.21875 -4.984375 C 6.507812 -5.242188 6.65625 -5.625 6.65625 -6.125 C 6.65625 -6.613281 6.507812 -6.984375 6.21875 -7.234375 C 5.925781 -7.492188 5.515625 -7.625 4.984375 -7.625 Z M 3.375 -7.625 "/></g></g></g><g fill="#131a44" fill-opacity="1"><g transform="translate(275.661953, 310.915455)"><g><path d="M 3.375 -2.03125 L 7.421875 -2.03125 L 7.421875 0 L 0.953125 0 L 0.953125 -9.53125 L 3.375 -9.53125 Z M 3.375 -2.03125 "/></g></g></g><g fill="#131a44" fill-opacity="1"><g transform="translate(290.092329, 310.915455)"><g><path d="M 7.28125 -1.75 L 3.109375 -1.75 L 2.421875 0 L -0.0625 0 L 4.046875 -9.53125 L 6.53125 -9.53125 L 10.546875 0 L 7.96875 0 Z M 6.578125 -3.59375 L 5.21875 -7.125 L 3.828125 -3.59375 Z M 6.578125 -3.59375 "/></g></g></g><g fill="#131a44" fill-opacity="1"><g transform="translate(307.380215, 310.915455)"><g><path d="M 9.75 0 L 7.609375 0 L 3.21875 -5.859375 L 3.21875 0 L 0.953125 0 L 0.953125 -9.53125 L 3.09375 -9.53125 L 7.484375 -3.640625 L 7.484375 -9.53125 L 9.75 -9.53125 Z M 9.75 0 "/></g></g></g><g fill="#131a44" fill-opacity="1"><g transform="translate(324.885834, 310.915455)"><g><path d="M 4.609375 -9.640625 C 6.035156 -9.640625 7.289062 -9.285156 8.375 -8.578125 L 7.453125 -6.6875 C 6.953125 -6.976562 6.414062 -7.210938 5.84375 -7.390625 C 5.28125 -7.578125 4.800781 -7.671875 4.40625 -7.671875 C 3.707031 -7.671875 3.359375 -7.441406 3.359375 -6.984375 C 3.359375 -6.679688 3.53125 -6.4375 3.875 -6.25 C 4.21875 -6.070312 4.632812 -5.914062 5.125 -5.78125 C 5.625 -5.65625 6.117188 -5.5 6.609375 -5.3125 C 7.109375 -5.125 7.53125 -4.820312 7.875 -4.40625 C 8.21875 -3.988281 8.390625 -3.460938 8.390625 -2.828125 C 8.390625 -1.910156 8.03125 -1.195312 7.3125 -0.6875 C 6.601562 -0.175781 5.695312 0.078125 4.59375 0.078125 C 3.800781 0.078125 3.019531 -0.0546875 2.25 -0.328125 C 1.476562 -0.597656 0.804688 -0.96875 0.234375 -1.4375 L 1.171875 -3.3125 C 1.648438 -2.894531 2.210938 -2.550781 2.859375 -2.28125 C 3.515625 -2.007812 4.097656 -1.875 4.609375 -1.875 C 5.003906 -1.875 5.3125 -1.941406 5.53125 -2.078125 C 5.75 -2.222656 5.859375 -2.429688 5.859375 -2.703125 C 5.859375 -2.972656 5.734375 -3.195312 5.484375 -3.375 C 5.234375 -3.550781 4.921875 -3.679688 4.546875 -3.765625 C 4.171875 -3.847656 3.765625 -3.960938 3.328125 -4.109375 C 2.898438 -4.253906 2.5 -4.410156 2.125 -4.578125 C 1.75 -4.753906 1.4375 -5.03125 1.1875 -5.40625 C 0.9375 -5.78125 0.8125 -6.234375 0.8125 -6.765625 C 0.8125 -7.640625 1.160156 -8.335938 1.859375 -8.859375 C 2.554688 -9.378906 3.472656 -9.640625 4.609375 -9.640625 Z M 4.609375 -9.640625 "/></g></g></g></svg>