<?xml version="1.0" encoding="utf-8"?>
<!-- Generator: Adobe Illustrator 23.0.3, SVG Export Plug-In . SVG Version: 6.00 Build 0)  -->
<svg version="1.1" id="Layer_1" xmlns="http://www.w3.org/2000/svg" xmlns:xlink="http://www.w3.org/1999/xlink" x="0px" y="0px"
	 viewBox="0 0 1200 1200" enable-background="new 0 0 1200 1200" xml:space="preserve">
<g>
	<path fill="#527239" d="M997.443,610.316c6.822-1.768,14.05-0.821,20.925,0.727c9.669,2.176,19.043,5.509,28.237,9.21
		c21.325,8.584,41.779,19.169,62.194,29.736c12.022,6.222,24.146,12.512,34.584,21.13c-23.678,9.869-46.088,22.511-69.275,33.485
		c-23.187,10.974-47.513,20.369-73.016,23.131c3.337-8.111,3.694-17.173,2.733-25.891c-0.961-8.717-3.182-17.239-4.846-25.85
		c-4.547-23.519-4.938-47.628-4.807-71.582 M110.222,649.219c-15.495,6.896-29.781,16.511-41.988,28.286
		c-3.051,2.943-5.972,6.021-8.749,9.224c-2.129,2.456-5.917,5.622-5.75,9.099c0.378,7.88,9.178,14.147,15.11,17.898
		c18.268,11.549,39.225,18.815,60.722,21.051c6.431,0.669,13.147,0.856,19.124-1.609c-2.662-10.756-4.172-21.796-4.496-32.871
		c-0.265-9.047,0.258-18.112-0.25-27.149c-0.322-5.724-1.057-11.441-0.825-17.169s1.515-11.583,4.845-16.249
		c-3.428-0.871-7.043-0.244-10.498,0.515C128.111,642.299,118.972,645.325,110.222,649.219z"/>
	<path fill="#AF7045" d="M992.536,735.176c-17.245,4.847-21.039,7.697-39.396,9.077c-0.235,0.076-0.459,0.176-0.697,0.246
		c-6.342,1.855-5.252,3.642-11.878,2.839c-0.464,0.009-4.864,1.238-5.339,1.246l-2.848,0.178c-1.964-0.251-6.165,0.759-8.009,1.424
		c-51.451,18.56-181.356,27.663-373.389,36.889c-14.624,0.703-29.296,0.023-43.796-2.003l-362.083-43.252
		c-5.912-19.12-6.915-44.796-7.92-62.508c-0.722-12.71,1.092-25.918,7.624-36.844c8.385-14.025,23.282-22.57,37.197-31.138
		c22.984-14.152,44.943-29.969,65.647-47.285c6.977-5.836,14.005-12.091,17.859-20.33c3.391-7.248,7.678-30.321,1.669-37.168
		c-2.968-3.381-13.29-3.281-17.596-4.058c-12.309-2.22-24.557-4.782-36.858-7.041c10.292-13.703,16.383-29.446,13.932-46.288
		c6.048,1.62,12.509,1.917,18.807,2.352c16.156,1.115,32.225,3.472,48.023,7.031c17.118,3.857,23.343,9.544,36.319-2.588
		c23.77-22.224,49.354-42.797,73.938-64.123c17.346-15.047,34.824-30.19,54.692-41.704c34.555-20.026,74.943-28.171,114.854-29.65
		c0.817-0.03,1.634-0.018,2.451-0.042l-0.404-0.482c17.243,0.075,34.487,0.15,51.73,0.225c22.227,0.097,44.489,0.196,66.619,2.265
		c58.285,5.451,115.455,24.906,163.857,57.831c48.402,32.925,87.787,79.438,110.452,133.412
		c10.943,26.059,17.978,53.58,27.87,80.055c8.284,22.17,18.642,43.854,22.403,67.22
		C1022.653,688.224,1019.119,727.705,992.536,735.176z"/>
	<path fill="#EFDFC2" d="M212.724,495.448c-1.028-0.189-2.051-0.403-3.08-0.587c-18.705-3.342-34.956-5.997-53.896-1.842
		c-9.526,2.089-20.594,5.051-28.16-1.103c-5.846-4.755-7.017-13.258-6.239-20.753c1.261-12.152,8.048-25.105,19.918-27.996
		c5.474-1.333,12.235-0.802,15.557-5.353c1.968-2.696,1.943-6.309,2.911-9.504c2.313-7.638,10.71-12.46,18.678-12.003
		c18.268,1.049,26.669,23.064,41.873,30.515c2.049,1.004,4.185,1.753,6.371,2.338C229.106,466.002,223.016,481.745,212.724,495.448z
		"/>
	<path fill="#769660" d="M1144.768,672.502c11.532,25.967,2.461,58.485-12.26,82.436c-14.721,23.951-36.943,41.327-60.533,54.179
		c-50.74,27.642-108.14,36.051-164.405,43.364c-147.087,19.117-295.287,33.422-443.214,25.188
		c-31.365-1.746-62.685-4.528-93.884-8.481c-55.189-6.993-110.028-17.649-163.857-32.777c-26.845-7.544-53.433-16.201-79.647-26.062
		c-13.101-4.928-26.108-10.156-39.004-15.695c-11.45-4.917-19.22-9.928-25.541-21.991c-6.262-11.951-10.213-25.316-11.724-38.989
		c-0.756-6.839-0.903-13.759-0.423-20.628c0.321-4.593,0.323-15.926,3.578-18.992c8.736,6.713,16.63,12.837,26.794,16.979
		c9.528,3.883,19.448,6.462,29.347,8.915c202.991,50.308,412.565,75.428,619.77,54.14c137.624-14.14,273.487-48.747,402.701-102.576
		C1140.262,668.983,1143.465,669.569,1144.768,672.502z"/>
	<path fill="#63340E" d="M403.742,615.427c0.315,5.023-0.449,9.997-1.757,14.698c-2.611,9.45-7.178,17.927-11.843,26.125
		c-0.398,0.7-1.287,0.944-1.986,0.546c-0.667-0.38-0.914-1.22-0.59-1.902c1.691-3.536,3.386-7.073,4.944-10.639
		c-0.02,0.011-0.038,0.029-0.058,0.039l-1.721,0.675c-1.159,0.399-2.328,0.759-3.517,1.03c-2.376,0.556-4.786,0.973-7.127,1.671
		c-2.353,0.653-4.586,1.785-6.909,2.55c-1.162,0.381-2.353,0.643-3.58,0.767c-1.205,0.208-2.51,0.019-4.321-2.151
		c0.562-2.752,1.631-3.522,2.799-3.895c1.147-0.458,2.329-0.777,3.541-0.978c2.424-0.397,4.938-0.427,7.332-0.938
		c2.406-0.464,4.742-1.21,7.114-1.817c1.184-0.309,2.389-0.531,3.603-0.714l1.839-0.197c0.588-0.02,1.243,0.241,2.104,1.38
		c1.706-4.138,3.17-8.325,4.131-12.614c0.281-1.186,0.506-2.375,0.692-3.563c-3.113,1.264-6.274,2.389-9.47,3.405
		c-3.828,1.217-7.723,2.189-11.611,3.194c-3.903,0.94-7.802,1.938-11.771,2.567c-1.991,0.277-4.003,0.434-6.034,0.448
		c-1.026-0.058-2.014,0.108-3.07-0.157c-1.069-0.352-2.199-1.101-3.498-3.074c1.313-4.546,3.306-4.336,5.17-5.098
		c1.876-0.647,3.765-1.179,5.67-1.621c3.821-0.815,7.688-1.396,11.523-2.166l11.509-2.326c3.848-0.753,7.694-1.539,11.602-2.16
		c0.168-0.027,0.324,0.02,0.489,0.019c-0.051-5.335-1.148-10.576-3.486-15.497c-0.299,1.112-0.717,1.821-1.222,2.22
		c-0.839,0.534-1.774,0.722-2.657,1.1c-1.801,0.629-3.599,1.286-5.426,1.834c-3.646,1.13-7.35,2.056-11.089,2.804
		c-7.497,1.411-15.058,2.435-22.625,3.279c-7.555,0.934-15.139,1.669-22.746,1.947c-3.805,0.117-7.615,0.039-11.417-0.154
		l-5.696-0.45c-1.894-0.132-3.797-0.74-5.627-3.427c1.92-2.655,3.765-3.231,5.621-3.331l5.551-0.563
		c3.695-0.361,7.378-0.724,11.062-1.007c7.367-0.568,14.725-1.233,22.041-2.247c7.304-1.105,14.542-2.58,21.731-4.208
		c1.797-0.409,3.598-0.796,5.413-1.124c1.798-0.404,3.616-0.725,5.438-1.04c1.805-0.381,3.64-0.654,5.471-0.954
		c0.924-0.121,1.796-0.432,2.765-0.396c0.2,0.028,0.413,0.106,0.629,0.193c-1.22-2.216-2.525-4.419-3.855-6.639
		c-1.081-1.812-2.193-3.571-3.287-5.362c-0.725,0.91-1.489,1.562-2.273,2.072c-1.445,0.879-2.998,1.021-4.507,1.46
		c-3.038,0.75-6.111,1.261-9.197,1.675c-6.187,0.723-12.439,0.967-18.622,1.696l-18.537,2.275c-3.093,0.35-6.2,0.585-9.316,0.746
		c-1.555,0.107-3.121,0.122-4.681,0.175c-0.786-0.018-1.549,0.149-2.359-0.063c-0.814-0.245-1.684-0.953-2.659-2.519
		c0.564-1.784,1.233-2.708,1.958-3.172c0.729-0.43,1.505-0.481,2.258-0.717c1.517-0.382,3.029-0.803,4.552-1.132
		c3.039-0.71,6.087-1.347,9.15-1.868l18.395-2.953c6.128-1.013,12.187-2.513,18.31-3.532c3.069-0.458,6.152-0.819,9.269-0.939
		c1.371,0.002,2.713-0.193,4.118,0.047c-3.551-5.63-7.378-11.006-11.726-15.869c0.042,0.603,0.042,1.042,0.001,1.314
		c-0.064,0.516-0.288,0.393-0.454,0.501l-1.06,0.399l-2.122,0.798c-1.414,0.537-2.851,0.988-4.279,1.479
		c-2.867,0.939-5.769,1.745-8.69,2.469c-5.85,1.417-11.796,2.384-17.731,3.353c-5.946,0.909-11.901,1.782-17.916,2.145
		c-3.006,0.184-6.015,0.321-9.037,0.3l-4.526-0.026l-2.262-0.034c-0.747,0.045-1.533-0.264-2.468-2.193
		c0.547-2.079,1.243-2.538,1.977-2.643l2.183-0.486l4.355-1.012c2.895-0.715,5.797-1.32,8.695-1.924
		c5.792-1.23,11.614-2.172,17.407-3.3l17.362-3.413c2.904-0.521,5.817-1.008,8.756-1.405c1.47-0.196,2.932-0.431,4.416-0.581
		l1.116-0.136c-0.351-0.336-0.669-0.705-1.027-1.034c-4.379-4.071-9.202-7.688-14.232-11.064c-3.193,2.996-6.931,5.313-10.882,7.128
		c-4.024,1.889-8.314,3.156-12.666,4.011c-4.364,0.809-8.846,0.993-13.255,0.464c-2.206-0.288-4.382-0.647-6.527-1.083l-3.191-0.738
		l-1.573-0.432c-0.514-0.215-1.076,0.027-1.481-1.24c0.641-1.186,1.124-0.862,1.656-0.995l1.564-0.187l3.099-0.5
		c2.052-0.388,4.07-0.839,6.055-1.357l11.655-3.021c3.844-0.948,7.611-2.117,11.406-3.278c2.695-0.852,5.409-1.743,8.174-2.615
		c-0.713-0.44-1.413-0.897-2.132-1.329c-2.646-1.602-5.348-3.119-8.039-4.653c-0.164,0.443-0.428,0.683-0.72,0.803
		c-0.679,0.318-1.376,0.579-2.08,0.769c-1.411,0.38-2.846,0.497-4.255,0.426c-2.823-0.136-5.49-0.687-8.101-0.618
		c-2.604-0.018-5.183,0.521-7.676,1.034c-1.247,0.243-2.467,0.445-3.676,0.53c-0.604,0.044-1.206,0.065-1.809,0.068
		c-0.603,0.046-1.225-0.361-2.28-2.673c0.214-2.529,0.864-3.128,1.537-3.246c0.674-0.152,1.352-0.264,2.03-0.331
		c1.356-0.13,2.706-0.052,4.032,0.114c2.652,0.359,5.222,0.935,7.763,0.809c2.533-0.039,5.017-0.866,7.288-1.746
		c0.142-0.056,0.272-0.086,0.413-0.14c-2.963-1.605-5.923-3.215-8.921-4.756c-16.671-8.479-33.927-15.848-51.663-22.282
		c-0.262-0.095-0.397-0.384-0.303-0.646c0.087-0.24,0.338-0.374,0.582-0.321c18.494,4.042,36.557,10.279,53.788,18.32
		c8.629,4.002,17.025,8.487,25.213,13.359c8.156,4.933,16.163,10.391,23.285,17.042c7.191,6.636,12.99,14.583,18.043,22.661
		c2.538,4.052,4.85,8.198,7.186,12.295c2.323,4.108,4.706,8.312,6.604,12.863C402.196,605.417,403.506,610.402,403.742,615.427z
		 M944.79,671.894c-18.599,1.855-37.59-0.666-56.42-4.186c-18.872-3.514-37.796-8.111-57.346-10.604
		c-19.51-2.435-38.969-2.914-58.204-4.043c-9.622-0.548-19.19-1.271-28.68-2.407c-9.487-1.148-19.002-2.762-28.656-4.136
		c-9.644-1.378-19.45-2.507-29.394-2.597c-2.394-0.04-4.795,0.011-7.196,0.129c1.353-2.418,2.541-4.936,3.812-7.4
		c1.254-2.532,2.194-5.217,3.297-7.82c0.753-1.816,1.322-3.702,1.894-5.586c0.708,0.081,1.417,0.128,2.126,0.189l7.717,0.59
		c5.144,0.44,10.29,0.678,15.436,0.967c10.292,0.514,20.586,0.714,30.881,0.911c10.295,0.199,20.589,0.419,30.886,0.348
		c5.149-0.04,10.299-0.236,15.449-0.475l7.727-0.448c2.575-0.12,5.155-0.747,7.755-3.505c-2.548-2.806-5.116-3.481-7.688-3.649
		l-7.717-0.591c-5.145-0.336-10.291-0.627-15.437-0.763c-10.294-0.262-20.591-0.233-30.887-0.226
		c-10.296,0.005-20.593,0.014-30.893,0.337c-5.15,0.194-10.299,0.337-15.451,0.681l-7.727,0.446
		c-0.254,0.017-0.508,0.033-0.761,0.046c1.846-7.165,2.958-14.506,3.256-21.873c0.143,0.102,0.274,0.153,0.385,0.118l1.286-0.134
		c0.86-0.076,1.696-0.211,2.566-0.239c1.744-0.03,3.442-0.205,5.18-0.216c3.468-0.051,6.942-0.05,10.444,0.01
		c7.003,0.054,14.101,0.368,21.275,0.655c7.173,0.308,14.44,0.637,21.797,0.252c3.679-0.204,7.369-0.649,11.043-1.281
		c3.569-1.013,7.634-0.481,10.317-5.245c-2.237-1.74-4.008-2.053-5.76-2.063c-1.755,0.006-3.476,0.101-5.222,0.068
		c-3.488-0.014-6.978-0.143-10.486-0.246l-21.304-0.791c-7.184-0.303-14.457-0.575-21.828-0.258
		c-3.684,0.202-7.388,0.58-11.074,1.236c-1.84,0.319-3.686,0.772-5.504,1.207c-0.911,0.217-1.816,0.546-2.719,0.813l-0.376,0.118
		c-0.015-1,0.031-2.003-0.012-3.001c-0.269-6.343-1.116-12.587-2.359-18.732c0.257,0.026,0.514,0.06,0.769,0.141l4.484,0.672
		c2.99,0.425,5.983,0.766,8.98,1.026c5.994,0.489,11.995,0.794,17.996,1.09c5.995,0.282,11.959,0.831,18.262,0.563
		c3.136-0.2,6.322-0.56,9.523-1.423c1.579-0.458,3.245-0.813,4.715-1.803c1.437-1.048,2.806-2.498,3.226-4.847
		c-2.212-0.893-3.65-1.242-5.082-1.402c-1.423-0.18-2.691,0.128-4.086,0.105c-2.738,0.067-5.57-0.011-8.437-0.1l-17.769-0.399
		c-6.006-0.158-12.013-0.307-18.027-0.273c-3.007,0.033-6.018,0.146-9.031,0.345l-4.522,0.331c-0.759,0.18-1.503-0.011-2.264,0.211
		c-1.734-6.952-4.051-13.728-6.753-20.327c0.883,0.073,1.766,0.145,2.649,0.216c2.616,0.183,5.229,0.253,7.84,0.268
		c5.219-0.058,10.435-0.227,15.65-0.415c5.216-0.167,10.434-0.271,15.638-0.775c2.601-0.289,5.201-0.625,7.796-1.091
		c2.598-0.361,5.191-0.909,7.704-3.782c-2.701-2.708-5.323-3.09-7.939-3.285c-2.619-0.3-5.234-0.471-7.847-0.594
		c-5.224-0.173-10.435,0.054-15.647,0.218c-5.214,0.143-10.426,0.305-15.636,0.579c-2.603,0.18-5.205,0.416-7.804,0.764
		c-1.299,0.188-2.599,0.333-3.896,0.569l-1.584,0.265c-1.797-3.88-3.687-7.708-5.727-11.429c-0.926-1.707-1.926-3.372-2.917-5.042
		c7.482,0.493,14.887,0.353,22.291,0.081c4.109-0.21,8.217-0.352,12.317-0.94c2.05-0.283,4.099-0.703,6.151-1.098
		c2.056-0.316,4.104-0.711,6.136-3.379c-2.107-2.608-4.198-2.929-6.282-3.156c-2.086-0.299-4.177-0.61-6.265-0.768
		c-4.177-0.333-8.342-0.148-12.505,0.04c-8.318,0.493-16.625,1.389-24.795,3.483c-0.176,0.046-0.333,0.136-0.495,0.214
		c-3.841-5.889-8.041-11.541-12.632-16.859c3.054-0.263,6.028-0.685,8.959-1.195c3.491-0.578,6.927-1.286,10.358-2.032
		c3.43-0.747,6.842-1.557,10.229-2.66c1.698-0.527,3.39-1.132,5.091-1.755l2.563-0.903c0.425-0.181,0.87-0.192,1.272-0.579
		c0.404-0.367,0.769-1.076,1.092-2.214c-0.569-1.031-1.097-1.632-1.585-1.892c-0.491-0.28-0.938-0.183-1.405-0.257l-2.782-0.188
		c-1.858-0.115-3.72-0.176-5.568-0.114c-3.704,0.086-7.351,0.653-10.937,1.474c-3.586,0.822-7.124,1.875-10.551,3.252
		c-3.433,1.349-6.782,2.957-9.892,5.098c-0.091,0.063-0.134,0.172-0.215,0.248c-6.304-6.852-13.162-13.177-20.525-18.805
		c-17.459-13.445-37.288-23.62-58.198-30.223c-20.965-6.544-42.894-9.4-64.696-9.259c-21.825,0.14-43.506,3.432-64.504,8.931
		c-10.495,2.789-20.838,6.121-30.953,10.029c-10.113,3.874-19.866,8.252-30.137,10.331c-20.727,4.265-42.447,2.73-63.202-1.991
		c-0.856-0.194-1.719,0.332-1.929,1.188c-0.213,0.866,0.316,1.74,1.182,1.953c20.999,5.167,43.176,7.19,64.799,3.153
		c10.919-2.019,21.017-6.366,31.028-9.985c10.022-3.667,20.245-6.758,30.587-9.308c20.674-5.092,41.911-8.017,63.137-7.852
		c21.199,0.157,42.39,3.238,62.436,9.803c20.025,6.63,38.906,16.675,55.36,29.716c16.509,12.994,30.232,29.304,39.938,47.798
		c9.82,18.496,16.625,38.763,17.193,59.333c0.296,10.25-0.998,20.484-3.941,30.232c-0.851,2.4-1.478,4.876-2.495,7.215
		c-1.038,2.328-1.897,4.731-3.066,6.999c-1.211,2.247-2.317,4.548-3.601,6.756c-1.23,2.143-2.883,3.98-3.34,6.642
		c-3.243,0.516-6.467,1.112-9.634,1.873c-9.652,2.291-18.982,5.52-28.053,9.173c-9.031,3.669-18.078,7.549-26.648,12.663
		c-4.262,2.576-8.398,5.439-12.206,8.747c-3.84,3.328-7.202,6.895-10.462,10.699c-6.257,7.635-12.159,16.403-13.374,27.1
		c-0.489,5.483,0.591,10.358,1.777,15.24c1.268,4.851,3.01,9.56,5.231,14.055c2.225,4.49,4.939,8.773,8.258,12.612
		c0.828,0.959,1.737,1.856,2.604,2.783c0.914,0.885,1.893,1.712,2.838,2.567c1.003,0.794,2.049,1.539,3.074,2.307
		c1.101,0.629,2.053,1.669,4.011,0.689c0.422-0.211,0.703-0.657,0.681-1.16l-0.004-0.086c-0.102-2.248-1.231-2.448-2.173-3.111
		l-2.7-2.09c-0.833-0.785-1.699-1.531-2.51-2.338c-0.769-0.855-1.578-1.669-2.318-2.552c-2.963-3.531-5.419-7.522-7.427-11.729
		c-2.005-4.211-3.573-8.65-4.686-13.179c-1.053-4.485-1.926-9.281-1.438-13.468c1.062-8.757,6.45-16.907,12.473-23.961
		c3.082-3.5,6.438-6.945,9.963-9.9c3.546-2.992,7.435-5.604,11.488-7.974c8.139-4.701,16.995-8.366,25.937-11.843
		c8.93-3.446,17.996-6.424,27.217-8.469c18.434-4.42,37.372-2.999,56.351,0.013c9.497,1.446,19.057,3.169,28.777,4.444
		c9.722,1.261,19.458,2.092,29.156,2.742c19.39,1.32,38.689,2.02,57.598,4.553c18.872,2.483,37.628,7.112,56.789,10.777
		c19.117,3.65,38.938,6.455,59.003,4.559l0.026-0.002c2.559-0.256,4.426-2.539,4.17-5.098
		C949.632,673.505,947.349,671.638,944.79,671.894z M151.63,470.213c-1.947,0.017-3.562,0.074-4.3,0
		c-0.64-0.086-0.735,0.139-1.236-0.187c-0.472-0.456-0.62-2.033-0.382-3.686c0.174-1.718,0.704-3.5,1.187-5.551
		c-2.01,0.68-3.697,1.897-5.229,3.465c-1.431,1.605-2.842,3.715-2.776,6.962c0.049,3.391,3.039,6.595,5.957,7.455
		c2.847,0.941,4.992,0.774,6.728,0.854c3.699,0.028,7.401-0.27,11.104-0.932c3.703-0.698,7.408-1.681,11.119-3.6
		c-3.688-1.96-7.382-2.985-11.078-3.724C159.027,470.565,155.329,470.225,151.63,470.213z M199.522,473.284
		c-1.077-0.187-2.209-0.067-3.405,0.413c-1.203,0.518-2.455,1.311-3.87,3.015c0.737,2.09,1.637,3.267,2.585,4.17
		c0.956,0.865,1.976,1.37,3.051,1.568c1.074,0.2,2.207,0.078,3.403-0.401c1.202-0.515,2.455-1.311,3.872-3.027
		c-0.735-2.102-1.634-3.282-2.583-4.182C201.619,473.975,200.599,473.469,199.522,473.284z M602.698,744.601
		c-1.745-2.329-2.998-4.991-3.912-7.796c-1.833-5.617-2.669-11.319-2.607-16.955c0.115-5.641,1.213-11.175,3.552-16.567
		c1.136-2.709,2.698-5.28,4.579-7.66c0.95-1.18,1.978-2.321,3.109-3.366c1.062-1.195,2.529-1.618,3.195-3.771
		c-2.152-0.634-3.481,0.526-4.999,1.236c-1.495,0.791-2.925,1.718-4.308,2.732c-2.749,2.045-5.281,4.478-7.44,7.267
		c-4.399,5.527-6.861,12.771-6.998,19.934c-0.205,7.181,1.847,14.33,5.659,20.221c1.879,2.951,4.173,5.737,6.977,7.936
		c1.399,1.098,2.93,2.051,4.571,2.752c1.61,0.71,3.501,1.089,5.301,0.229c-1.358-1.418-2.504-2.2-3.67-3.083
		C604.567,746.817,603.57,745.758,602.698,744.601z M624.356,685.476c0.7-0.337,1.422-0.637,2.103-1.003
		c1.38-0.703,2.731-1.449,4.039-2.27c2.621-1.634,5.187-3.389,7.91-4.863c2.713-1.492,5.543-2.755,8.372-4.005
		c1.405-0.646,2.806-1.299,4.172-2.037c0.684-0.365,1.375-0.718,2.041-1.129l1.014-0.584c0.156-0.128,0.367-0.126,0.479-0.362
		c0.044-0.146,0.057-0.368,0.004-0.747c0.005-0.24-0.155-0.879-0.276-1.425c-0.301-0.469-0.642-1.033-0.817-1.197
		c-0.233-0.303-0.401-0.449-0.537-0.518c-0.25-0.084-0.399,0.07-0.604,0.094l-1.15,0.327c-0.77,0.213-1.516,0.484-2.268,0.742
		c-1.499,0.529-2.95,1.169-4.385,1.842l-8.486,4.291c-2.837,1.41-5.77,2.657-8.583,4.136c-1.406,0.741-2.756,1.58-4.062,2.486
		c-0.657,0.448-1.273,0.961-1.91,1.438c-0.663,0.431-1.278,0.96-0.522,3.633C622.976,686.171,623.69,685.872,624.356,685.476z
		 M660.951,679.612c-3.156,2.332-6.319,4.624-9.545,6.81l-19.394,12.992c-6.548,4.453-13.582,9.709-18.061,17.45
		c-2.129,3.85-3.632,8.029-4.049,12.381c-0.208,2.169-0.155,4.365,0.216,6.499c0.17,1.067,0.458,2.116,0.796,3.133
		c0.406,0.973,0.447,2.177,2.37,2.468c1.205-1.553,0.576-2.21,0.534-3.169c-0.105-0.907-0.167-1.813-0.123-2.72
		c0.057-1.809,0.384-3.593,0.912-5.308c1.06-3.435,2.919-6.6,5.194-9.302c4.585-5.38,10.832-9.418,17.374-13.686
		c6.656-4.228,13.281-9.205,19.049-14.821c2.918-2.8,5.735-5.694,8.414-8.706c1.35-1.494,2.666-3.016,3.965-4.548
		c1.294-1.533,2.386-3.281,2.706-5.729c-2.446,0.381-4.14,1.443-5.688,2.661C664.078,677.24,662.526,678.443,660.951,679.612z"/>
	<path fill="#EABA96" d="M812.663,387.953c18.113,10.841,35.26,23.3,51.434,36.938c16.238,13.575,31.411,28.442,45.553,44.233
		c6.96,7.992,13.829,16.074,20.234,24.523c6.567,8.609,12.119,17.975,16.623,27.639c9.184,19.325,15.302,39.498,21.551,59.622
		c-9.767-18.719-17.808-38.255-27.923-56.331c-5.114-9.01-10.556-17.686-17.104-25.516c-6.598-8.068-13.329-16.025-20.321-23.751
		c-6.874-7.832-14.011-15.433-21.3-22.89c-7.178-7.572-14.691-14.816-22.187-22.099C844.141,415.84,828.47,401.942,812.663,387.953z
		 M746.145,353.839c4.819,3.822,9.754,7.413,14.801,10.837c5.046,3.426,10.212,6.673,15.544,9.733
		c5.355,3.032,10.824,5.936,16.851,8.24c-3.62-5.346-7.946-9.905-12.523-14.148c-4.6-4.216-9.503-8.058-14.651-11.535
		c-5.147-3.479-10.533-6.605-16.15-9.314c-5.637-2.676-11.465-5.013-17.76-6.426C736.62,345.974,741.344,349.983,746.145,353.839z
		 M836.692,448.538c5.5,5.301,11.099,10.468,16.467,15.874c5.435,5.331,10.84,10.687,16.055,16.223
		c10.715,10.882,20.573,22.144,29.795,34.235c9.21,12.059,17.594,24.799,25.94,37.836c-4.843-14.705-11.637-28.799-19.965-41.976
		c-4.084-6.648-8.748-12.924-13.555-19.089c-4.912-6.114-10.205-11.833-15.511-17.465c-5.451-5.521-10.982-10.96-16.727-16.165
		c-5.812-5.13-11.635-10.243-17.778-14.964c-12.184-9.553-24.98-18.315-38.553-25.766L836.692,448.538z M690.908,354.27
		c8.405,5.685,16.886,11.168,25.363,16.657c8.49,5.47,16.979,10.929,25.599,16.266c8.59,5.385,17.226,10.742,26.333,15.683
		c-6.657-7.947-14.172-15.003-22.067-21.568c-7.865-6.613-16.197-12.641-24.818-18.206c-8.633-5.547-17.554-10.649-26.802-15.11
		c-9.218-4.508-18.703-8.502-28.645-11.427C674.053,342.92,682.473,348.633,690.908,354.27z M878.529,540.051
		c4.055,6.704,8.177,13.309,12.363,19.878c4.184,6.57,8.443,13.094,12.844,19.587c4.45,6.469,8.925,12.958,14.129,19.192
		c-1.697-7.945-4.504-15.451-7.732-22.757c-3.277-7.281-7.093-14.309-11.393-21.032c-4.298-6.724-9.069-13.151-14.321-19.177
		c-5.289-5.995-10.989-11.653-17.511-16.478C870.452,526.576,874.528,533.301,878.529,540.051z M775.394,435.27
		c4.274,4.129,8.702,8.057,12.968,12.166c4.314,4.053,8.659,8.063,12.891,12.193c8.55,8.166,17.093,16.336,25.567,24.634
		c8.481,8.296,16.902,16.685,25.761,24.904c-5.804-10.608-12.798-20.457-20.388-29.799c-7.598-9.341-15.782-18.211-24.526-26.486
		c-4.433-4.072-8.875-8.132-13.465-12.022c-4.672-3.795-9.296-7.639-14.179-11.159c-9.67-7.149-19.767-13.731-30.536-19.223
		C757.975,419.079,766.714,427.164,775.394,435.27z M680.449,375.878c5.203,3.71,10.519,7.178,15.943,10.466
		c5.423,3.289,10.96,6.386,16.656,9.278c5.717,2.863,11.544,5.583,17.891,7.659c-4.125-5.256-8.898-9.688-13.897-13.798
		c-5.02-4.081-10.315-7.778-15.831-11.106c-5.515-3.33-11.245-6.303-17.184-8.86c-5.957-2.523-12.087-4.707-18.646-5.961
		C670.152,368.224,675.263,372.133,680.449,375.878z M938.169,584.748c2.022,6.063,4.278,11.995,6.728,17.845
		c2.448,5.851,5.102,11.614,8.004,17.304c2.937,5.68,6.046,11.308,9.955,16.723c-0.241-6.677-1.491-13.069-3.113-19.334
		c-1.656-6.254-3.76-12.359-6.26-18.297c-2.498-5.938-5.38-11.715-8.677-17.278c-3.331-5.546-7-10.92-11.565-15.794
		C934.35,572.5,936.18,578.668,938.169,584.748z"/>
	<path fill="#2F6009" d="M841.787,842.68c6.38-2.121,12.668-2.369,18.987-2.727c6.309-0.429,12.604-0.972,18.878-1.688
		c12.542-1.466,25.018-3.365,37.358-5.9c24.708-5.012,48.857-12.077,72.284-21.453c5.928-2.305,11.938-4.646,18.152-6.67
		c6.221-2.06,12.654-3.611,18.879-4.983c6.249-1.367,12.395-2.617,18.297-4.281c5.903-1.607,11.497-3.891,17.013-6.478
		c11.062-5.152,20.997-12.628,30.485-20.687c4.737-4.056,9.27-8.406,13.736-12.851c2.241-2.213,4.434-4.491,6.635-6.765
		c2.121-2.348,4.585-4.391,8.784-4.897c-0.052,4.225-1.842,6.91-4.013,9.256c-2.102,2.409-4.2,4.826-6.367,7.198
		c-4.312,4.757-8.73,9.46-13.436,13.93c-9.355,8.969-19.905,17.026-31.743,23.057c-5.896,3.008-12.168,5.46-18.522,7.269
		c-6.337,1.818-12.657,3.15-18.828,4.518c-6.2,1.339-12.156,2.748-18.026,4.659c-5.893,1.886-11.754,4.136-17.692,6.409
		c-11.911,4.6-24.187,8.787-36.564,12.221c-12.419,3.363-24.972,6.232-37.662,8.263c-12.684,2.046-25.453,3.519-38.259,4.211
		c-6.4,0.368-12.806,0.558-19.208,0.633C854.56,845.02,848.128,844.892,841.787,842.68z M883.174,817.055
		c5.709,0,11.425-0.117,17.135-0.437c11.429-0.563,22.809-2.029,34.102-3.99c11.288-2.02,22.433-4.83,33.415-8.174
		c10.924-3.407,21.764-7.64,32.134-12.106c5.181-2.198,10.296-4.328,15.452-6.05c5.117-1.732,10.444-2.996,15.961-4.286
		c5.494-1.33,11.153-2.691,16.778-4.664c5.598-2.074,11.084-4.52,16.105-7.677c10.042-6.295,18.885-14.082,26.553-22.671
		c3.873-4.265,7.558-8.658,11.093-13.132c3.379-4.598,7.736-8.394,8.377-15.129c-6.432,2.09-9.191,7.086-13.105,11.133
		c-3.739,4.185-7.583,8.241-11.558,12.119c-7.957,7.736-16.407,14.847-25.795,20.18c-4.701,2.642-9.574,4.841-14.612,6.6
		c-5.077,1.704-10.453,2.923-15.963,4.177c-5.492,1.285-11.189,2.626-16.792,4.519c-5.574,1.864-10.91,4.088-16.136,6.31
		c-20.525,9.134-41.655,16.08-63.509,20.805c-10.89,2.451-21.941,4.157-33.051,5.5c-5.558,0.659-11.14,1.121-16.735,1.469
		c-2.797,0.18-5.6,0.249-8.403,0.38c-2.806,0.127-5.604,0.551-8.484,2.366C871.711,817.979,877.483,816.695,883.174,817.055z
		 M748.631,855.411c6.792,0.653,13.61,0.794,20.406,0.474c6.796-0.318,13.57-1.109,20.269-2.407
		c6.691-1.353,13.329-3.087,19.743-5.928c-6.935-1.027-13.686-1.241-20.411-1.366c-6.717-0.07-13.385,0.074-20.046,0.4
		c-6.661,0.324-13.313,0.816-19.993,1.528c-6.682,0.772-13.383,1.624-20.187,3.299C735.069,853.614,741.842,854.698,748.631,855.411
		z M983.462,768.526c1.176-0.463,2.414-0.792,3.612-1.193c2.416-0.76,4.874-1.402,7.357-1.956c4.962-1.1,9.964-2.089,15.07-2.835
		l15.396-2.524c5.168-0.975,10.379-2.046,15.587-3.397c5.189-1.381,10.376-3.154,15.396-5.333c4.942-2.323,9.709-4.915,14.174-7.897
		c4.436-3.02,8.724-6.168,12.767-9.575l6.017-5.115c1.958-1.753,4.228-3.084,4.594-6.9c-3.779-0.654-5.649,1.182-7.859,2.558
		l-6.559,4.178c-4.418,2.681-8.757,5.4-13.23,7.797c-8.919,4.9-17.916,8.82-27.718,11.295c-4.864,1.343-9.853,2.453-14.913,3.489
		c-5.047,1.144-10.179,2.166-15.302,3.458c-5.104,1.348-10.271,2.713-15.279,4.667c-2.509,0.936-4.998,1.967-7.428,3.117
		c-1.208,0.598-2.441,1.118-3.618,1.778c-1.188,0.623-2.253,1.576-2.577,3.842C980.987,769.147,982.286,769.001,983.462,768.526z
		 M87.093,777.705l10.436,4.054c6.961,2.697,13.925,5.39,20.94,7.958c13.982,5.261,28.126,10.105,42.299,14.882
		c14.189,4.729,28.487,9.155,42.863,13.325c14.348,4.261,28.808,8.179,43.383,11.648c14.531,3.635,29.186,6.876,43.929,9.601
		c14.725,2.816,29.506,5.27,44.32,7.336c14.808,2.123,29.623,4.003,44.439,5.689l22.212,2.48c7.413,0.786,14.857,1.008,22.7-1.084
		c-3.445-2.171-7.038-3.596-10.655-4.71c-3.62-1.123-7.294-1.879-10.996-2.391l-22.207-3.02c-14.807-1.898-29.629-3.485-44.406-5.25
		c-14.767-1.834-29.533-3.594-44.196-5.962c-14.656-2.387-29.201-5.362-43.674-8.727c-14.431-3.533-28.758-7.511-42.986-11.839
		c-14.208-4.395-28.306-9.15-42.37-14.018c-14.086-4.807-28.029-10.044-42.077-15.012l-21.052-7.533l-10.534-3.761
		c-3.55-1.155-7.276-1.835-11.664-0.751C80.394,774.315,83.655,776.247,87.093,777.705z M94.642,761.388
		c5.2,2.206,10.463,4.249,15.71,6.336c10.53,4.081,21.149,7.923,31.823,11.602c21.349,7.359,43.025,13.681,64.745,19.728
		c21.765,5.94,43.553,11.521,65.515,16.791c10.992,2.588,22.053,4.98,33.211,6.965c11.161,1.998,22.403,3.502,33.63,4.739
		c22.479,2.375,44.875,4.155,67.299,6.23l67.267,6.011c22.437,1.885,45.127,3.104,67.703,2.429
		c11.285-0.247,22.535-0.724,33.78-1.146l16.87-0.645l8.435-0.323l4.218-0.161c1.402-0.171,2.828,0.463,4.168-1.819
		c-1.473-2.198-2.859-1.48-4.269-1.568l-4.22,0.09l-8.439,0.18l-16.878,0.36c-11.255,0.233-22.502,0.52-33.724,0.577
		c-22.454,0.29-44.767-1.287-67.147-3.544l-67.223-6.324c-22.392-2.173-44.87-4.068-67.151-6.521
		c-22.303-2.357-44.247-6.426-66.073-11.694c-21.812-5.24-43.601-10.979-65.295-16.782c-21.714-5.782-43.252-12.138-64.632-18.959
		c-10.673-3.461-21.292-7.084-31.824-10.946c-5.247-1.977-10.514-3.911-15.715-6.006c-5.233-2.027-10.492-3.945-16.463-4.32
		C84.353,756.686,89.416,759.256,94.642,761.388z M468.309,858.152l8.657,1.009c5.774,0.675,11.569,1.105,17.367,1.5
		c11.602,0.698,23.229,0.877,34.848,0.921c11.62-0.091,23.241-0.351,34.836-1.075c5.795-0.416,11.585-0.861,17.359-1.494
		l8.655-0.969c2.883-0.313,5.76-0.781,8.51-2.515c-3.016-1.251-5.906-1.237-8.788-1.068l-8.659,0.274l-17.306,0.385
		c-11.529,0.258-23.056,0.44-34.58,0.25c-11.526-0.056-23.041-0.517-34.554-0.999l-17.281-0.677l-8.646-0.384
		c-2.875-0.233-5.774-0.131-8.852,1.623C462.559,857.22,465.422,857.853,468.309,858.152z M637.366,854.95
		c4.738,0.446,9.486,0.63,14.227,0.518c4.742-0.09,9.476-0.493,14.19-1.148c4.713-0.659,9.409-1.588,14.038-3.181
		c-4.794-0.987-9.527-1.409-14.247-1.66c-4.719-0.246-9.422-0.339-14.12-0.217c-4.698,0.1-9.393,0.398-14.096,0.861
		c-4.704,0.465-9.414,1.096-14.158,2.291C627.896,853.789,632.628,854.502,637.366,854.95z M632.214,839.735
		c2.493,0.509,5.025,0.683,7.542,0.557c2.517-0.125,5.02-0.559,7.45-1.327c2.422-0.803,4.794-1.857,6.921-3.634
		c-2.657-0.771-5.11-1.023-7.537-1.209c-2.419-0.152-4.789-0.157-7.154-0.029c-2.365,0.125-4.724,0.373-7.118,0.778
		c-2.398,0.444-4.816,0.951-7.37,2.003C627.259,838.397,629.724,839.187,632.214,839.735z M356.995,809.008
		c8.526,1.495,17.078,2.547,25.586,3.51c17.018,1.949,34.091,3.394,51.183,4.511c34.189,2.171,68.451,3.013,102.693,2.824
		c34.245-0.064,68.489-1.395,102.651-3.844l12.806-0.995l12.789-1.195c8.532-0.739,17.042-1.692,25.541-2.736
		c8.51-0.949,16.979-2.239,25.467-3.342c4.246-0.542,8.469-1.254,12.704-1.872c2.11-0.362,4.246-0.54,6.331-1.081
		c2.073-0.616,4.097-1.568,5.96-3.554c-2.366-1.39-4.572-1.745-6.729-1.765c-2.146,0.056-4.239,0.474-6.358,0.708
		c-4.23,0.53-8.447,1.154-12.686,1.607c-8.475,0.926-16.927,2.039-25.418,2.81c-16.962,1.683-33.914,3.491-50.92,4.663
		c-33.981,2.698-68.065,4.268-102.163,4.381c-34.099,0.033-68.185-1.322-102.181-3.768c-17.007-1.129-33.968-2.775-50.951-4.234
		c-8.485-0.796-16.92-1.675-25.251-2.973c-8.355-1.4-16.389-3.102-25.446-2.711C339.801,805.629,348.501,807.613,356.995,809.008z"
		/>
</g>
</svg>
