<?xml version="1.0" encoding="utf-8"?>
<!-- Generator: Adobe Illustrator 23.1.0, SVG Export Plug-In . SVG Version: 6.00 Build 0)  -->
<svg version="1.1" id="Layer_1" xmlns="http://www.w3.org/2000/svg" xmlns:xlink="http://www.w3.org/1999/xlink" x="0px" y="0px"
	 viewBox="0 0 1200 1200" enable-background="new 0 0 1200 1200" xml:space="preserve">
<g>
	<path fill="none" d="M823.173,519.844c-18.494-14.379-39.348-25.832-62.075-33.569c-7.091-2.325-14.159-4.621-21.305-6.635
		c7.146,2.014,14.214,4.31,21.305,6.635C783.824,494.013,804.679,505.465,823.173,519.844z"/>
	<path fill="none" d="M123.961,180.711c0.128-0.19,0.699-0.821,1.613-1.791C124.942,179.492,124.395,180.068,123.961,180.711z"/>
	<path fill="#2B2A2A" d="M574.345,1097.805c13.236,5.085,26.673,9.672,40.125,14.167c5.856,1.957,11.905,3.586,17.993,4.549
		c42.102,6.667,84.362,10.014,126.95,5.309c5.28-0.584,10.586-1.006,15.892-1.266c44.12-2.166,71.93-6.604,126.673-22.524
		c8.63-5.214,16.083-10.026,23.817-14.337c32.383-18.048,57.644-43.499,79.096-73.468c37.01-51.702,63.228-108.625,82.416-168.849
		c8.877-27.857,14.75-56.409,11.115-86.274c-2.672-21.95-3.145-44.158-5.223-66.192c-2.436-25.828-9.891-50.375-21.209-73.681
		c-12.772-26.301-25.731-52.513-38.942-78.595c-3.175-6.267-7.186-12.259-11.637-17.703c-15.136-18.511-30.41-36.918-46.079-54.977
		c-11.076-12.765-24.383-23.197-38.463-32.432c-38.473-25.235-77.099-50.242-115.805-75.119
		c-17.859-11.478-35.792-22.886-54.159-33.52c-18.368-10.634-36.823-21.122-56.387-29.633c-21.937-9.544-42.621-21.636-62.84-34.398
		c-17.216-10.866-34.134-22.098-52.937-30.277c-7.203-3.133-13.682-8.16-20.067-12.893c-5.67-4.203-11.271-8.501-16.821-12.865
		c-12.768-9.543-24.912-19.231-26.137-20.372c-14.259-13.285-53.346-45.177-69.435-56.054
		c-26.438-17.872-54.246-32.952-84.824-42.87c-49.601-16.087-97.631-12.45-144.056,10.587
		c-10.161,5.042-19.078,12.677-28.318,19.458c-9.055,6.647-17.366,14.339-28.099,21.621c-16.063,21.484-49.784,50.972-63.056,94.186
		c-0.995,3.332-7.781,29.647-8.016,33.178c-2.123,32.017-0.034,63.786,7.211,95.03c2.583,11.14,7.107,21.868,11.191,32.615
		c8.493,22.358,17.861,44.4,25.79,66.952c7.954,22.623,16.789,44.829,27.428,66.285c13.031,26.281,22.889,53.784,32.739,81.331
		c6.559,18.344,12.784,36.923,21.023,54.526c15.423,32.953,29.341,66.506,42.29,100.45c16.824,44.104,39.844,84.893,63.649,125.482
		c37.357,63.693,88.222,115.027,144.237,161.867C508.989,1070.114,541.141,1085.051,574.345,1097.805z M360.238,895.671
		c-20.794-34.032-42.357-67.662-58.369-104.316c-10.283-23.541-19.386-47.596-29.205-71.343
		c-7.108-17.19-14.164-34.417-21.887-51.334c-10.315-22.594-19.994-45.372-27.602-69.068c-8.946-27.863-20.294-54.785-32.813-81.286
		c-9.449-19.999-17.305-40.761-25.538-61.316c-9.55-23.846-18.075-48.124-28.288-71.676c-8.58-19.787-13.954-40.13-15.774-61.469
		c-1.807-21.17-3.48-42.355-0.75-63.604c3.198-24.888,12.263-47.913,20.614-68.882c12.4-15.866,25.018-28.218,38.906-39.328
		c11.067-8.853,22.137-17.712,32.962-26.857c36.839-31.119,80.107-39.8,126.804-36.34c5.229,0.387,10.502,1.869,15.482,3.618
		c17.561,6.169,35.091,12.445,52.465,19.122c15.812,6.077,29.47,16.053,43.697,25.016c23.339,14.703,43.473,33.441,64.852,50.615
		c11.731,9.423,23.747,18.525,35.04,28.448c12.748,11.202,26.612,20.755,41.678,28.226c25.463,12.627,48.83,28.642,73.019,43.336
		c3.779,2.296,7.569,4.67,11.604,6.435c28.428,12.438,55.609,27.331,82.892,42.011c9.343,5.028,18.427,10.593,27.336,16.366
		c34.907,22.621,70.3,44.429,106.04,65.725c44.803,26.696,81.223,62.856,110.912,105.347c13.639,19.52,24.606,41.03,35.527,62.282
		c8.488,16.518,15.065,34.019,22.405,51.121c1.745,4.067,3.598,8.175,4.621,12.451c12.631,52.795,21.669,105.927,13.199,160.427
		c-1.22,7.848-3.27,15.623-5.592,23.232c-9.847,32.261-22.319,63.635-36.768,93.984c-10.607,22.28-24.869,42.829-37.617,64.081
		c-19.003,31.68-44.97,56.626-74.864,77.956c-15.394,10.983-32.168,18.752-50.236,23.589c-29.15,7.804-58.752,13.223-89.003,14.547
		c-7.957,0.348-15.942,0.734-23.833,1.733c-31.839,4.026-63.627,1.838-95.398-0.623c-20.393-1.58-40.163-5.776-59.197-13.817
		c-15.496-6.547-31.481-11.997-47.43-17.4c-26.39-8.94-49.518-23.444-71.04-40.746c-26.965-21.678-51.93-45.568-75.561-70.761
		C393.5,943.822,375.552,920.732,360.238,895.671z"/>
	<path fill="#2B2A2A" d="M418.858,1026.559c12.324,10.096,24.707,20.137,36.695,30.623c21.505,18.812,45.606,33.327,71.352,45.561
		c39.508,18.774,80.947,31.844,123.715,39.694c43.622,8.007,87.862,9.58,132.197,5.079c19.398-1.969,39.051-2.692,57.729-8.496
		c23.676-7.358,47.015-15.825,70.35-24.229c5.762-2.075,11.268-5.285,16.34-8.775c33.651-23.156,66.435-47.307,90.136-81.495
		c3.021-4.358,6.363-8.536,9.91-12.479c16.082-17.873,29.657-37.395,40.351-58.979c12.959-26.157,27.749-51.514,33.835-80.556
		c0.542-2.585,1.588-5.07,2.471-7.577c8.875-25.181,13.516-51.11,16.489-77.683c6.049-54.095-1.057-106.024-22.148-155.998
		c-11.354-26.902-20.314-54.879-35.232-80.225c-7.952-25.059-22.255-46.091-40.809-64.455c-1.879-1.86-3.292-4.18-5.083-6.139
		c-17.944-19.634-37.15-37.998-57.967-54.509c-15.227-12.078-31.189-23.28-47.274-34.211c-11.742-7.979-22.916-16.538-33.55-25.922
		c-11.312-9.982-23.641-18.547-37.306-25.167c-5.548-2.687-10.731-6.165-15.95-9.486c-28.416-18.083-57.82-34.296-88.96-47.247
		c-31.133-12.949-61.167-28.051-89.775-45.925c-21.001-13.121-42.097-26.097-62.876-39.56
		c-23.781-15.408-46.66-31.876-66.681-52.302c-11.703-11.939-25.131-22.361-38.603-32.361
		c-34.701-25.757-74.384-40.832-115.828-51.511c-10.223-2.634-20.953-4.223-31.498-4.516
		c-53.867-1.495-104.086,8.718-144.913,47.352c-2.588,2.449-5.649,4.104-9.985,3.099c-9.596-7.537-15.275-18.822-22.979-28.461
		c-8.244-10.314-15.088-21.98-27.323-29.469c-16.811-1.829-30.051,7.302-43.341,16.031c-2.06,1.353-3.223,4.071-4.847,6.218
		c0.52,2.751,1.001,5.293,1.342,7.099c21.605,21.88,42.667,43.209,65.311,66.141c-7.899,7.433-13.984,12.571-19.352,18.371
		c-5.986,6.464-12.24,12.975-16.755,20.445C96.475,203.68,88.67,224.577,86.314,246.8c-2.14,20.186-3.568,40.516-1.755,60.959
		c5.14,57.972,19.469,113.367,46.035,165.293c12.546,24.522,23.095,49.796,32.076,75.795c3.177,9.199,6.948,18.21,10.775,27.168
		c9.395,21.998,19.115,43.86,28.447,65.886c6.909,16.308,14.147,32.535,19.941,49.247c10.168,29.33,21.376,58.196,34.327,86.408
		c10.719,23.352,20.848,46.982,31.875,70.186c9.113,19.177,17.55,38.745,29.986,56.213c8.218,11.544,15.881,23.483,23.732,35.287
		C363.457,971.877,388.417,1001.622,418.858,1026.559z M93.366,75.522c13.641-12.257,14.167-12.513,32.456-15.15
		c14.6,18.882,28.577,36.957,42.338,54.753c-1.988,8.203-5.874,13.577-12.69,16.56c-1.868-0.343-3.979-0.12-5.23-1.052
		C128.874,114.729,112.113,94.159,93.366,75.522z M321.353,889.246c-14.016-21.576-25.886-44.258-36.1-67.99
		c-15.065-35.001-31.169-69.547-44.319-105.353c-8.243-22.446-16.21-45.008-25.115-67.192
		c-10.229-25.484-21.413-50.584-32.069-75.898c-4.469-10.615-8.971-21.234-12.892-32.056c-8.765-24.19-18.54-47.905-30.372-70.792
		c-18.844-36.448-31.204-75.24-39.81-115.192c-8.296-38.509-8.265-77.28-2.026-116.17c3.465-21.597,13.367-40.151,25.311-57.892
		c0.434-0.644,0.981-1.219,1.613-1.791c9.196-9.771,54.335-55.209,57.415-57.847c-0.031,0.327-0.047,0.612-0.064,0.896
		c45.685-45.241,101.619-61.197,165.953-52.942c22.46,7.825,46.734,9.924,67.815,22.238c10.645,6.218,22.161,10.925,33.074,16.709
		c23.679,12.551,42.833,31.011,62.556,48.677c1.123,1.007,16.512,14.057,33.158,28.267c0.817,0.532,1.608,1.116,2.385,1.69
		c38.489,28.445,79.363,53.058,120.933,76.693c16.264,9.247,33.04,16.85,50.176,24.145c19.545,8.32,38.727,17.66,57.444,27.716
		c24.921,13.388,49.297,27.796,73.773,41.998c5.333,3.095,10.575,6.664,15.047,10.876c24.609,23.183,53.238,41.086,80.4,60.829
		c21.665,15.747,40.183,34.641,59.274,53.012c8.895,8.56,16.64,18.39,24.334,28.098c6.025,7.604,12.049,15.447,16.511,23.998
		c8.192,15.701,15.611,31.84,22.652,48.099c7.389,17.066,14.01,34.467,20.875,51.758c19.312,48.643,26.598,98.702,20.664,151.027
		c-4.33,38.175-13.795,74.853-27.034,110.616c-5.819,15.719-13.735,30.712-21.359,45.698c-6.819,13.403-14.564,26.335-21.864,39.495
		c-7.364,13.275-18.206,23.896-27.229,35.897c-22.668,30.147-51.303,53.664-81.801,75.247c-10.923,7.731-22.44,14.088-35.296,18.125
		c-13.526,4.248-26.871,9.069-40.282,13.678c-28.81,9.901-58.87,12.185-88.916,14.472c-8.822,0.671-17.786,0.094-26.513,1.317
		c-26.71,3.744-52.869-0.274-79.173-4.087c-22.977-3.331-44.933-10.153-66.635-17.856c-22.554-8.006-44.928-16.555-67.148-25.448
		c-19.068-7.631-35.912-19.31-51.72-32.151c-20.604-16.737-40.44-34.421-60.575-51.734c-20.282-17.439-37.418-37.746-52.835-59.448
		C347.719,929.184,334.383,909.303,321.353,889.246z"/>
	<path fill="#E2D588" d="M560.128,1076.679c15.949,5.403,31.933,10.853,47.43,17.4c19.034,8.041,38.804,12.237,59.197,13.817
		c31.771,2.461,63.559,4.649,95.398,0.623c7.892-0.999,15.876-1.385,23.833-1.733c30.252-1.323,59.853-6.743,89.003-14.547
		c18.068-4.838,34.842-12.606,50.236-23.589c29.895-21.33,55.862-46.275,74.864-77.956c12.748-21.252,27.01-41.8,37.617-64.081
		c14.449-30.349,26.921-61.723,36.768-93.984c2.322-7.609,4.372-15.385,5.592-23.232c8.47-54.5-0.568-107.632-13.199-160.427
		c-1.024-4.276-2.876-8.384-4.621-12.451c-7.339-17.102-13.917-34.603-22.405-51.121c-10.921-21.253-21.888-42.762-35.527-62.282
		c-29.689-42.492-66.109-78.652-110.912-105.347c-35.74-21.296-71.133-43.105-106.04-65.725
		c-8.909-5.773-17.993-11.339-27.336-16.366c-27.283-14.68-54.464-29.573-82.892-42.011c-4.035-1.765-7.825-4.14-11.604-6.435
		c-24.19-14.694-47.557-30.709-73.019-43.336c-15.066-7.471-28.93-17.024-41.678-28.226c-11.293-9.924-23.31-19.025-35.04-28.448
		c-21.379-17.174-41.513-35.912-64.852-50.615c-14.228-8.963-27.885-18.939-43.697-25.016
		c-17.373-6.677-34.904-12.953-52.465-19.122c-4.981-1.75-10.253-3.231-15.482-3.618c-46.698-3.46-89.965,5.221-126.804,36.34
		c-10.825,9.144-21.895,18.004-32.962,26.857c-13.888,11.11-26.507,23.463-38.906,39.328c-8.351,20.969-17.416,43.994-20.614,68.882
		c-2.73,21.25-1.057,42.434,0.75,63.604c1.82,21.339,7.194,41.683,15.774,61.469c10.214,23.552,18.738,47.83,28.288,71.676
		c8.233,20.555,16.089,41.317,25.538,61.316c12.519,26.501,23.867,53.423,32.813,81.286c7.608,23.697,17.287,46.474,27.602,69.068
		c7.723,16.917,14.779,34.144,21.887,51.334c9.819,23.748,18.922,47.802,29.205,71.343c16.012,36.654,37.575,70.284,58.369,104.316
		c15.314,25.061,33.263,48.151,53.289,69.501c23.631,25.192,48.597,49.082,75.561,70.761
		C510.61,1053.235,533.739,1067.739,560.128,1076.679z M452.142,688.098c3.1-38.65,15.443-74.169,36.998-106.555
		c10.29-15.461,19.944-31.229,33.613-44.185c52.607-49.866,114.732-71.063,186.963-63.756c4.474,0.453,8.871,1.127,13.214,1.969
		c3.258,0.632,6.483,1.359,9.687,2.157c2.403,0.599,4.794,1.239,7.177,1.911c7.146,2.014,14.214,4.31,21.305,6.635
		c22.727,7.738,43.581,19.191,62.075,33.569c3.699,2.876,7.303,5.869,10.808,8.972c7.011,6.207,13.63,12.857,19.823,19.899
		c3.539,4.024,6.939,8.176,10.194,12.447c4.007,5.256,7.796,10.693,11.354,16.291c7.116,11.197,13.311,23.042,18.501,35.395
		c16.865,40.149,23.095,85.666,15.697,131.723c-15.38,95.74-110.608,201.175-247.027,191.202
		C543.709,927.088,441.576,819.864,452.142,688.098z"/>
	<path opacity="0.56" fill="#A3D49D" d="M560.128,1076.679c15.949,5.403,31.933,10.853,47.43,17.4
		c19.034,8.041,38.804,12.237,59.197,13.817c31.771,2.461,63.559,4.649,95.398,0.623c7.892-0.999,15.876-1.385,23.833-1.733
		c30.252-1.323,59.853-6.743,89.003-14.547c18.068-4.838,34.842-12.606,50.236-23.589c29.895-21.33,55.862-46.275,74.864-77.956
		c12.748-21.252,27.01-41.8,37.617-64.081c14.449-30.349,26.921-61.723,36.768-93.984c2.322-7.609,4.372-15.385,5.592-23.232
		c8.47-54.5-0.568-107.632-13.199-160.427c-1.024-4.276-2.876-8.384-4.621-12.451c-7.339-17.102-13.917-34.603-22.405-51.121
		c-10.921-21.253-21.888-42.762-35.527-62.282c-29.689-42.492-66.109-78.652-110.912-105.347
		c-35.74-21.296-71.133-43.105-106.04-65.725c-8.909-5.773-17.993-11.339-27.336-16.366c-27.283-14.68-54.464-29.573-82.892-42.011
		c-4.035-1.765-7.825-4.14-11.604-6.435c-24.19-14.694-47.557-30.709-73.019-43.336c-15.066-7.471-28.93-17.024-41.678-28.226
		c-11.293-9.924-23.31-19.025-35.04-28.448c-21.379-17.174-41.513-35.912-64.852-50.615c-14.228-8.963-27.885-18.939-43.697-25.016
		c-17.373-6.677-34.904-12.953-52.465-19.122c-4.981-1.75-10.253-3.231-15.482-3.618c-46.698-3.46-89.965,5.221-126.804,36.34
		c-10.825,9.144-21.895,18.004-32.962,26.857c-13.888,11.11-26.507,23.463-38.906,39.328c-8.351,20.969-17.416,43.994-20.614,68.882
		c-2.73,21.25-1.057,42.434,0.75,63.604c1.82,21.339,7.194,41.683,15.774,61.469c10.214,23.552,18.738,47.83,28.288,71.676
		c8.233,20.555,16.089,41.317,25.538,61.316c12.519,26.501,23.867,53.423,32.813,81.286c7.608,23.697,17.287,46.474,27.602,69.068
		c7.723,16.917,14.779,34.144,21.887,51.334c9.819,23.748,18.922,47.802,29.205,71.343c16.012,36.654,37.575,70.284,58.369,104.316
		c15.314,25.061,33.263,48.151,53.289,69.501c23.631,25.192,48.597,49.082,75.561,70.761
		C510.61,1053.235,533.739,1067.739,560.128,1076.679z M452.142,688.098c3.1-38.65,15.443-74.169,36.998-106.555
		c10.29-15.461,19.944-31.229,33.613-44.185c52.607-49.866,114.732-71.063,186.963-63.756c4.474,0.453,8.871,1.127,13.214,1.969
		c3.258,0.632,6.483,1.359,9.687,2.157c2.403,0.599,4.794,1.239,7.177,1.911c7.146,2.014,14.214,4.31,21.305,6.635
		c22.727,7.738,43.581,19.191,62.075,33.569c3.699,2.876,7.303,5.869,10.808,8.972c7.011,6.207,13.63,12.857,19.823,19.899
		c3.539,4.024,6.939,8.176,10.194,12.447c4.007,5.256,7.796,10.693,11.354,16.291c7.116,11.197,13.311,23.042,18.501,35.395
		c16.865,40.149,23.095,85.666,15.697,131.723c-15.38,95.74-110.608,201.175-247.027,191.202
		C543.709,927.088,441.576,819.864,452.142,688.098z"/>
	<path fill="#4AA55B" d="M414.405,1008.129c20.135,17.312,39.971,34.996,60.575,51.734c15.808,12.841,32.652,24.519,51.72,32.151
		c22.22,8.893,44.594,17.442,67.148,25.448c21.702,7.703,43.659,14.525,66.635,17.856c26.305,3.813,52.463,7.831,79.173,4.087
		c8.726-1.223,17.691-0.646,26.513-1.317c30.045-2.288,60.105-4.572,88.916-14.472c13.411-4.609,26.756-9.43,40.282-13.678
		c12.856-4.037,24.373-10.394,35.296-18.125c30.498-21.583,59.133-45.1,81.801-75.247c9.023-12.001,19.865-22.622,27.229-35.897
		c7.3-13.16,15.045-26.092,21.864-39.495c7.624-14.987,15.54-29.979,21.359-45.698c13.239-35.763,22.704-72.441,27.034-110.616
		c5.934-52.325-1.352-102.384-20.664-151.027c-6.865-17.291-13.486-34.692-20.875-51.758c-7.041-16.259-14.46-32.398-22.652-48.099
		c-4.463-8.551-10.487-16.395-16.511-23.998c-7.694-9.709-15.439-19.538-24.334-28.098c-19.091-18.372-37.609-37.265-59.274-53.012
		c-27.162-19.743-55.791-37.647-80.4-60.829c-4.471-4.212-9.713-7.782-15.047-10.876c-24.476-14.202-48.853-28.61-73.773-41.998
		c-18.717-10.055-37.899-19.395-57.444-27.716c-17.136-7.295-33.912-14.899-50.176-24.145
		c-41.57-23.634-82.444-48.248-120.933-76.693c-0.777-0.574-1.568-1.158-2.385-1.69c-16.646-14.21-32.035-27.26-33.158-28.267
		c-19.723-17.667-38.877-36.126-62.556-48.677c-10.913-5.784-22.429-10.491-33.074-16.709
		c-21.082-12.314-45.356-14.413-67.815-22.238c-64.334-8.254-120.268,7.701-165.953,52.942c0.017-0.284,0.033-0.569,0.064-0.896
		c-3.081,2.638-48.219,48.076-57.415,57.847c-0.914,0.97-1.485,1.601-1.613,1.791c-11.943,17.741-21.846,36.295-25.311,57.892
		c-6.24,38.89-6.271,77.66,2.026,116.17c8.606,39.953,20.966,78.744,39.81,115.192c11.832,22.887,21.607,46.602,30.372,70.792
		c3.921,10.822,8.424,21.441,12.892,32.056c10.656,25.314,21.839,50.414,32.069,75.898c8.904,22.184,16.871,44.746,25.115,67.192
		c13.151,35.806,29.254,70.352,44.319,105.353c10.214,23.733,22.084,46.414,36.1,67.99c13.03,20.057,26.366,39.938,40.218,59.435
		C376.987,970.383,394.124,990.69,414.405,1008.129z M273.583,759.753c-12.949-33.944-26.866-67.498-42.29-100.45
		c-8.239-17.602-14.464-36.182-21.023-54.526c-9.849-27.547-19.708-55.05-32.739-81.331c-10.639-21.456-19.474-43.662-27.428-66.285
		c-7.929-22.551-17.297-44.594-25.79-66.952c-4.084-10.748-8.608-21.476-11.191-32.615c-7.245-31.245-9.334-63.014-7.211-95.03
		c0.235-3.531,7.021-29.846,8.016-33.178c13.271-43.214,46.992-72.702,63.056-94.186c10.733-7.282,19.044-14.974,28.099-21.621
		c9.24-6.782,18.157-14.416,28.318-19.458c46.425-23.038,94.455-26.675,144.056-10.587c30.578,9.917,58.386,24.998,84.824,42.87
		c16.09,10.877,55.176,42.769,69.435,56.054c1.225,1.141,13.369,10.829,26.137,20.372c5.55,4.364,11.151,8.662,16.821,12.865
		c6.386,4.733,12.864,9.76,20.067,12.893c18.803,8.179,35.721,19.411,52.937,30.277c20.219,12.761,40.903,24.854,62.84,34.398
		c19.563,8.511,38.019,18.999,56.387,29.633c18.366,10.633,36.3,22.042,54.159,33.52c38.706,24.877,77.332,49.884,115.805,75.119
		c14.08,9.235,27.387,19.667,38.463,32.432c15.669,18.059,30.944,36.466,46.079,54.977c4.451,5.444,8.462,11.436,11.637,17.703
		c13.211,26.082,26.171,52.294,38.942,78.595c11.317,23.306,18.773,47.853,21.209,73.681c2.078,22.034,2.551,44.242,5.223,66.192
		c3.635,29.866-2.238,58.417-11.115,86.274c-19.188,60.224-45.406,117.147-82.416,168.849
		c-21.451,29.969-46.713,55.42-79.096,73.468c-7.734,4.311-15.187,9.123-23.817,14.337c-54.743,15.92-82.553,20.358-126.673,22.524
		c-5.306,0.26-10.612,0.682-15.892,1.266c-42.588,4.705-84.848,1.358-126.95-5.309c-6.089-0.964-12.138-2.593-17.993-4.549
		c-13.452-4.495-26.888-9.082-40.125-14.167c-33.204-12.754-65.356-27.691-92.875-50.704
		c-56.015-46.84-106.881-98.174-144.237-161.867C313.427,844.646,290.408,803.857,273.583,759.753z"/>
	<path fill="#A1652B" d="M155.47,131.685c6.816-2.983,10.702-8.357,12.69-16.56c-13.761-17.796-27.737-35.871-42.338-54.753
		c-18.289,2.636-18.815,2.893-32.456,15.15c18.747,18.636,35.508,39.207,56.874,55.112
		C151.491,131.565,153.601,131.342,155.47,131.685z"/>
	<path fill="#2B2A2A" d="M662.522,935.773c136.42,9.973,231.648-95.462,247.027-191.202c7.398-46.058,1.168-91.574-15.697-131.723
		c-5.19-12.354-11.385-24.199-18.501-35.395c-3.558-5.598-7.347-11.035-11.354-16.291c-3.256-4.271-6.656-8.423-10.194-12.447
		c-6.193-7.042-12.811-13.692-19.823-19.899c-3.505-3.103-7.11-6.096-10.808-8.972c-18.494-14.379-39.348-25.831-62.075-33.569
		c-7.091-2.325-14.159-4.621-21.305-6.635c-2.383-0.672-4.774-1.312-7.177-1.911c-3.204-0.799-6.429-1.525-9.687-2.157
		c-4.343-0.842-8.74-1.517-13.214-1.969c-72.231-7.307-134.356,13.89-186.963,63.756c-13.668,12.956-23.322,28.724-33.613,44.185
		c-21.555,32.386-33.899,67.904-36.998,106.555C441.576,819.864,543.709,927.088,662.522,935.773z M463.99,708.338
		c-0.938-43.44,10.471-83.971,32.445-121.454c7.234-12.338,17.624-22.161,27.582-32.127
		c52.161-52.208,115.228-74.003,188.452-65.143c13.923,1.685,27.43,6.825,41.129,10.37
		C850.127,532.702,915.02,635.087,894.6,742.583c-24.314,127.994-135.194,192.7-241.475,178.638
		C540.868,906.369,466.276,814.253,463.99,708.338z"/>
	<path fill="#B27E4D" d="M683.584,507.798c7.513,0.109,15.098,1.409,22.041,3.723C698.682,509.207,691.097,507.907,683.584,507.798
		c-11.375,4.632-22.19,12.504-31.917,24.476C661.394,520.303,672.21,512.431,683.584,507.798
		c-19.438-0.282-38.382,7.672-44.369,28.627c-4.151,8.301,0,20.753,4.151,29.054c99.614,83.012,45.656,199.228,45.656,302.993
		c-4.151,37.355,66.409,24.904,91.313,0c70.56-78.861,95.463-195.077,45.656-290.541C798.773,533.7,735.306,486.734,683.584,507.798
		z"/>
	<path fill="#A1652B" d="M753.597,499.984c-13.699-3.545-27.205-8.685-41.129-10.37c-73.223-8.86-136.291,12.935-188.452,65.143
		c-9.958,9.965-20.348,19.788-27.582,32.127c-21.974,37.483-33.383,78.014-32.445,121.455
		c2.286,105.914,76.879,198.03,189.135,212.883c106.281,14.062,217.161-50.644,241.475-178.638
		C915.02,635.087,850.127,532.702,753.597,499.984z M780.335,868.472c-24.904,24.904-95.463,37.355-91.313,0
		c0-103.765,53.958-219.981-45.656-302.993c-4.151-8.301-8.301-20.753-4.151-29.054c5.987-20.955,24.931-28.909,44.369-28.627
		c51.722-21.065,115.189,25.902,142.408,70.133C875.799,673.394,850.895,789.61,780.335,868.472z"/>
</g>
<text x="310" y="150" font-family="Arial" font-size="24" fill="white">FATS</text>
</svg>
