<?xml version="1.0" encoding="utf-8"?>
<!-- Generator: Moho 12.5 build 22438 -->
<!DOCTYPE svg PUBLIC "-//W3C//DTD SVG 1.1//EN" "http://www.w3.org/Graphics/SVG/1.1/DTD/svg11.dtd">
<svg version="1.1" id="Frame_0" xmlns="http://www.w3.org/2000/svg" xmlns:xlink="http://www.w3.org/1999/xlink" width="1280px" height="720px">
<g id="Layer_5">
<g id="Layer_4">
<path fill="#1e5d02" fill-rule="evenodd" stroke="#1e5d02" stroke-width="2" stroke-linecap="round" stroke-linejoin="round" d="M 864.880 29.143 C 873.874 38.536 884.541 52.288 892.215 62.787 C 899.684 73.004 908.994 87.119 915.345 98.065 C 923.250 111.687 932.860 130.423 939.065 144.898 C 946.674 162.647 955.003 187.087 960.442 205.617 C 964.012 217.780 968.481 234.155 970.350 246.693 C 971.642 255.365 971.848 267.100 972.262 275.858 C 973.024 291.983 974.414 313.520 973.696 329.647 C 973.136 342.216 971.007 358.902 969.000 371.323 C 966.809 384.884 963.318 402.922 959.498 416.117 C 954.940 431.861 947.065 452.333 940.394 467.305 C 933.718 482.290 923.698 501.816 915.090 515.781 C 907.497 528.101 896.292 543.905 886.989 554.991 C 877.855 565.877 864.221 579.120 853.873 588.860 C 839.627 602.268 820.550 620.288 804.456 631.412 C 786.281 643.974 759.882 657.506 739.687 666.467 C 720.203 675.113 693.268 684.570 672.693 690.145 C 655.439 694.820 631.981 699.675 614.199 701.519 C 593.107 703.706 564.673 703.805 543.519 702.331 C 519.534 700.660 487.600 696.107 464.308 690.145 C 444.105 684.973 417.892 675.217 398.909 666.585 C 381.580 658.705 359.496 646.000 343.415 635.813 C 333.477 629.517 320.684 620.386 311.449 613.097 C 304.378 607.516 294.940 599.975 288.794 593.390 C 285.579 589.945 279.173 580.976 279.173 580.976 C 449.769 410.800 677.228 183.898 847.825 13.723 C 847.825 13.723 860.109 24.161 864.880 29.143 Z"/>
<path fill="#4f9f18" fill-rule="evenodd" stroke="#4f9f18" stroke-width="2" stroke-linecap="round" stroke-linejoin="round" d="M 858.119 35.011 C 866.898 44.179 877.310 57.602 884.801 67.850 C 892.090 77.824 901.178 91.602 907.378 102.287 C 915.094 115.583 924.474 133.871 930.531 148.000 C 937.958 165.326 946.089 189.182 951.397 207.269 C 954.882 219.142 959.245 235.126 961.069 247.364 C 962.331 255.830 962.532 267.284 962.936 275.834 C 963.679 291.572 965.036 312.596 964.336 328.336 C 963.789 340.606 961.711 356.894 959.752 369.018 C 957.613 382.255 954.206 399.862 950.477 412.742 C 946.027 428.110 938.340 448.093 931.829 462.707 C 925.312 477.334 915.531 496.394 907.129 510.026 C 899.717 522.052 888.780 537.478 879.699 548.299 C 870.783 558.925 857.475 571.852 847.374 581.359 C 833.468 594.447 814.847 612.036 799.137 622.895 C 781.397 635.157 755.628 648.365 735.916 657.113 C 716.897 665.552 690.605 674.783 670.522 680.225 C 653.679 684.788 630.782 689.528 613.425 691.327 C 592.836 693.462 565.081 693.559 544.432 692.120 C 521.021 690.490 489.849 686.044 467.114 680.225 C 447.394 675.177 421.807 665.653 403.276 657.227 C 386.361 649.536 364.805 637.135 349.108 627.191 C 339.407 621.045 326.920 612.132 317.906 605.017 C 311.004 599.569 301.791 592.209 295.791 585.781 C 292.653 582.418 286.400 573.663 286.400 573.663 C 452.922 407.552 674.950 186.070 841.471 19.959 C 841.471 19.959 853.462 30.148 858.119 35.011 Z"/>
<path fill="#fbfcb0" fill-rule="evenodd" stroke="#fbfcb0" stroke-width="2" stroke-linecap="round" stroke-linejoin="round" d="M 841.695 49.359 C 849.970 58.002 859.785 70.655 866.846 80.315 C 873.718 89.717 882.284 102.705 888.129 112.777 C 895.402 125.311 904.244 142.550 909.954 155.868 C 916.955 172.200 924.619 194.688 929.623 211.738 C 932.908 222.930 937.021 237.997 938.740 249.533 C 939.930 257.514 940.119 268.311 940.500 276.370 C 941.201 291.207 942.480 311.024 941.820 325.862 C 941.305 337.427 939.345 352.781 937.498 364.210 C 935.482 376.688 932.270 393.285 928.755 405.426 C 924.561 419.913 917.315 438.749 911.177 452.526 C 905.034 466.314 895.814 484.280 887.894 497.131 C 880.907 508.467 870.597 523.008 862.037 533.209 C 853.633 543.225 841.087 555.411 831.566 564.372 C 818.458 576.710 800.904 593.290 786.096 603.526 C 769.373 615.085 745.083 627.536 726.500 635.782 C 708.572 643.737 683.789 652.438 664.857 657.568 C 648.980 661.869 627.396 666.337 611.035 668.034 C 591.627 670.046 565.464 670.137 545.999 668.781 C 523.930 667.244 494.547 663.054 473.115 657.568 C 454.526 652.809 430.407 643.832 412.939 635.889 C 396.994 628.639 376.673 616.950 361.877 607.576 C 352.732 601.783 340.961 593.380 332.464 586.674 C 325.958 581.538 317.274 574.600 311.619 568.541 C 308.660 565.371 302.766 557.118 302.766 557.118 C 459.738 400.535 669.032 191.756 826.001 35.171 C 826.001 35.171 837.305 44.775 841.695 49.359 Z"/>
<path fill="#ff0302" fill-rule="evenodd" stroke="#ff0302" stroke-width="2" stroke-linecap="round" stroke-linejoin="round" d="M 836.881 53.643 C 845.019 62.142 854.671 74.585 861.615 84.085 C 868.372 93.330 876.797 106.102 882.544 116.006 C 889.696 128.332 898.392 145.284 904.006 158.382 C 910.891 174.442 918.428 196.556 923.349 213.322 C 926.579 224.328 930.623 239.145 932.314 250.490 C 933.484 258.338 933.670 268.955 934.045 276.881 C 934.734 291.470 935.992 310.958 935.342 325.550 C 934.836 336.923 932.909 352.021 931.093 363.260 C 929.111 375.531 925.952 391.852 922.495 403.792 C 918.371 418.038 911.245 436.561 905.209 450.109 C 899.168 463.668 890.101 481.336 882.313 493.972 C 875.442 505.120 865.303 519.420 856.886 529.451 C 848.621 539.301 836.284 551.284 826.921 560.096 C 814.030 572.229 796.769 588.534 782.207 598.599 C 765.762 609.966 741.875 622.211 723.601 630.319 C 705.971 638.142 681.599 646.699 662.982 651.743 C 647.370 655.973 626.144 660.367 610.055 662.035 C 590.970 664.014 565.242 664.104 546.100 662.770 C 524.398 661.258 495.503 657.138 474.428 651.743 C 456.147 647.064 432.429 638.236 415.251 630.425 C 399.571 623.295 379.589 611.800 365.038 602.582 C 356.046 596.885 344.470 588.622 336.114 582.027 C 329.716 576.977 321.177 570.154 315.615 564.196 C 312.706 561.079 306.910 552.962 306.910 552.962 C 461.272 398.981 667.089 193.674 821.448 39.691 C 821.448 39.691 832.564 49.135 836.881 53.643 Z"/>
<path fill="#0a0605" fill-rule="evenodd" stroke="none" d="M 772.965 160.564 C 772.617 160.391 772.231 160.031 771.917 159.803 C 771.917 159.803 771.785 154.913 772.306 152.908 C 773.653 147.724 777.145 141.147 780.730 137.168 C 782.686 134.996 785.989 132.707 788.643 131.482 C 791.152 130.324 794.819 129.192 797.582 129.257 C 801.129 129.340 805.994 130.723 808.864 132.809 C 809.669 133.394 810.425 134.540 810.966 135.375 C 811.846 136.733 812.793 138.698 813.326 140.226 C 813.522 140.789 813.654 141.576 813.795 142.155 C 813.555 144.591 813.922 148.008 812.997 150.274 C 811.657 153.560 808.369 157.410 805.380 159.323 C 800.598 162.385 792.664 163.780 786.986 163.779 C 782.671 163.777 776.830 162.483 772.965 160.564 M 813.795 142.155 C 813.795 142.155 813.795 142.155 813.795 142.155 Z"/>
<path fill="none" stroke="#0a0605" stroke-width="2" stroke-linecap="round" stroke-linejoin="round" d="M 771.917 159.803 C 771.917 159.803 771.917 159.803 771.917 159.803 C 772.231 160.031 772.617 160.391 772.965 160.564 C 776.830 162.483 782.671 163.777 786.986 163.779 C 792.664 163.780 800.598 162.385 805.380 159.323 C 808.369 157.410 811.657 153.560 812.997 150.274 C 813.922 148.008 813.555 144.591 813.795 142.155 C 813.795 142.155 813.795 142.155 813.795 142.155 C 813.654 141.576 813.522 140.789 813.326 140.226 C 812.793 138.698 811.846 136.733 810.966 135.375 C 810.425 134.540 809.669 133.394 808.864 132.809 C 805.994 130.723 801.129 129.340 797.582 129.257 C 794.819 129.192 791.152 130.324 788.643 131.482 C 785.989 132.707 782.686 134.996 780.730 137.168 C 777.145 141.147 773.653 147.724 772.306 152.908 C 771.785 154.913 771.917 159.803 771.917 159.803 "/>
<path fill="none" stroke="#213335" stroke-width="5" stroke-linecap="round" stroke-linejoin="round" d="M 795.524 133.964 C 795.525 133.964 800.551 134.265 802.541 135.022 C 803.855 135.523 805.454 136.586 806.508 137.515 C 807.685 138.552 809.811 141.567 809.812 141.567 "/>
<path fill="#0a0605" fill-rule="evenodd" stroke="none" d="M 808.485 238.110 C 808.227 237.820 808.004 237.342 807.798 237.013 C 807.799 237.012 809.507 232.429 810.741 230.765 C 813.932 226.463 819.633 221.672 824.446 219.324 C 827.074 218.043 830.993 217.158 833.913 217.016 C 836.673 216.882 840.497 217.205 843.034 218.300 C 846.293 219.706 850.285 222.810 852.166 225.819 C 852.694 226.662 852.965 228.008 853.154 228.985 C 853.461 230.574 853.604 232.751 853.525 234.368 C 853.497 234.962 853.324 235.742 853.237 236.331 C 852.103 238.500 851.164 241.806 849.458 243.561 C 846.984 246.106 842.493 248.444 839.006 249.099 C 833.426 250.147 825.546 248.469 820.282 246.342 C 816.281 244.724 811.351 241.336 808.485 238.110 M 853.237 236.331 C 853.237 236.331 853.237 236.331 853.237 236.331 Z"/>
<path fill="none" stroke="#0a0605" stroke-width="2" stroke-linecap="round" stroke-linejoin="round" d="M 807.798 237.013 C 807.798 237.013 807.798 237.013 807.798 237.013 C 808.004 237.342 808.227 237.820 808.485 238.110 C 811.351 241.336 816.281 244.724 820.282 246.342 C 825.546 248.469 833.426 250.147 839.006 249.099 C 842.493 248.444 846.984 246.106 849.458 243.561 C 851.164 241.806 852.103 238.500 853.237 236.331 C 853.237 236.331 853.237 236.331 853.237 236.331 C 853.324 235.742 853.497 234.962 853.525 234.368 C 853.604 232.751 853.461 230.574 853.154 228.985 C 852.965 228.008 852.694 226.662 852.166 225.819 C 850.285 222.810 846.293 219.706 843.034 218.300 C 840.497 217.205 836.673 216.882 833.913 217.016 C 830.993 217.158 827.074 218.043 824.446 219.324 C 819.633 221.672 813.932 226.463 810.741 230.765 C 809.507 232.429 807.799 237.012 807.798 237.013 "/>
<path fill="none" stroke="#213335" stroke-width="5" stroke-linecap="round" stroke-linejoin="round" d="M 839.364 221.894 C 839.365 221.894 843.913 224.055 845.474 225.503 C 846.505 226.459 847.589 228.043 848.219 229.300 C 848.922 230.702 849.765 234.294 849.765 234.295 "/>
<path fill="#0a0605" fill-rule="evenodd" stroke="none" d="M 813.221 327.162 C 813.060 326.809 812.988 326.286 812.888 325.911 C 812.888 325.911 815.869 322.033 817.538 320.805 C 821.853 317.632 828.710 314.730 834.002 313.902 C 836.890 313.451 840.897 313.757 843.729 314.480 C 846.406 315.164 849.966 316.598 852.068 318.391 C 854.769 320.693 857.673 324.833 858.585 328.263 C 858.841 329.224 858.704 330.590 858.598 331.579 C 858.424 333.189 857.920 335.311 857.370 336.833 C 857.167 337.393 856.773 338.088 856.517 338.625 C 854.795 340.365 852.924 343.248 850.778 344.424 C 847.665 346.128 842.685 347.042 839.159 346.642 C 833.518 346.002 826.480 342.081 822.075 338.499 C 818.727 335.777 815.011 331.088 813.221 327.162 M 856.517 338.625 C 856.517 338.625 856.517 338.625 856.517 338.625 Z"/>
<path fill="none" stroke="#0a0605" stroke-width="2" stroke-linecap="round" stroke-linejoin="round" d="M 812.888 325.911 C 812.888 325.911 812.888 325.911 812.888 325.911 C 812.988 326.286 813.060 326.809 813.221 327.162 C 815.011 331.088 818.727 335.777 822.075 338.499 C 826.480 342.081 833.518 346.002 839.159 346.642 C 842.685 347.042 847.665 346.128 850.778 344.424 C 852.924 343.248 854.795 340.365 856.517 338.625 C 856.517 338.625 856.517 338.625 856.517 338.625 C 856.773 338.088 857.167 337.393 857.370 336.833 C 857.920 335.311 858.424 333.189 858.598 331.579 C 858.704 330.590 858.841 329.224 858.585 328.263 C 857.673 324.833 854.769 320.693 852.068 318.391 C 849.966 316.598 846.406 315.164 843.729 314.480 C 840.897 313.757 836.890 313.451 834.002 313.902 C 828.710 314.730 821.853 317.632 817.538 320.805 C 815.869 322.033 812.888 325.911 812.888 325.911 "/>
<path fill="none" stroke="#213335" stroke-width="5" stroke-linecap="round" stroke-linejoin="round" d="M 847.504 320.746 C 847.504 320.746 851.216 324.150 852.282 325.992 C 852.986 327.209 853.556 329.042 853.789 330.429 C 854.048 331.975 853.797 335.657 853.797 335.657 "/>
<path fill="#0a0605" fill-rule="evenodd" stroke="none" d="M 787.249 410.156 C 787.203 409.771 787.293 409.251 787.312 408.863 C 787.312 408.863 791.332 406.075 793.295 405.414 C 798.370 403.703 805.786 403.025 811.078 403.846 C 813.967 404.294 817.690 405.805 820.168 407.355 C 822.511 408.821 825.466 411.270 826.924 413.617 C 828.796 416.632 830.302 421.459 830.128 425.004 C 830.080 425.998 829.534 427.257 829.132 428.167 C 828.477 429.647 827.351 431.515 826.363 432.798 C 826.000 433.270 825.413 433.811 825.006 434.246 C 822.837 435.379 820.178 437.557 817.775 438.024 C 814.292 438.701 809.270 438.056 806.033 436.603 C 800.853 434.277 795.342 428.401 792.235 423.649 C 789.874 420.037 787.760 414.441 787.249 410.156 M 825.006 434.246 C 825.006 434.246 825.006 434.246 825.006 434.246 Z"/>
<path fill="none" stroke="#0a0605" stroke-width="2" stroke-linecap="round" stroke-linejoin="round" d="M 787.312 408.863 C 787.312 408.863 787.312 408.863 787.312 408.863 C 787.293 409.251 787.203 409.771 787.249 410.156 C 787.760 414.441 789.874 420.037 792.235 423.649 C 795.342 428.401 800.853 434.277 806.033 436.603 C 809.270 438.056 814.292 438.701 817.775 438.024 C 820.178 437.557 822.837 435.379 825.006 434.246 C 825.006 434.246 825.006 434.246 825.006 434.246 C 825.413 433.811 826.000 433.270 826.363 432.798 C 827.351 431.515 828.477 429.647 829.132 428.167 C 829.534 427.257 830.080 425.998 830.128 425.004 C 830.302 421.459 828.796 416.632 826.924 413.617 C 825.466 411.270 822.511 408.821 820.168 407.355 C 817.690 405.805 813.967 404.294 811.078 403.846 C 805.786 403.025 798.370 403.703 793.295 405.414 C 791.332 406.075 787.312 408.863 787.312 408.863 "/>
<path fill="none" stroke="#213335" stroke-width="5" stroke-linecap="round" stroke-linejoin="round" d="M 821.858 414.472 C 821.859 414.473 824.360 418.844 824.815 420.923 C 825.115 422.297 825.100 424.217 824.900 425.608 C 824.677 427.160 823.318 430.590 823.318 430.591 "/>
<path fill="#0a0605" fill-rule="evenodd" stroke="none" d="M 738.053 478.360 C 738.189 477.997 738.508 477.577 738.703 477.241 C 738.704 477.241 743.554 476.611 745.602 476.926 C 750.895 477.738 757.794 480.542 762.118 483.703 C 764.477 485.428 767.090 488.481 768.579 490.996 C 769.987 493.374 771.486 496.907 771.703 499.662 C 771.981 503.200 771.100 508.180 769.318 511.249 C 768.818 512.109 767.755 512.977 766.980 513.600 C 765.718 514.614 763.859 515.755 762.393 516.441 C 761.854 516.693 761.083 516.905 760.522 517.103 C 758.075 517.114 754.712 517.827 752.364 517.137 C 748.959 516.138 744.794 513.259 742.587 510.481 C 739.055 506.035 736.859 498.284 736.283 492.636 C 735.845 488.342 736.537 482.401 738.053 478.360 M 760.522 517.103 C 760.522 517.103 760.522 517.103 760.522 517.103 Z"/>
<path fill="none" stroke="#0a0605" stroke-width="2" stroke-linecap="round" stroke-linejoin="round" d="M 738.703 477.241 C 738.703 477.241 738.703 477.241 738.703 477.241 C 738.508 477.577 738.189 477.997 738.053 478.360 C 736.537 482.401 735.845 488.342 736.283 492.636 C 736.859 498.284 739.055 506.035 742.587 510.481 C 744.794 513.259 748.959 516.138 752.364 517.137 C 754.712 517.827 758.075 517.114 760.522 517.103 C 760.522 517.103 760.522 517.103 760.522 517.103 C 761.083 516.905 761.854 516.693 762.393 516.441 C 763.859 515.755 765.718 514.614 766.980 513.600 C 767.755 512.977 768.818 512.109 769.318 511.249 C 771.100 508.180 771.981 503.200 771.703 499.662 C 771.486 496.907 769.987 493.374 768.579 490.996 C 767.090 488.481 764.477 485.428 762.118 483.703 C 757.794 480.542 750.895 477.738 745.602 476.926 C 743.554 476.611 738.704 477.241 738.703 477.241 "/>
<path fill="none" stroke="#213335" stroke-width="5" stroke-linecap="round" stroke-linejoin="round" d="M 766.811 498.094 C 766.811 498.095 767.024 503.126 766.473 505.183 C 766.109 506.540 765.213 508.239 764.397 509.383 C 763.485 510.659 760.702 513.081 760.702 513.082 "/>
<path fill="#0a0605" fill-rule="evenodd" stroke="none" d="M 666.009 525.736 C 666.262 525.442 666.705 525.157 667.004 524.909 C 667.005 524.909 671.776 525.986 673.591 526.985 C 678.282 529.569 683.795 534.574 686.769 539.029 C 688.391 541.460 689.795 545.225 690.328 548.099 C 690.832 550.817 691.024 554.650 690.280 557.311 C 689.325 560.729 686.786 565.102 684.056 567.371 C 683.291 568.006 681.995 568.456 681.053 568.774 C 679.519 569.293 677.381 569.725 675.768 569.865 C 675.175 569.917 674.379 569.850 673.784 569.844 C 671.482 569.011 668.079 568.524 666.111 567.070 C 663.257 564.961 660.337 560.824 659.220 557.457 C 657.432 552.068 658.036 544.034 659.438 538.532 C 660.503 534.350 663.195 529.008 666.009 525.736 M 673.784 569.844 C 673.784 569.844 673.784 569.844 673.784 569.844 Z"/>
<path fill="none" stroke="#0a0605" stroke-width="2" stroke-linecap="round" stroke-linejoin="round" d="M 667.004 524.909 C 667.004 524.909 667.004 524.909 667.004 524.909 C 666.705 525.157 666.262 525.442 666.009 525.736 C 663.195 529.008 660.503 534.350 659.438 538.532 C 658.036 544.034 657.432 552.068 659.220 557.457 C 660.337 560.824 663.257 564.961 666.111 567.070 C 668.079 568.524 671.482 569.011 673.784 569.844 C 673.784 569.844 673.784 569.844 673.784 569.844 C 674.379 569.850 675.175 569.917 675.768 569.865 C 677.381 569.725 679.519 569.293 681.053 568.774 C 681.995 568.456 683.291 568.006 684.056 567.371 C 686.786 565.102 689.325 560.729 690.280 557.311 C 691.024 554.650 690.832 550.817 690.328 548.099 C 689.795 545.225 688.391 541.460 686.769 539.029 C 683.795 534.574 678.282 529.569 673.591 526.985 C 671.776 525.986 667.005 524.909 667.004 524.909 "/>
<path fill="none" stroke="#213335" stroke-width="5" stroke-linecap="round" stroke-linejoin="round" d="M 686.226 554.156 C 686.226 554.157 684.696 558.955 683.471 560.697 C 682.663 561.846 681.238 563.133 680.077 563.926 C 678.782 564.811 675.336 566.129 675.336 566.129 "/>
<path fill="#0a0605" fill-rule="evenodd" stroke="none" d="M 581.260 547.784 C 581.599 547.594 582.114 547.480 582.479 547.350 C 582.480 547.350 586.590 550.002 587.951 551.564 C 591.468 555.603 594.924 562.199 596.184 567.405 C 596.872 570.246 596.896 574.264 596.408 577.146 C 595.947 579.870 594.810 583.536 593.196 585.779 C 591.124 588.660 587.235 591.894 583.892 593.085 C 582.956 593.419 581.584 593.396 580.590 593.371 C 578.971 593.331 576.815 593.002 575.252 592.578 C 574.678 592.423 573.953 592.086 573.396 591.875 C 571.520 590.303 568.493 588.676 567.145 586.633 C 565.190 583.671 563.870 578.783 563.979 575.237 C 564.153 569.561 567.483 562.225 570.690 557.540 C 573.128 553.980 577.493 549.889 581.260 547.784 M 573.396 591.875 C 573.396 591.875 573.396 591.875 573.396 591.875 Z"/>
<path fill="none" stroke="#0a0605" stroke-width="2" stroke-linecap="round" stroke-linejoin="round" d="M 582.479 547.350 C 582.479 547.350 582.479 547.350 582.479 547.350 C 582.114 547.480 581.599 547.594 581.260 547.784 C 577.493 549.889 573.128 553.980 570.690 557.540 C 567.483 562.225 564.153 569.561 563.979 575.237 C 563.870 578.783 565.190 583.671 567.145 586.633 C 568.493 588.676 571.520 590.303 573.396 591.875 C 573.396 591.875 573.396 591.875 573.396 591.875 C 573.953 592.086 574.678 592.423 575.252 592.578 C 576.815 593.002 578.971 593.331 580.590 593.371 C 581.584 593.396 582.956 593.419 583.892 593.085 C 587.235 591.894 591.124 588.660 593.196 585.779 C 594.810 583.536 595.947 579.870 596.408 577.146 C 596.896 574.264 596.872 570.246 596.184 567.405 C 594.924 562.199 591.468 555.603 587.951 551.564 C 586.590 550.002 582.480 547.350 582.479 547.350 "/>
<path fill="none" stroke="#213335" stroke-width="5" stroke-linecap="round" stroke-linejoin="round" d="M 590.473 581.422 C 590.473 581.423 587.387 585.403 585.638 586.617 C 584.484 587.419 582.703 588.137 581.341 588.483 C 579.820 588.869 576.131 588.921 576.131 588.921 "/>
<path fill="#0a0605" fill-rule="evenodd" stroke="none" d="M 496.233 538.430 C 496.619 538.390 497.137 538.489 497.524 538.514 C 497.525 538.515 500.250 542.576 500.882 544.549 C 502.514 549.650 503.079 557.075 502.176 562.354 C 501.684 565.236 500.116 568.935 498.528 571.389 C 497.027 573.709 494.532 576.626 492.163 578.048 C 489.120 579.874 484.269 581.305 480.727 581.077 C 479.735 581.013 478.484 580.449 477.581 580.033 C 476.111 579.355 474.260 578.200 472.993 577.193 C 472.527 576.822 471.994 576.227 471.566 575.813 C 470.466 573.627 468.329 570.935 467.900 568.525 C 467.276 565.032 467.997 560.020 469.500 556.806 C 471.905 551.663 477.866 546.242 482.665 543.209 C 486.313 540.903 491.940 538.873 496.233 538.430 M 471.566 575.813 C 471.566 575.813 471.566 575.813 471.566 575.813 Z"/>
<path fill="none" stroke="#0a0605" stroke-width="2" stroke-linecap="round" stroke-linejoin="round" d="M 497.524 538.514 C 497.524 538.514 497.524 538.514 497.524 538.514 C 497.137 538.489 496.619 538.390 496.233 538.430 C 491.940 538.873 486.313 540.903 482.665 543.209 C 477.866 546.242 471.905 551.663 469.500 556.806 C 467.997 560.020 467.276 565.032 467.900 568.525 C 468.329 570.935 470.466 573.627 471.566 575.813 C 471.566 575.813 471.566 575.813 471.566 575.813 C 471.994 576.227 472.527 576.822 472.993 577.193 C 474.260 578.200 476.111 579.355 477.581 580.033 C 478.484 580.449 479.735 581.013 480.727 581.077 C 484.269 581.305 489.120 579.874 492.163 578.048 C 494.532 576.626 497.027 573.709 498.528 571.389 C 500.116 568.935 501.684 565.236 502.176 562.354 C 503.079 557.075 502.514 549.650 500.882 544.549 C 500.250 542.576 497.525 538.515 497.524 538.514 "/>
<path fill="none" stroke="#213335" stroke-width="5" stroke-linecap="round" stroke-linejoin="round" d="M 491.386 572.969 C 491.385 572.969 486.977 575.404 484.890 575.828 C 483.512 576.107 481.593 576.062 480.205 575.840 C 478.656 575.593 475.247 574.182 475.247 574.181 "/>
<path fill="#0a0605" fill-rule="evenodd" stroke="none" d="M 417.125 501.012 C 417.502 501.103 417.958 501.369 418.315 501.522 C 418.315 501.523 419.527 506.261 419.463 508.332 C 419.297 513.685 417.349 520.872 414.735 525.547 C 413.309 528.098 410.595 531.061 408.278 532.843 C 406.088 534.528 402.762 536.444 400.054 536.993 C 396.575 537.697 391.525 537.426 388.263 536.028 C 387.349 535.636 386.359 534.687 385.647 533.993 C 384.487 532.863 383.129 531.156 382.271 529.783 C 381.955 529.278 381.652 528.539 381.387 528.006 C 381.081 525.578 379.966 522.326 380.366 519.912 C 380.945 516.411 383.299 511.928 385.790 509.401 C 389.775 505.356 397.204 502.239 402.741 500.983 C 406.949 500.028 412.931 499.996 417.125 501.012 M 381.387 528.006 C 381.387 528.006 381.387 528.006 381.387 528.006 Z"/>
<path fill="none" stroke="#0a0605" stroke-width="2" stroke-linecap="round" stroke-linejoin="round" d="M 418.315 501.522 C 418.315 501.522 418.315 501.522 418.315 501.522 C 417.958 501.369 417.502 501.103 417.125 501.012 C 412.931 499.996 406.949 500.028 402.741 500.983 C 397.204 502.239 389.775 505.356 385.790 509.401 C 383.299 511.928 380.945 516.411 380.366 519.912 C 379.966 522.326 381.081 525.578 381.387 528.006 C 381.387 528.006 381.387 528.006 381.387 528.006 C 381.652 528.539 381.955 529.278 382.271 529.783 C 383.129 531.156 384.487 532.863 385.647 533.993 C 386.359 534.687 387.349 535.636 388.263 536.028 C 391.525 537.426 396.575 537.697 400.054 536.993 C 402.762 536.444 406.088 534.528 408.278 532.843 C 410.595 531.061 413.309 528.098 414.735 525.547 C 417.349 520.872 419.297 513.685 419.463 508.332 C 419.527 506.261 418.315 501.523 418.315 501.522 "/>
<path fill="none" stroke="#213335" stroke-width="5" stroke-linecap="round" stroke-linejoin="round" d="M 401.019 531.946 C 401.018 531.946 396.049 532.769 393.941 532.471 C 392.549 532.274 390.754 531.590 389.520 530.918 C 388.143 530.167 385.402 527.698 385.401 527.697 "/>
<path fill="#0a0605" fill-rule="evenodd" stroke="none" d="M 491.776 410.774 C 492.110 410.741 492.557 410.828 492.892 410.852 C 492.892 410.853 495.227 414.372 495.762 416.079 C 497.148 420.491 497.601 426.905 496.797 431.460 C 496.358 433.945 494.987 437.133 493.604 439.244 C 492.296 441.241 490.129 443.747 488.076 444.964 C 485.439 446.527 481.244 447.740 478.187 447.526 C 477.330 447.466 476.253 446.973 475.475 446.610 C 474.209 446.018 472.617 445.011 471.527 444.136 C 471.126 443.814 470.669 443.297 470.301 442.938 C 469.361 441.045 467.529 438.710 467.169 436.627 C 466.647 433.608 467.293 429.284 468.606 426.515 C 470.707 422.085 475.880 417.433 480.038 414.836 C 483.199 412.862 488.068 411.136 491.776 410.774 M 470.301 442.938 C 470.301 442.938 470.301 442.938 470.301 442.938 Z"/>
<path fill="none" stroke="#0a0605" stroke-width="2" stroke-linecap="round" stroke-linejoin="round" d="M 492.892 410.852 C 492.892 410.852 492.892 410.852 492.892 410.852 C 492.557 410.828 492.110 410.741 491.776 410.774 C 488.068 411.136 483.199 412.862 480.038 414.836 C 475.880 417.433 470.707 422.085 468.606 426.515 C 467.293 429.284 466.647 433.608 467.169 436.627 C 467.529 438.710 469.361 441.045 470.301 442.938 C 470.301 442.938 470.301 442.938 470.301 442.938 C 470.669 443.297 471.126 443.814 471.527 444.136 C 472.617 445.011 474.209 446.018 475.475 446.610 C 476.253 446.973 477.330 447.466 478.187 447.526 C 481.244 447.740 485.439 446.527 488.076 444.964 C 490.129 443.747 492.296 441.241 493.604 439.244 C 494.987 437.133 496.358 433.945 496.797 431.460 C 497.601 426.905 497.148 420.491 495.762 416.079 C 495.227 414.372 492.892 410.853 492.892 410.852 "/>
<path fill="none" stroke="#213335" stroke-width="5" stroke-linecap="round" stroke-linejoin="round" d="M 487.429 440.575 C 487.429 440.575 483.610 442.657 481.806 443.013 C 480.615 443.248 478.958 443.200 477.760 443.002 C 476.424 442.781 473.487 441.546 473.487 441.546 "/>
<path fill="#0a0605" fill-rule="evenodd" stroke="none" d="M 574.489 431.141 C 574.769 430.956 575.205 430.824 575.511 430.688 C 575.512 430.688 579.224 432.702 580.497 433.959 C 583.789 437.207 587.195 442.661 588.620 447.060 C 589.398 449.462 589.681 452.920 589.449 455.433 C 589.230 457.810 588.490 461.040 587.247 463.078 C 585.651 465.693 582.513 468.731 579.712 469.976 C 578.928 470.324 577.746 470.394 576.888 470.437 C 575.492 470.508 573.613 470.365 572.240 470.103 C 571.735 470.006 571.089 469.764 570.596 469.619 C 568.879 468.387 566.165 467.184 564.871 465.513 C 562.995 463.091 561.539 458.968 561.401 455.907 C 561.180 451.009 563.569 444.475 566.025 440.232 C 567.892 437.007 571.383 433.200 574.489 431.141 M 570.596 469.619 C 570.596 469.619 570.596 469.619 570.596 469.619 Z"/>
<path fill="none" stroke="#0a0605" stroke-width="2" stroke-linecap="round" stroke-linejoin="round" d="M 575.511 430.688 C 575.511 430.688 575.511 430.688 575.511 430.688 C 575.205 430.824 574.769 430.956 574.489 431.141 C 571.383 433.200 567.892 437.007 566.025 440.232 C 563.569 444.475 561.180 451.009 561.401 455.907 C 561.539 458.968 562.995 463.091 564.871 465.513 C 566.165 467.184 568.879 468.387 570.596 469.619 C 570.596 469.619 570.596 469.619 570.596 469.619 C 571.089 469.764 571.735 470.006 572.240 470.103 C 573.613 470.365 575.492 470.508 576.888 470.437 C 577.746 470.394 578.928 470.324 579.712 469.976 C 582.513 468.731 585.651 465.693 587.247 463.078 C 588.490 461.040 589.230 457.810 589.449 455.433 C 589.681 452.920 589.398 449.462 588.620 447.060 C 587.195 442.661 583.789 437.207 580.497 433.959 C 579.224 432.702 575.512 430.688 575.511 430.688 "/>
<path fill="none" stroke="#213335" stroke-width="5" stroke-linecap="round" stroke-linejoin="round" d="M 584.618 459.503 C 584.618 459.503 582.221 463.133 580.795 464.293 C 579.853 465.058 578.366 465.793 577.215 466.180 C 575.931 466.611 572.759 466.896 572.758 466.896 "/>
<path fill="#0a0605" fill-rule="evenodd" stroke="none" d="M 649.719 400.572 C 649.813 400.250 650.061 399.867 650.208 399.566 C 650.208 399.566 654.344 398.713 656.128 398.853 C 660.738 399.214 666.858 401.187 670.784 403.632 C 672.926 404.966 675.372 407.427 676.815 409.498 C 678.179 411.456 679.697 414.403 680.060 416.761 C 680.526 419.790 680.085 424.135 678.747 426.892 C 678.371 427.664 677.512 428.479 676.885 429.065 C 675.864 430.020 674.336 431.122 673.117 431.806 C 672.668 432.058 672.018 432.289 671.548 432.496 C 669.441 432.662 666.591 433.491 664.524 433.048 C 661.528 432.406 657.758 430.193 655.679 427.942 C 652.353 424.340 649.966 417.805 649.108 412.977 C 648.456 409.309 648.671 404.148 649.719 400.572 M 671.548 432.496 C 671.548 432.496 671.548 432.496 671.548 432.496 Z"/>
<path fill="none" stroke="#0a0605" stroke-width="2" stroke-linecap="round" stroke-linejoin="round" d="M 650.208 399.566 C 650.208 399.566 650.208 399.566 650.208 399.566 C 650.061 399.867 649.813 400.250 649.719 400.572 C 648.671 404.148 648.456 409.309 649.108 412.977 C 649.966 417.805 652.353 424.340 655.679 427.942 C 657.758 430.193 661.528 432.406 664.524 433.048 C 666.591 433.491 669.441 432.662 671.548 432.496 C 671.548 432.496 671.548 432.496 671.548 432.496 C 672.018 432.289 672.668 432.058 673.117 431.806 C 674.336 431.122 675.864 430.020 676.885 429.065 C 677.512 428.479 678.371 427.664 678.747 426.892 C 680.085 424.135 680.526 419.790 680.060 416.761 C 679.697 414.403 678.179 411.456 676.815 409.498 C 675.372 407.427 672.926 404.966 670.784 403.632 C 666.858 401.187 660.738 399.214 656.128 398.853 C 654.344 398.713 650.208 399.566 650.208 399.566 "/>
<path fill="none" stroke="#213335" stroke-width="5" stroke-linecap="round" stroke-linejoin="round" d="M 675.746 415.723 C 675.746 415.724 676.253 420.043 675.910 421.849 C 675.684 423.042 675.021 424.563 674.391 425.600 C 673.687 426.757 671.446 429.021 671.445 429.021 "/>
<path fill="#0a0605" fill-rule="evenodd" stroke="none" d="M 694.561 335.177 C 694.395 334.885 694.293 334.441 694.178 334.125 C 694.179 334.125 696.442 330.559 697.782 329.375 C 701.247 326.312 706.921 323.287 711.407 322.165 C 713.856 321.554 717.326 321.507 719.817 321.910 C 722.173 322.291 725.346 323.249 727.293 324.628 C 729.794 326.400 732.611 329.737 733.661 332.616 C 733.955 333.423 733.943 334.607 733.928 335.465 C 733.904 336.863 733.634 338.728 733.278 340.080 C 733.147 340.577 732.862 341.205 732.683 341.687 C 731.337 343.316 729.951 345.941 728.196 347.118 C 725.651 348.825 721.439 349.996 718.376 349.924 C 713.474 349.810 707.118 346.981 703.052 344.241 C 699.962 342.159 696.402 338.416 694.561 335.177 M 732.683 341.687 C 732.683 341.687 732.683 341.687 732.683 341.687 Z"/>
<path fill="none" stroke="#0a0605" stroke-width="2" stroke-linecap="round" stroke-linejoin="round" d="M 694.178 334.125 C 694.178 334.125 694.178 334.125 694.178 334.125 C 694.293 334.441 694.395 334.885 694.561 335.177 C 696.402 338.416 699.962 342.159 703.052 344.241 C 707.118 346.981 713.474 349.810 718.376 349.924 C 721.439 349.996 725.651 348.825 728.196 347.118 C 729.951 345.941 731.337 343.316 732.683 341.687 C 732.683 341.687 732.683 341.687 732.683 341.687 C 732.862 341.205 733.147 340.577 733.278 340.080 C 733.634 338.728 733.904 336.863 733.928 335.465 C 733.943 334.607 733.955 333.423 733.661 332.616 C 732.611 329.737 729.794 326.400 727.293 324.628 C 725.346 323.249 722.173 322.291 719.817 321.910 C 717.326 321.507 713.856 321.554 711.407 322.165 C 706.921 323.287 701.247 326.312 697.782 329.375 C 696.442 330.559 694.179 334.125 694.178 334.125 "/>
<path fill="none" stroke="#213335" stroke-width="5" stroke-linecap="round" stroke-linejoin="round" d="M 723.547 327.006 C 723.548 327.007 727.005 329.646 728.065 331.148 C 728.765 332.140 729.396 333.674 729.704 334.849 C 730.046 336.159 730.115 339.343 730.115 339.344 "/>
<path fill="#0a0605" fill-rule="evenodd" stroke="none" d="M 691.335 251.828 C 691.033 251.680 690.699 251.370 690.427 251.173 C 690.427 251.172 690.298 246.952 690.742 245.219 C 691.889 240.739 694.884 235.049 697.967 231.602 C 699.649 229.720 702.494 227.733 704.781 226.667 C 706.945 225.659 710.108 224.670 712.494 224.718 C 715.558 224.779 719.762 225.959 722.248 227.751 C 722.945 228.253 723.600 229.239 724.070 229.958 C 724.834 231.128 725.658 232.823 726.123 234.141 C 726.294 234.626 726.411 235.306 726.534 235.806 C 726.335 237.910 726.662 240.859 725.871 242.819 C 724.724 245.660 721.896 248.995 719.321 250.656 C 715.201 253.315 708.354 254.544 703.451 254.560 C 699.725 254.572 694.677 253.476 691.335 251.828 M 726.534 235.806 C 726.534 235.806 726.534 235.806 726.534 235.806 Z"/>
<path fill="none" stroke="#0a0605" stroke-width="2" stroke-linecap="round" stroke-linejoin="round" d="M 690.427 251.173 C 690.427 251.173 690.427 251.173 690.427 251.173 C 690.699 251.370 691.033 251.680 691.335 251.828 C 694.677 253.476 699.725 254.572 703.451 254.560 C 708.354 254.544 715.201 253.315 719.321 250.656 C 721.896 248.995 724.724 245.660 725.871 242.819 C 726.662 240.859 726.335 237.910 726.534 235.806 C 726.534 235.806 726.534 235.806 726.534 235.806 C 726.411 235.306 726.294 234.626 726.123 234.141 C 725.658 232.823 724.834 231.128 724.070 229.958 C 723.600 229.239 722.945 228.253 722.248 227.751 C 719.762 225.959 715.558 224.779 712.494 224.718 C 710.108 224.670 706.945 225.659 704.781 226.667 C 702.494 227.733 699.649 229.720 697.967 231.602 C 694.884 235.049 691.889 240.739 690.742 245.219 C 690.298 246.952 690.427 251.172 690.427 251.173 "/>
<path fill="none" stroke="#213335" stroke-width="5" stroke-linecap="round" stroke-linejoin="round" d="M 710.730 228.790 C 710.731 228.790 715.073 229.032 716.794 229.680 C 717.930 230.108 719.314 231.021 720.228 231.821 C 721.247 232.712 723.092 235.309 723.092 235.309 "/>
</g>
</g>
</svg>
