<svg xmlns="http://www.w3.org/2000/svg" xmlns:xlink="http://www.w3.org/1999/xlink" width="500" zoomAndPan="magnify" viewBox="0 0 375 374.999991" height="500" preserveAspectRatio="xMidYMid meet" version="1.0"><defs><filter x="0%" y="0%" width="100%" height="100%" id="40cdf6f7e9"><feColorMatrix values="0 0 0 0 1 0 0 0 0 1 0 0 0 0 1 0 0 0 1 0" color-interpolation-filters="sRGB"/></filter><g/><clipPath id="00286264e2"><path d="M 97.59375 38.433594 L 277.40625 38.433594 L 277.40625 218.242188 L 97.59375 218.242188 Z M 97.59375 38.433594 " clip-rule="nonzero"/></clipPath><clipPath id="125d4b9c99"><path d="M 187.5 38.433594 C 137.847656 38.433594 97.59375 78.683594 97.59375 128.339844 C 97.59375 177.992188 137.847656 218.242188 187.5 218.242188 C 237.152344 218.242188 277.40625 177.992188 277.40625 128.339844 C 277.40625 78.683594 237.152344 38.433594 187.5 38.433594 Z M 187.5 38.433594 " clip-rule="nonzero"/></clipPath><clipPath id="ede6e0910e"><path d="M 111.292969 81 L 187 81 L 187 157 L 111.292969 157 Z M 111.292969 81 " clip-rule="nonzero"/></clipPath><clipPath id="377ecea302"><path d="M 201 117 L 277.042969 117 L 277.042969 237 L 201 237 Z M 201 117 " clip-rule="nonzero"/></clipPath><mask id="fa803e4d71"><g filter="url(#40cdf6f7e9)"><rect x="-37.5" width="450" fill="#000000" y="-37.499999" height="449.999989" fill-opacity="0.46"/></g></mask><clipPath id="a6c6259c90"><path d="M 33 0.519531 L 49 0.519531 L 49 24 L 33 24 Z M 33 0.519531 " clip-rule="nonzero"/></clipPath><clipPath id="2cc673e339"><rect x="0" width="49" y="0" height="117"/></clipPath><clipPath id="ea9089f3eb"><path d="M 143 64.75 L 259 64.75 L 259 238 L 143 238 Z M 143 64.75 " clip-rule="nonzero"/></clipPath></defs><rect x="-37.5" width="450" fill="#ffffff" y="-37.499999" height="449.999989" fill-opacity="1"/><rect x="-37.5" width="450" fill="#fffcfa" y="-37.499999" height="449.999989" fill-opacity="1"/><g clip-path="url(#00286264e2)"><g clip-path="url(#125d4b9c99)"><path fill="#c5f3ff" d="M 97.59375 38.433594 L 277.40625 38.433594 L 277.40625 218.242188 L 97.59375 218.242188 Z M 97.59375 38.433594 " fill-opacity="1" fill-rule="nonzero"/></g></g><path fill="#3598db" d="M 158.097656 160.921875 L 153.34375 160.921875 L 169.042969 183.449219 L 173.144531 186.964844 C 174.039062 186.722656 174.9375 186.488281 175.847656 186.34375 C 177.410156 186.058594 178.84375 185.464844 180.148438 184.554688 L 180.335938 184.410156 L 162.457031 158.730469 C 161.945312 159.417969 161.304688 159.957031 160.539062 160.34375 C 159.769531 160.730469 158.957031 160.925781 158.097656 160.921875 Z M 158.097656 160.921875 " fill-opacity="1" fill-rule="nonzero"/><path fill="#3598db" d="M 209.796875 85.9375 L 200.632812 72.824219 C 200.074219 72.019531 199.4375 71.277344 198.730469 70.597656 C 198.023438 69.917969 197.253906 69.316406 196.425781 68.785156 C 195.601562 68.257812 194.730469 67.8125 193.816406 67.457031 C 192.902344 67.101562 191.960938 66.835938 190.996094 66.664062 C 190.027344 66.492188 189.054688 66.414062 188.074219 66.433594 C 187.089844 66.453125 186.121094 66.570312 185.164062 66.78125 C 184.203125 66.992188 183.277344 67.292969 182.375 67.6875 C 181.476562 68.082031 180.625 68.558594 179.820312 69.121094 L 163.738281 80.34375 C 163.46875 80.535156 163.359375 80.792969 163.414062 81.121094 C 163.449219 81.296875 163.472656 81.472656 163.484375 81.648438 L 163.589844 82.9375 L 164.464844 82.199219 C 165.371094 81.414062 166.417969 80.960938 167.609375 80.839844 C 168.40625 80.769531 169.179688 80.871094 169.933594 81.144531 C 170.6875 81.417969 171.347656 81.839844 171.910156 82.410156 L 178.539062 89.035156 L 190.359375 80.789062 C 190.589844 80.628906 190.835938 80.492188 191.09375 80.378906 C 191.351562 80.265625 191.617188 80.179688 191.894531 80.121094 C 192.167969 80.0625 192.445312 80.027344 192.726562 80.023438 C 193.007812 80.015625 193.289062 80.039062 193.566406 80.089844 C 193.84375 80.136719 194.113281 80.214844 194.375 80.316406 C 194.636719 80.417969 194.886719 80.546875 195.121094 80.699219 C 195.359375 80.847656 195.582031 81.023438 195.785156 81.214844 C 195.988281 81.410156 196.167969 81.625 196.332031 81.855469 L 205.015625 94.339844 C 205.324219 93.542969 204.058594 90.445312 204.417969 89.675781 C 205.460938 87.523438 208.332031 87.816406 209.796875 85.9375 Z M 209.796875 85.9375 " fill-opacity="1" fill-rule="nonzero"/><g clip-path="url(#ede6e0910e)"><path fill="#204188" d="M 186.183594 128.167969 L 186.183594 109.457031 C 186.183594 109.265625 186.117188 109.097656 185.988281 108.957031 C 185.859375 108.8125 185.699219 108.734375 185.503906 108.71875 L 177.902344 108.089844 C 177.609375 107.300781 177.289062 106.53125 176.945312 105.78125 L 181.878906 99.957031 C 182.003906 99.808594 182.0625 99.640625 182.054688 99.445312 C 182.046875 99.253906 181.976562 99.089844 181.835938 98.953125 L 168.601562 85.71875 C 168.464844 85.582031 168.300781 85.507812 168.109375 85.5 C 167.914062 85.496094 167.746094 85.554688 167.597656 85.679688 L 161.773438 90.609375 C 161.019531 90.257812 160.25 89.941406 159.464844 89.652344 L 158.839844 82.050781 C 158.820312 81.855469 158.742188 81.695312 158.601562 81.566406 C 158.457031 81.433594 158.289062 81.371094 158.097656 81.371094 L 139.382812 81.371094 C 139.1875 81.371094 139.019531 81.433594 138.878906 81.566406 C 138.734375 81.695312 138.65625 81.855469 138.640625 82.050781 L 138.011719 89.652344 C 137.230469 89.941406 136.460938 90.257812 135.703125 90.609375 L 129.878906 85.679688 C 129.734375 85.554688 129.5625 85.496094 129.371094 85.5 C 129.175781 85.507812 129.011719 85.582031 128.875 85.71875 L 115.644531 98.953125 C 115.507812 99.089844 115.433594 99.253906 115.425781 99.445312 C 115.414062 99.636719 115.472656 99.808594 115.597656 99.957031 L 120.535156 105.78125 C 120.1875 106.535156 119.871094 107.304688 119.582031 108.089844 L 111.972656 108.71875 C 111.78125 108.734375 111.621094 108.8125 111.488281 108.957031 C 111.359375 109.097656 111.292969 109.265625 111.292969 109.457031 L 111.292969 128.167969 C 111.292969 128.363281 111.359375 128.527344 111.488281 128.671875 C 111.621094 128.8125 111.78125 128.894531 111.972656 128.910156 L 119.574219 129.542969 C 119.867188 130.324219 120.183594 131.09375 120.53125 131.851562 L 115.597656 137.671875 C 115.472656 137.816406 115.414062 137.988281 115.421875 138.179688 C 115.429688 138.375 115.503906 138.539062 115.640625 138.675781 L 128.875 151.890625 C 129.011719 152.027344 129.175781 152.101562 129.371094 152.109375 C 129.5625 152.117188 129.734375 152.054688 129.878906 151.929688 L 135.703125 147 C 136.460938 147.347656 137.230469 147.664062 138.011719 147.957031 L 138.640625 155.558594 C 138.65625 155.75 138.734375 155.914062 138.878906 156.042969 C 139.019531 156.175781 139.1875 156.242188 139.382812 156.242188 L 158.097656 156.242188 C 158.289062 156.242188 158.457031 156.175781 158.601562 156.042969 C 158.742188 155.914062 158.820312 155.75 158.839844 155.558594 L 159.464844 147.957031 C 160.25 147.667969 161.019531 147.351562 161.773438 147 L 167.597656 151.929688 C 167.746094 152.054688 167.914062 152.117188 168.109375 152.109375 C 168.300781 152.101562 168.464844 152.027344 168.601562 151.890625 L 181.832031 138.65625 C 181.96875 138.519531 182.042969 138.355469 182.050781 138.160156 C 182.058594 137.96875 182 137.796875 181.875 137.652344 L 176.941406 131.832031 C 177.292969 131.078125 177.609375 130.304688 177.898438 129.523438 L 185.5 128.890625 C 185.691406 128.875 185.851562 128.796875 185.980469 128.660156 C 186.109375 128.523438 186.179688 128.359375 186.183594 128.167969 Z M 148.738281 139.457031 C 148.0625 139.457031 147.386719 139.425781 146.714844 139.359375 C 146.039062 139.292969 145.371094 139.195312 144.707031 139.0625 C 144.046875 138.929688 143.390625 138.765625 142.742188 138.570312 C 142.09375 138.371094 141.457031 138.144531 140.832031 137.886719 C 140.207031 137.628906 139.597656 137.339844 139 137.019531 C 138.402344 136.699219 137.824219 136.351562 137.261719 135.976562 C 136.699219 135.601562 136.15625 135.199219 135.632812 134.769531 C 135.109375 134.339844 134.609375 133.886719 134.132812 133.40625 C 133.652344 132.929688 133.199219 132.429688 132.769531 131.90625 C 132.339844 131.382812 131.9375 130.839844 131.5625 130.277344 C 131.1875 129.714844 130.839844 129.136719 130.519531 128.539062 C 130.203125 127.941406 129.914062 127.332031 129.652344 126.707031 C 129.394531 126.082031 129.167969 125.445312 128.972656 124.796875 C 128.773438 124.148438 128.609375 123.492188 128.480469 122.832031 C 128.347656 122.167969 128.246094 121.5 128.179688 120.824219 C 128.113281 120.152344 128.082031 119.476562 128.082031 118.800781 C 128.082031 118.125 128.117188 117.449219 128.183594 116.773438 C 128.25 116.101562 128.347656 115.433594 128.480469 114.769531 C 128.613281 114.105469 128.777344 113.449219 128.972656 112.804688 C 129.167969 112.15625 129.394531 111.519531 129.65625 110.894531 C 129.914062 110.269531 130.203125 109.660156 130.523438 109.0625 C 130.839844 108.464844 131.1875 107.886719 131.566406 107.324219 C 131.941406 106.761719 132.34375 106.21875 132.773438 105.695312 C 133.203125 105.171875 133.65625 104.671875 134.132812 104.195312 C 134.613281 103.714844 135.113281 103.261719 135.636719 102.832031 C 136.160156 102.402344 136.703125 102 137.265625 101.625 C 137.828125 101.25 138.40625 100.902344 139.003906 100.582031 C 139.601562 100.265625 140.210938 99.976562 140.835938 99.714844 C 141.460938 99.457031 142.097656 99.230469 142.746094 99.035156 C 143.394531 98.835938 144.046875 98.671875 144.710938 98.542969 C 145.375 98.410156 146.042969 98.308594 146.71875 98.242188 C 147.390625 98.179688 148.066406 98.144531 148.742188 98.144531 C 149.417969 98.144531 150.09375 98.179688 150.765625 98.246094 C 151.441406 98.3125 152.109375 98.410156 152.773438 98.542969 C 153.4375 98.675781 154.089844 98.839844 154.738281 99.035156 C 155.386719 99.230469 156.023438 99.460938 156.648438 99.71875 C 157.273438 99.976562 157.882812 100.265625 158.480469 100.585938 C 159.078125 100.90625 159.65625 101.253906 160.21875 101.628906 C 160.78125 102.003906 161.324219 102.40625 161.847656 102.835938 C 162.371094 103.265625 162.871094 103.71875 163.347656 104.199219 C 163.828125 104.675781 164.28125 105.175781 164.710938 105.699219 C 165.140625 106.222656 165.542969 106.765625 165.917969 107.328125 C 166.292969 107.890625 166.640625 108.472656 166.957031 109.066406 C 167.277344 109.664062 167.566406 110.277344 167.824219 110.902344 C 168.082031 111.527344 168.3125 112.164062 168.507812 112.808594 C 168.703125 113.457031 168.867188 114.113281 169 114.777344 C 169.132812 115.441406 169.230469 116.109375 169.296875 116.78125 C 169.363281 117.453125 169.394531 118.128906 169.394531 118.804688 C 169.394531 119.484375 169.363281 120.15625 169.296875 120.832031 C 169.230469 121.503906 169.128906 122.171875 169 122.835938 C 168.867188 123.5 168.703125 124.15625 168.503906 124.800781 C 168.308594 125.449219 168.082031 126.085938 167.820312 126.710938 C 167.5625 127.335938 167.273438 127.945312 166.957031 128.542969 C 166.636719 129.140625 166.289062 129.71875 165.914062 130.28125 C 165.535156 130.84375 165.132812 131.386719 164.707031 131.910156 C 164.277344 132.429688 163.824219 132.933594 163.34375 133.410156 C 162.867188 133.886719 162.363281 134.34375 161.84375 134.769531 C 161.320312 135.199219 160.777344 135.601562 160.214844 135.976562 C 159.652344 136.355469 159.070312 136.703125 158.476562 137.019531 C 157.878906 137.339844 157.269531 137.628906 156.644531 137.886719 C 156.019531 138.144531 155.382812 138.375 154.734375 138.570312 C 154.085938 138.765625 153.433594 138.929688 152.769531 139.0625 C 152.105469 139.195312 151.4375 139.292969 150.761719 139.359375 C 150.089844 139.425781 149.414062 139.457031 148.738281 139.457031 Z M 148.738281 139.457031 " fill-opacity="1" fill-rule="nonzero"/></g><path fill="#ffffff" d="M 148.738281 94.332031 C 147.15625 94.402344 145.59375 94.621094 144.054688 94.988281 C 142.511719 95.351562 141.019531 95.859375 139.574219 96.507812 C 138.128906 97.15625 136.757812 97.933594 135.460938 98.839844 C 134.160156 99.746094 132.960938 100.769531 131.855469 101.902344 C 131.3125 102.464844 130.796875 103.046875 130.308594 103.65625 C 129.824219 104.265625 129.367188 104.898438 128.941406 105.550781 C 128.515625 106.203125 128.121094 106.875 127.757812 107.566406 C 127.398438 108.257812 127.070312 108.964844 126.777344 109.6875 C 126.484375 110.410156 126.226562 111.148438 126.003906 111.894531 C 125.78125 112.640625 125.597656 113.398438 125.449219 114.164062 C 125.296875 114.929688 125.1875 115.699219 125.109375 116.476562 C 125.035156 117.253906 125 118.03125 125 118.8125 C 125 119.589844 125.035156 120.371094 125.109375 121.144531 C 125.1875 121.921875 125.296875 122.691406 125.449219 123.457031 C 125.597656 124.222656 125.78125 124.980469 126.003906 125.726562 C 126.226562 126.476562 126.484375 127.210938 126.777344 127.933594 C 127.070312 128.65625 127.398438 129.363281 127.757812 130.054688 C 128.121094 130.746094 128.515625 131.417969 128.941406 132.070312 C 129.367188 132.726562 129.824219 133.355469 130.308594 133.964844 C 130.796875 134.574219 131.3125 135.160156 131.855469 135.71875 C 132.960938 136.855469 134.160156 137.875 135.460938 138.78125 C 136.757812 139.691406 138.128906 140.46875 139.574219 141.113281 C 141.019531 141.761719 142.511719 142.269531 144.054688 142.632812 C 145.59375 142.996094 147.15625 143.214844 148.738281 143.285156 C 145.464844 143.421875 142.300781 142.90625 139.238281 141.738281 C 136.152344 140.550781 133.421875 138.808594 131.042969 136.511719 C 128.652344 134.203125 126.804688 131.519531 125.5 128.460938 C 124.851562 126.9375 124.363281 125.367188 124.035156 123.746094 C 123.703125 122.125 123.539062 120.488281 123.539062 118.835938 C 123.539062 117.179688 123.703125 115.542969 124.035156 113.921875 C 124.363281 112.304688 124.851562 110.730469 125.5 109.210938 C 126.800781 106.136719 128.648438 103.441406 131.042969 101.113281 C 133.417969 98.804688 136.152344 97.050781 139.242188 95.855469 C 142.304688 94.695312 145.46875 94.191406 148.738281 94.332031 Z M 148.738281 94.332031 " fill-opacity="1" fill-rule="nonzero"/><g clip-path="url(#377ecea302)"><path fill="#204188" d="M 254.160156 117.617188 C 252.386719 119.597656 250.410156 121.351562 248.230469 122.875 C 244.984375 125.128906 241.457031 126.785156 237.648438 127.839844 C 236.695312 128.105469 235.699219 128.316406 234.714844 128.519531 C 233.148438 128.800781 231.714844 129.398438 230.410156 130.3125 C 230.34375 130.355469 230.285156 130.402344 230.21875 130.449219 L 257.761719 169.925781 C 257.921875 170.160156 258.058594 170.402344 258.171875 170.660156 C 258.28125 170.917969 258.367188 171.1875 258.429688 171.460938 C 258.488281 171.734375 258.523438 172.015625 258.527344 172.296875 C 258.53125 172.578125 258.511719 172.855469 258.460938 173.132812 C 258.414062 173.410156 258.335938 173.679688 258.234375 173.941406 C 258.132812 174.203125 258.007812 174.453125 257.855469 174.691406 C 257.703125 174.929688 257.53125 175.148438 257.335938 175.351562 C 257.140625 175.554688 256.929688 175.738281 256.699219 175.898438 L 208.113281 209.808594 C 207.960938 213.335938 207.277344 216.757812 206.0625 220.074219 C 204.851562 223.390625 203.164062 226.449219 201.007812 229.246094 L 201.558594 230.035156 C 202.117188 230.839844 202.753906 231.582031 203.460938 232.261719 C 204.167969 232.941406 204.9375 233.546875 205.761719 234.074219 C 206.589844 234.601562 207.460938 235.046875 208.375 235.402344 C 209.289062 235.761719 210.226562 236.027344 211.195312 236.199219 C 212.160156 236.371094 213.132812 236.445312 214.117188 236.425781 C 215.097656 236.40625 216.066406 236.289062 217.027344 236.078125 C 217.984375 235.867188 218.914062 235.566406 219.8125 235.171875 C 220.710938 234.777344 221.5625 234.300781 222.367188 233.738281 L 271.003906 199.8125 C 271.808594 199.25 272.550781 198.617188 273.230469 197.910156 C 273.910156 197.203125 274.515625 196.433594 275.042969 195.609375 C 275.570312 194.78125 276.015625 193.910156 276.371094 192.996094 C 276.730469 192.082031 276.992188 191.140625 277.167969 190.175781 C 277.339844 189.210938 277.414062 188.234375 277.394531 187.253906 C 277.375 186.273438 277.257812 185.304688 277.046875 184.34375 C 276.835938 183.386719 276.535156 182.457031 276.140625 181.558594 C 275.746094 180.660156 275.269531 179.808594 274.707031 179.003906 L 241.605469 131.550781 C 244.785156 129.417969 251.574219 124.234375 254.160156 117.617188 Z M 242.980469 211.464844 C 242.5625 211.757812 242.121094 212.007812 241.65625 212.210938 C 241.191406 212.414062 240.707031 212.574219 240.210938 212.683594 C 239.714844 212.792969 239.210938 212.851562 238.699219 212.863281 C 238.191406 212.875 237.6875 212.835938 237.183594 212.746094 C 236.683594 212.65625 236.195312 212.519531 235.722656 212.335938 C 235.246094 212.152344 234.796875 211.921875 234.367188 211.648438 C 233.9375 211.375 233.539062 211.058594 233.171875 210.707031 C 232.804688 210.355469 232.472656 209.96875 232.179688 209.554688 C 231.890625 209.136719 231.640625 208.695312 231.4375 208.226562 C 231.230469 207.761719 231.074219 207.28125 230.964844 206.78125 C 230.855469 206.285156 230.792969 205.78125 230.785156 205.273438 C 230.773438 204.761719 230.8125 204.257812 230.902344 203.757812 C 230.988281 203.253906 231.125 202.765625 231.3125 202.292969 C 231.496094 201.820312 231.726562 201.367188 232 200.9375 C 232.273438 200.507812 232.585938 200.109375 232.9375 199.742188 C 233.292969 199.375 233.675781 199.042969 234.09375 198.753906 C 234.511719 198.460938 234.953125 198.210938 235.417969 198.007812 C 235.886719 197.804688 236.367188 197.644531 236.863281 197.535156 C 237.363281 197.425781 237.863281 197.367188 238.375 197.355469 C 238.882812 197.34375 239.386719 197.382812 239.890625 197.472656 C 240.390625 197.5625 240.878906 197.699219 241.355469 197.882812 C 241.828125 198.066406 242.28125 198.296875 242.710938 198.570312 C 243.136719 198.84375 243.539062 199.15625 243.90625 199.507812 C 244.273438 199.863281 244.601562 200.246094 244.894531 200.664062 C 245.1875 201.082031 245.433594 201.523438 245.640625 201.988281 C 245.84375 202.457031 246 202.9375 246.109375 203.433594 C 246.222656 203.933594 246.28125 204.4375 246.292969 204.945312 C 246.304688 205.453125 246.265625 205.960938 246.175781 206.460938 C 246.085938 206.964844 245.949219 207.449219 245.765625 207.925781 C 245.578125 208.398438 245.351562 208.851562 245.074219 209.28125 C 244.800781 209.710938 244.488281 210.109375 244.136719 210.476562 C 243.785156 210.84375 243.398438 211.175781 242.980469 211.464844 Z M 242.980469 211.464844 " fill-opacity="1" fill-rule="nonzero"/></g><path fill="#ffffff" d="M 271.570312 181.1875 C 272.71875 182.59375 273.464844 184.1875 273.804688 185.96875 C 273.96875 186.878906 274.019531 187.792969 273.957031 188.714844 C 273.898438 189.632812 273.726562 190.53125 273.445312 191.410156 C 273.167969 192.289062 272.785156 193.121094 272.300781 193.910156 C 271.816406 194.695312 271.246094 195.410156 270.585938 196.054688 C 270.417969 196.210938 270.261719 196.390625 270.082031 196.53125 L 269.535156 196.964844 C 269.164062 197.265625 268.8125 197.488281 268.453125 197.753906 L 266.3125 199.269531 L 261.980469 202.242188 C 260.519531 203.199219 259.078125 204.203125 257.605469 205.148438 C 254.667969 207.0625 251.707031 208.941406 248.667969 210.699219 C 251.367188 208.453125 254.152344 206.320312 256.964844 204.230469 C 258.359375 203.175781 259.789062 202.160156 261.203125 201.128906 L 265.507812 198.089844 L 267.675781 196.601562 C 268.023438 196.351562 268.414062 196.121094 268.722656 195.855469 L 269.199219 195.480469 C 269.355469 195.351562 269.5 195.207031 269.675781 195.070312 C 270.917969 193.933594 271.835938 192.578125 272.433594 191.003906 C 273.046875 189.410156 273.28125 187.761719 273.128906 186.054688 C 272.964844 184.320312 272.445312 182.699219 271.570312 181.1875 Z M 271.570312 181.1875 " fill-opacity="1" fill-rule="nonzero"/><g mask="url(#fa803e4d71)"><g transform="matrix(1, 0, 0, 1, 161, 71)"><g clip-path="url(#2cc673e339)"><path fill="#204188" d="M 19.332031 113.40625 L 9.738281 99.636719 L 9.546875 99.773438 C 8.5 100.503906 7.347656 100.984375 6.089844 101.207031 C 4.402344 101.523438 2.746094 101.953125 1.117188 102.5 L 8.042969 112.449219 L 12.144531 115.964844 C 13.039062 115.722656 13.9375 115.488281 14.847656 115.34375 C 16.410156 115.058594 17.84375 114.464844 19.148438 113.554688 Z M 19.332031 113.40625 " fill-opacity="1" fill-rule="nonzero"/><g clip-path="url(#a6c6259c90)"><path fill="#204188" d="M 48.796875 14.9375 L 39.632812 1.824219 C 39.386719 1.472656 39.128906 1.136719 38.855469 0.8125 C 37.144531 2.957031 35.695312 5.261719 34.503906 7.730469 C 34.226562 8.304688 33.96875 8.894531 33.71875 9.480469 C 34.375 9.804688 34.90625 10.265625 35.320312 10.863281 L 44.015625 23.339844 C 44.324219 22.542969 43.058594 19.445312 43.417969 18.675781 C 44.460938 16.523438 47.332031 16.816406 48.796875 14.9375 Z M 48.796875 14.9375 " fill-opacity="1" fill-rule="nonzero"/></g></g></g></g><g clip-path="url(#ea9089f3eb)"><path fill="#ffffff" d="M 200.234375 193.902344 C 199.679688 192.851562 199.253906 191.75 198.960938 190.601562 C 198.664062 189.449219 198.507812 188.28125 198.492188 187.09375 C 198.472656 185.902344 198.59375 184.730469 198.855469 183.570312 C 199.113281 182.410156 199.503906 181.300781 200.027344 180.230469 L 222.980469 132.667969 C 223.488281 131.59375 224.117188 130.59375 224.863281 129.671875 C 225.609375 128.746094 226.453125 127.917969 227.394531 127.195312 C 228.335938 126.46875 229.347656 125.863281 230.433594 125.375 C 231.515625 124.890625 232.640625 124.535156 233.808594 124.316406 C 234.398438 124.210938 234.984375 124.085938 235.566406 123.945312 C 236.148438 123.804688 236.726562 123.644531 237.296875 123.472656 C 237.871094 123.296875 238.4375 123.105469 239 122.894531 C 239.558594 122.6875 240.113281 122.460938 240.664062 122.21875 C 241.210938 121.976562 241.75 121.71875 242.28125 121.445312 C 242.816406 121.171875 243.339844 120.878906 243.855469 120.574219 C 244.367188 120.269531 244.875 119.949219 245.371094 119.613281 C 245.867188 119.277344 246.351562 118.929688 246.828125 118.566406 C 247.300781 118.199219 247.765625 117.820312 248.21875 117.429688 C 248.671875 117.039062 249.113281 116.632812 249.539062 116.214844 C 249.96875 115.796875 250.382812 115.367188 250.789062 114.921875 C 251.191406 114.480469 251.578125 114.023438 251.953125 113.558594 C 252.332031 113.09375 252.691406 112.617188 253.039062 112.128906 C 253.386719 111.640625 253.71875 111.144531 254.035156 110.636719 C 254.355469 110.128906 254.65625 109.609375 254.945312 109.085938 C 255.230469 108.558594 255.5 108.027344 255.757812 107.484375 C 256.011719 106.941406 256.25 106.394531 256.472656 105.839844 C 256.695312 105.28125 256.902344 104.71875 257.089844 104.152344 C 257.28125 103.582031 257.453125 103.011719 257.605469 102.433594 C 257.761719 101.855469 257.898438 101.269531 258.019531 100.683594 C 258.136719 100.097656 258.242188 99.507812 258.324219 98.914062 C 258.410156 98.324219 258.476562 97.726562 258.527344 97.132812 C 258.578125 96.535156 258.609375 95.9375 258.621094 95.339844 C 258.636719 94.738281 258.632812 94.140625 258.609375 93.542969 C 258.589844 92.945312 258.550781 92.347656 258.492188 91.75 C 258.433594 91.15625 258.359375 90.5625 258.269531 89.96875 C 258.175781 89.378906 258.066406 88.789062 257.9375 88.207031 C 257.808594 87.621094 257.664062 87.039062 257.503906 86.464844 C 257.339844 85.886719 257.160156 85.316406 256.964844 84.75 C 256.769531 84.183594 256.554688 83.625 256.324219 83.074219 C 256.09375 82.519531 255.851562 81.972656 255.585938 81.433594 C 255.324219 80.898438 255.046875 80.367188 254.753906 79.84375 L 244.511719 101.046875 C 244.28125 101.523438 243.949219 101.910156 243.515625 102.210938 C 243.078125 102.507812 242.597656 102.679688 242.074219 102.726562 L 225.59375 104.160156 C 225.050781 104.207031 224.53125 104.109375 224.039062 103.875 C 223.546875 103.636719 223.148438 103.289062 222.84375 102.835938 L 213.6875 89.039062 C 213.398438 88.601562 213.234375 88.117188 213.195312 87.589844 C 213.160156 87.0625 213.257812 86.5625 213.488281 86.085938 L 223.714844 64.863281 C 223.125 64.960938 222.535156 65.070312 221.953125 65.203125 C 221.367188 65.332031 220.785156 65.476562 220.210938 65.644531 C 219.632812 65.808594 219.0625 65.988281 218.5 66.1875 C 217.933594 66.386719 217.375 66.601562 216.820312 66.832031 C 216.269531 67.0625 215.722656 67.3125 215.1875 67.578125 C 214.648438 67.839844 214.121094 68.121094 213.597656 68.417969 C 213.078125 68.710938 212.566406 69.023438 212.0625 69.351562 C 211.5625 69.675781 211.070312 70.015625 210.585938 70.371094 C 210.105469 70.726562 209.632812 71.097656 209.171875 71.480469 C 208.714844 71.867188 208.265625 72.261719 207.828125 72.671875 C 207.394531 73.082031 206.96875 73.507812 206.558594 73.941406 C 206.144531 74.378906 205.75 74.824219 205.363281 75.285156 C 204.980469 75.742188 204.609375 76.214844 204.253906 76.695312 C 203.894531 77.175781 203.554688 77.667969 203.226562 78.171875 C 202.898438 78.671875 202.585938 79.183594 202.292969 79.703125 C 201.996094 80.222656 201.714844 80.753906 201.449219 81.289062 C 201.183594 81.828125 200.933594 82.371094 200.699219 82.925781 C 200.46875 83.476562 200.253906 84.035156 200.054688 84.597656 C 199.851562 85.164062 199.671875 85.734375 199.503906 86.308594 C 199.339844 86.886719 199.191406 87.464844 199.0625 88.050781 C 198.929688 88.636719 198.816406 89.222656 198.71875 89.8125 C 198.625 90.40625 198.546875 91 198.484375 91.59375 C 198.425781 92.191406 198.382812 92.789062 198.359375 93.386719 C 198.332031 93.984375 198.324219 94.585938 198.335938 95.183594 C 198.347656 95.78125 198.375 96.378906 198.421875 96.976562 C 198.46875 97.574219 198.53125 98.171875 198.613281 98.765625 C 198.695312 99.355469 198.796875 99.949219 198.914062 100.535156 C 199.03125 101.121094 199.164062 101.707031 199.316406 102.285156 C 199.46875 102.867188 199.636719 103.441406 199.824219 104.007812 C 200.007812 104.578125 200.210938 105.140625 200.429688 105.699219 C 200.652344 106.257812 200.886719 106.808594 201.140625 107.351562 C 201.390625 107.894531 201.660156 108.429688 201.945312 108.957031 C 202.5 110.007812 202.925781 111.109375 203.222656 112.257812 C 203.515625 113.410156 203.671875 114.582031 203.691406 115.769531 C 203.710938 116.957031 203.589844 118.132812 203.328125 119.292969 C 203.070312 120.449219 202.679688 121.566406 202.15625 122.632812 L 179.203125 170.191406 C 178.695312 171.265625 178.066406 172.265625 177.320312 173.1875 C 176.578125 174.113281 175.734375 174.941406 174.792969 175.667969 C 173.851562 176.390625 172.839844 177 171.753906 177.484375 C 170.671875 177.972656 169.546875 178.324219 168.378906 178.542969 C 167.789062 178.648438 167.203125 178.773438 166.621094 178.914062 C 166.039062 179.054688 165.460938 179.210938 164.886719 179.386719 C 164.316406 179.5625 163.75 179.753906 163.1875 179.964844 C 162.625 180.171875 162.070312 180.398438 161.523438 180.640625 C 160.976562 180.882812 160.4375 181.140625 159.902344 181.414062 C 159.371094 181.6875 158.847656 181.976562 158.332031 182.28125 C 157.816406 182.589844 157.3125 182.910156 156.816406 183.242188 C 156.320312 183.578125 155.835938 183.929688 155.359375 184.292969 C 154.882812 184.65625 154.417969 185.035156 153.96875 185.429688 C 153.515625 185.820312 153.074219 186.226562 152.644531 186.644531 C 152.214844 187.0625 151.800781 187.492188 151.398438 187.933594 C 150.996094 188.378906 150.605469 188.832031 150.230469 189.296875 C 149.855469 189.765625 149.492188 190.242188 149.144531 190.730469 C 148.796875 191.21875 148.464844 191.714844 148.148438 192.222656 C 147.828125 192.730469 147.527344 193.246094 147.242188 193.773438 C 146.953125 194.296875 146.683594 194.832031 146.425781 195.371094 C 146.171875 195.914062 145.933594 196.464844 145.710938 197.019531 C 145.488281 197.574219 145.28125 198.136719 145.09375 198.707031 C 144.90625 199.273438 144.734375 199.847656 144.578125 200.425781 C 144.421875 201.003906 144.285156 201.585938 144.164062 202.171875 C 144.046875 202.761719 143.941406 203.347656 143.855469 203.941406 C 143.773438 204.535156 143.707031 205.128906 143.65625 205.726562 C 143.605469 206.324219 143.574219 206.921875 143.558594 207.519531 C 143.546875 208.117188 143.550781 208.714844 143.570312 209.316406 C 143.59375 209.914062 143.632812 210.511719 143.691406 211.105469 C 143.746094 211.703125 143.824219 212.296875 143.914062 212.886719 C 144.007812 213.480469 144.117188 214.066406 144.246094 214.652344 C 144.375 215.238281 144.519531 215.820312 144.679688 216.394531 C 144.84375 216.972656 145.023438 217.542969 145.21875 218.109375 C 145.414062 218.675781 145.628906 219.234375 145.855469 219.785156 C 146.085938 220.339844 146.332031 220.886719 146.59375 221.421875 C 146.855469 221.960938 147.136719 222.492188 147.429688 223.015625 L 157.675781 201.816406 C 157.90625 201.339844 158.238281 200.953125 158.675781 200.652344 C 159.109375 200.351562 159.59375 200.179688 160.121094 200.132812 L 176.597656 198.699219 C 177.140625 198.652344 177.660156 198.75 178.152344 198.988281 C 178.644531 199.226562 179.042969 199.574219 179.347656 200.027344 L 188.503906 213.800781 C 188.796875 214.242188 188.960938 214.726562 188.996094 215.253906 C 189.03125 215.78125 188.933594 216.28125 188.703125 216.757812 L 178.472656 237.976562 C 179.0625 237.882812 179.652344 237.769531 180.234375 237.640625 C 180.820312 237.511719 181.402344 237.363281 181.976562 237.199219 C 182.554688 237.035156 183.125 236.855469 183.691406 236.65625 C 184.253906 236.460938 184.8125 236.246094 185.367188 236.011719 C 185.917969 235.78125 186.464844 235.535156 187 235.269531 C 187.539062 235.007812 188.070312 234.726562 188.589844 234.429688 C 189.109375 234.136719 189.621094 233.824219 190.125 233.5 C 190.628906 233.171875 191.121094 232.832031 191.601562 232.476562 C 192.085938 232.121094 192.554688 231.753906 193.015625 231.371094 C 193.476562 230.984375 193.925781 230.589844 194.359375 230.179688 C 194.796875 229.769531 195.222656 229.347656 195.632812 228.910156 C 196.042969 228.476562 196.441406 228.027344 196.828125 227.566406 C 197.210938 227.109375 197.582031 226.640625 197.9375 226.15625 C 198.292969 225.675781 198.636719 225.183594 198.964844 224.683594 C 199.292969 224.179688 199.601562 223.671875 199.898438 223.148438 C 200.195312 222.628906 200.476562 222.101562 200.742188 221.5625 C 201.007812 221.027344 201.257812 220.480469 201.488281 219.929688 C 201.722656 219.378906 201.9375 218.820312 202.136719 218.253906 C 202.335938 217.691406 202.519531 217.121094 202.683594 216.542969 C 202.851562 215.96875 203 215.386719 203.128906 214.804688 C 203.261719 214.21875 203.375 213.632812 203.46875 213.039062 C 203.566406 212.449219 203.644531 211.855469 203.703125 211.257812 C 203.761719 210.664062 203.804688 210.066406 203.832031 209.46875 C 203.855469 208.867188 203.863281 208.269531 203.851562 207.671875 C 203.839844 207.074219 203.8125 206.472656 203.765625 205.878906 C 203.71875 205.28125 203.652344 204.683594 203.570312 204.089844 C 203.488281 203.5 203.390625 202.90625 203.269531 202.320312 C 203.152344 201.734375 203.019531 201.148438 202.867188 200.570312 C 202.714844 199.992188 202.546875 199.417969 202.359375 198.847656 C 202.171875 198.277344 201.96875 197.714844 201.75 197.15625 C 201.527344 196.601562 201.292969 196.050781 201.039062 195.507812 C 200.785156 194.964844 200.519531 194.429688 200.234375 193.902344 Z M 189.472656 183.210938 C 189.285156 183.617188 189.023438 183.96875 188.691406 184.269531 C 188.363281 184.570312 187.984375 184.792969 187.566406 184.941406 C 187.144531 185.09375 186.710938 185.15625 186.261719 185.132812 C 185.816406 185.105469 185.394531 185 184.992188 184.804688 C 184.585938 184.609375 184.238281 184.347656 183.941406 184.011719 C 183.644531 183.675781 183.421875 183.300781 183.277344 182.875 C 183.132812 182.453125 183.074219 182.019531 183.105469 181.574219 C 183.132812 181.128906 183.246094 180.703125 183.445312 180.304688 L 212.695312 119.648438 C 212.882812 119.242188 213.144531 118.890625 213.476562 118.589844 C 213.804688 118.289062 214.183594 118.066406 214.605469 117.917969 C 215.023438 117.765625 215.457031 117.703125 215.90625 117.726562 C 216.351562 117.75 216.773438 117.859375 217.179688 118.054688 C 217.582031 118.25 217.929688 118.511719 218.226562 118.847656 C 218.523438 119.179688 218.746094 119.558594 218.890625 119.984375 C 219.035156 120.40625 219.09375 120.839844 219.0625 121.285156 C 219.035156 121.730469 218.921875 122.15625 218.722656 122.554688 Z M 189.472656 183.210938 " fill-opacity="1" fill-rule="nonzero"/></g><path fill="#ffffff" d="M 198.136719 195.039062 C 199.472656 196.863281 200.585938 198.8125 201.484375 200.882812 C 201.597656 201.148438 201.714844 201.40625 201.820312 201.667969 L 202.09375 202.480469 C 202.28125 203.019531 202.441406 203.570312 202.570312 204.125 C 202.839844 205.253906 203 206.398438 203.050781 207.554688 C 203.050781 208.132812 203.050781 208.714844 202.984375 209.289062 L 202.882812 210.152344 C 202.855469 210.4375 202.808594 210.722656 202.742188 211.003906 C 202.636719 211.566406 202.503906 212.121094 202.335938 212.671875 L 202.097656 213.492188 C 202.011719 213.761719 201.902344 214.023438 201.804688 214.292969 C 200.996094 216.398438 199.964844 218.390625 198.710938 220.269531 C 199.402344 218.132812 200.148438 216.046875 200.710938 213.9375 C 200.863281 213.414062 200.980469 212.882812 201.09375 212.351562 C 201.21875 211.828125 201.3125 211.296875 201.378906 210.761719 C 201.484375 210.234375 201.5 209.703125 201.558594 209.171875 C 201.613281 208.640625 201.558594 208.105469 201.589844 207.574219 C 201.5 205.414062 201.113281 203.308594 200.425781 201.257812 C 199.753906 199.191406 198.921875 197.140625 198.136719 195.039062 Z M 198.136719 195.039062 " fill-opacity="1" fill-rule="nonzero"/><path fill="#ffffff" d="M 233.375 121.960938 C 230.765625 122.566406 228.4375 123.730469 226.390625 125.453125 C 225.394531 126.289062 224.535156 127.246094 223.8125 128.320312 C 223.097656 129.390625 222.558594 130.542969 222.195312 131.777344 L 222.195312 131.851562 C 221.28125 133.851562 220.355469 135.851562 219.421875 137.84375 C 218.488281 139.835938 217.558594 141.824219 216.601562 143.808594 C 214.714844 147.785156 212.773438 151.738281 210.863281 155.691406 L 207.882812 161.621094 L 204.894531 167.507812 C 202.886719 171.425781 200.855469 175.332031 198.734375 179.191406 C 200.4375 175.128906 202.230469 171.109375 204.039062 167.097656 L 206.789062 161.089844 L 209.585938 155.113281 C 211.5 151.140625 213.367188 147.167969 215.324219 143.21875 C 216.28125 141.238281 217.25 139.265625 218.234375 137.296875 C 219.222656 135.332031 220.207031 133.363281 221.195312 131.398438 L 221.167969 131.46875 C 221.605469 130.148438 222.242188 128.929688 223.078125 127.816406 C 223.898438 126.722656 224.855469 125.765625 225.949219 124.945312 C 228.164062 123.300781 230.636719 122.304688 233.375 121.960938 Z M 233.375 121.960938 " fill-opacity="1" fill-rule="nonzero"/><path fill="#ffffff" d="M 148.707031 196.164062 C 150.191406 192.808594 152.273438 189.871094 154.945312 187.351562 C 157.644531 184.820312 160.730469 182.90625 164.199219 181.613281 C 165.058594 181.292969 165.933594 181.011719 166.824219 180.777344 C 167.710938 180.542969 168.644531 180.367188 169.460938 180.171875 C 171.15625 179.75 172.75 179.089844 174.246094 178.195312 C 177.261719 176.3125 179.71875 173.867188 181.621094 170.863281 L 181.578125 170.945312 C 183.492188 166.972656 185.40625 163.011719 187.316406 159.058594 C 189.230469 155.105469 191.195312 151.160156 193.140625 147.210938 C 195.085938 143.261719 197.074219 139.335938 199.070312 135.414062 L 202.09375 129.542969 C 203.097656 127.585938 204.113281 125.632812 205.144531 123.6875 C 204.269531 125.707031 203.371094 127.71875 202.464844 129.722656 L 199.753906 135.742188 C 197.929688 139.746094 196.082031 143.742188 194.210938 147.726562 C 192.339844 151.710938 190.472656 155.691406 188.570312 159.679688 C 186.667969 163.667969 184.773438 167.617188 182.832031 171.574219 L 182.832031 171.652344 C 181.816406 173.207031 180.652344 174.640625 179.339844 175.957031 C 178.011719 177.269531 176.539062 178.394531 174.929688 179.339844 C 173.300781 180.277344 171.574219 180.953125 169.738281 181.359375 C 168.808594 181.554688 167.972656 181.675781 167.105469 181.890625 C 166.246094 182.09375 165.398438 182.339844 164.5625 182.628906 C 162.871094 183.207031 161.253906 183.945312 159.703125 184.832031 C 158.152344 185.71875 156.699219 186.746094 155.339844 187.90625 C 153.984375 189.070312 152.75 190.351562 151.636719 191.746094 C 150.519531 193.144531 149.546875 194.632812 148.714844 196.210938 Z M 148.707031 196.164062 " fill-opacity="1" fill-rule="nonzero"/><g fill="#131a44" fill-opacity="1"><g transform="translate(20.040583, 288.282665)"><g><path d="M 4.3125 0 L 4.3125 -33.453125 L 12.40625 -33.453125 L 21.28125 -9.65625 L 30.15625 -33.453125 L 38.25 -33.453125 L 38.25 0 L 32.484375 0 L 32.484375 -25.015625 L 24.1875 -2.90625 L 18.375 -2.90625 L 10.078125 -25.015625 L 10.078125 0 Z M 4.3125 0 "/></g></g></g><g fill="#131a44" fill-opacity="1"><g transform="translate(60.910045, 288.282665)"><g><path d="M 4.3125 0 L 4.3125 -33.453125 L 26.5625 -33.453125 L 26.5625 -27.9375 L 10.328125 -27.9375 L 10.328125 -19.484375 L 25.453125 -19.484375 L 25.453125 -13.96875 L 10.328125 -13.96875 L 10.328125 -5.6875 L 26.5625 -5.6875 L 26.5625 0 Z M 4.3125 0 "/></g></g></g><g fill="#131a44" fill-opacity="1"><g transform="translate(88.68757, 288.282665)"><g><path d="M 0.28125 0 L 13.6875 -33.453125 L 18.1875 -33.453125 L 31.515625 0 L 25.015625 0 L 22.4375 -7.265625 L 9.453125 -7.265625 L 6.84375 0 Z M 11.484375 -12.40625 L 20.40625 -12.40625 L 15.953125 -24.625 Z M 11.484375 -12.40625 "/></g></g></g><g fill="#131a44" fill-opacity="1"><g transform="translate(118.785191, 288.282665)"><g><path d="M 4.3125 0 L 4.3125 -33.453125 L 10.328125 -33.453125 L 10.328125 -5.6875 L 24.625 -5.6875 L 24.625 0 Z M 4.3125 0 "/></g></g></g><g fill="#131a44" fill-opacity="1"><g transform="translate(142.25397, 288.282665)"><g/></g></g><g fill="#131a44" fill-opacity="1"><g transform="translate(152.204673, 288.282665)"><g><path d="M 4.3125 0 L 4.3125 -33.453125 L 14.796875 -33.453125 C 16.503906 -33.453125 18.070312 -33.234375 19.5 -32.796875 C 20.9375 -32.367188 22.1875 -31.726562 23.25 -30.875 C 24.320312 -30.03125 25.148438 -28.992188 25.734375 -27.765625 C 26.316406 -26.535156 26.609375 -25.132812 26.609375 -23.5625 C 26.609375 -22 26.316406 -20.613281 25.734375 -19.40625 C 25.148438 -18.207031 24.320312 -17.191406 23.25 -16.359375 C 22.1875 -15.535156 20.9375 -14.914062 19.5 -14.5 C 18.070312 -14.082031 16.503906 -13.875 14.796875 -13.875 L 10.28125 -13.875 L 10.28125 0 Z M 10.28125 -19.484375 L 14.796875 -19.484375 C 16.859375 -19.484375 18.347656 -19.828125 19.265625 -20.515625 C 20.179688 -21.210938 20.640625 -22.226562 20.640625 -23.5625 C 20.640625 -24.914062 20.171875 -25.96875 19.234375 -26.71875 C 18.304688 -27.46875 16.828125 -27.84375 14.796875 -27.84375 L 10.28125 -27.84375 Z M 10.28125 -19.484375 "/></g></g></g><g fill="#131a44" fill-opacity="1"><g transform="translate(178.1356, 288.282665)"><g><path d="M 4.3125 0 L 4.3125 -33.453125 L 10.328125 -33.453125 L 10.328125 -5.6875 L 24.625 -5.6875 L 24.625 0 Z M 4.3125 0 "/></g></g></g><g fill="#131a44" fill-opacity="1"><g transform="translate(201.604379, 288.282665)"><g><path d="M 0.28125 0 L 13.6875 -33.453125 L 18.1875 -33.453125 L 31.515625 0 L 25.015625 0 L 22.4375 -7.265625 L 9.453125 -7.265625 L 6.84375 0 Z M 11.484375 -12.40625 L 20.40625 -12.40625 L 15.953125 -24.625 Z M 11.484375 -12.40625 "/></g></g></g><g fill="#131a44" fill-opacity="1"><g transform="translate(231.70199, 288.282665)"><g><path d="M 4.3125 0 L 4.3125 -33.453125 L 10.28125 -33.453125 L 24.34375 -10.03125 L 24.34375 -33.453125 L 30.109375 -33.453125 L 30.109375 0 L 24.09375 0 L 10.078125 -23.46875 L 10.078125 0 Z M 4.3125 0 "/></g></g></g><g fill="#131a44" fill-opacity="1"><g transform="translate(264.427464, 288.282665)"><g><path d="M 4.3125 0 L 4.3125 -33.453125 L 10.28125 -33.453125 L 24.34375 -10.03125 L 24.34375 -33.453125 L 30.109375 -33.453125 L 30.109375 0 L 24.09375 0 L 10.078125 -23.46875 L 10.078125 0 Z M 4.3125 0 "/></g></g></g><g fill="#131a44" fill-opacity="1"><g transform="translate(297.152939, 288.282665)"><g><path d="M 4.3125 0 L 4.3125 -33.453125 L 26.5625 -33.453125 L 26.5625 -27.9375 L 10.328125 -27.9375 L 10.328125 -19.484375 L 25.453125 -19.484375 L 25.453125 -13.96875 L 10.328125 -13.96875 L 10.328125 -5.6875 L 26.5625 -5.6875 L 26.5625 0 Z M 4.3125 0 "/></g></g></g><g fill="#131a44" fill-opacity="1"><g transform="translate(324.930469, 288.282665)"><g><path d="M 4.3125 0.046875 L 4.3125 -33.453125 L 15.125 -33.453125 C 16.6875 -33.453125 18.164062 -33.234375 19.5625 -32.796875 C 20.957031 -32.367188 22.1875 -31.726562 23.25 -30.875 C 24.320312 -30.03125 25.164062 -29 25.78125 -27.78125 C 26.394531 -26.5625 26.703125 -25.171875 26.703125 -23.609375 C 26.703125 -22.203125 26.421875 -20.921875 25.859375 -19.765625 C 25.296875 -18.617188 24.519531 -17.628906 23.53125 -16.796875 C 22.550781 -15.960938 21.429688 -15.328125 20.171875 -14.890625 L 29.46875 0.046875 L 22.578125 0.046875 L 14.34375 -14.296875 L 10.328125 -14.296875 L 10.328125 0.046875 Z M 10.375 -19.203125 L 15.671875 -19.203125 C 17.265625 -19.273438 18.507812 -19.695312 19.40625 -20.46875 C 20.3125 -21.25 20.765625 -22.265625 20.765625 -23.515625 C 20.765625 -24.898438 20.257812 -26.003906 19.25 -26.828125 C 18.25 -27.660156 16.890625 -28.078125 15.171875 -28.078125 L 10.375 -28.078125 Z M 10.375 -19.203125 "/></g></g></g><g fill="#131a44" fill-opacity="1"><g transform="translate(39.347459, 321.893873)"><g><path d="M 7.28125 -4.84375 L 9.375 -4.84375 L 9.375 -1.125 C 8.851562 -0.757812 8.226562 -0.460938 7.5 -0.234375 C 6.769531 -0.00390625 6.078125 0.109375 5.421875 0.109375 C 3.960938 0.109375 2.75 -0.351562 1.78125 -1.28125 C 0.8125 -2.21875 0.328125 -3.378906 0.328125 -4.765625 C 0.328125 -6.140625 0.828125 -7.289062 1.828125 -8.21875 C 2.828125 -9.144531 4.078125 -9.609375 5.578125 -9.609375 C 6.285156 -9.609375 6.988281 -9.476562 7.6875 -9.21875 C 8.382812 -8.96875 8.976562 -8.625 9.46875 -8.1875 L 8.109375 -6.546875 C 7.765625 -6.859375 7.363281 -7.109375 6.90625 -7.296875 C 6.457031 -7.484375 6.007812 -7.578125 5.5625 -7.578125 C 4.78125 -7.578125 4.125 -7.304688 3.59375 -6.765625 C 3.0625 -6.222656 2.796875 -5.554688 2.796875 -4.765625 C 2.796875 -3.953125 3.0625 -3.273438 3.59375 -2.734375 C 4.132812 -2.191406 4.800781 -1.921875 5.59375 -1.921875 C 6.101562 -1.921875 6.664062 -2.070312 7.28125 -2.375 Z M 7.28125 -4.84375 "/></g></g></g><g fill="#131a44" fill-opacity="1"><g transform="translate(56.267963, 321.893873)"><g><path d="M 8.40625 -7.625 L 3.375 -7.625 L 3.375 -5.734375 L 7.921875 -5.734375 L 7.921875 -3.828125 L 3.375 -3.828125 L 3.375 -1.90625 L 8.5625 -1.90625 L 8.5625 0 L 0.953125 0 L 0.953125 -9.53125 L 8.40625 -9.53125 Z M 8.40625 -7.625 "/></g></g></g><g fill="#131a44" fill-opacity="1"><g transform="translate(72.249565, 321.893873)"><g><path d="M 9.75 0 L 7.609375 0 L 3.21875 -5.859375 L 3.21875 0 L 0.953125 0 L 0.953125 -9.53125 L 3.09375 -9.53125 L 7.484375 -3.640625 L 7.484375 -9.53125 L 9.75 -9.53125 Z M 9.75 0 "/></g></g></g><g fill="#131a44" fill-opacity="1"><g transform="translate(89.755182, 321.893873)"><g><path d="M 6.703125 0 L 5.28125 -2.6875 L 3.375 -2.6875 L 3.375 0 L 0.953125 0 L 0.953125 -9.53125 L 5.21875 -9.53125 C 6.476562 -9.53125 7.453125 -9.238281 8.140625 -8.65625 C 8.828125 -8.082031 9.171875 -7.265625 9.171875 -6.203125 C 9.171875 -4.734375 8.59375 -3.710938 7.4375 -3.140625 L 9.4375 0 Z M 3.375 -4.59375 L 5.21875 -4.59375 C 5.738281 -4.59375 6.144531 -4.722656 6.4375 -4.984375 C 6.726562 -5.242188 6.875 -5.625 6.875 -6.125 C 6.875 -6.613281 6.726562 -6.984375 6.4375 -7.234375 C 6.144531 -7.492188 5.738281 -7.625 5.21875 -7.625 L 3.375 -7.625 Z M 3.375 -4.59375 "/></g></g></g><g fill="#131a44" fill-opacity="1"><g transform="translate(106.41715, 321.893873)"><g><path d="M 8.40625 -7.625 L 3.375 -7.625 L 3.375 -5.734375 L 7.921875 -5.734375 L 7.921875 -3.828125 L 3.375 -3.828125 L 3.375 -1.90625 L 8.5625 -1.90625 L 8.5625 0 L 0.953125 0 L 0.953125 -9.53125 L 8.40625 -9.53125 Z M 8.40625 -7.625 "/></g></g></g><g fill="#131a44" fill-opacity="1"><g transform="translate(122.398754, 321.893873)"><g><path d="M 7.28125 -1.75 L 3.109375 -1.75 L 2.421875 0 L -0.0625 0 L 4.046875 -9.53125 L 6.53125 -9.53125 L 10.546875 0 L 7.96875 0 Z M 6.578125 -3.59375 L 5.21875 -7.125 L 3.828125 -3.59375 Z M 6.578125 -3.59375 "/></g></g></g><g fill="#131a44" fill-opacity="1"><g transform="translate(139.686652, 321.893873)"><g><path d="M 8.234375 -7.578125 L 5.359375 -7.578125 L 5.359375 0 L 2.9375 0 L 2.9375 -7.578125 L 0.09375 -7.578125 L 0.09375 -9.546875 L 8.234375 -9.546875 Z M 8.234375 -7.578125 "/></g></g></g><g fill="#131a44" fill-opacity="1"><g transform="translate(154.810992, 321.893873)"><g><path d="M 8.40625 -7.625 L 3.375 -7.625 L 3.375 -5.734375 L 7.921875 -5.734375 L 7.921875 -3.828125 L 3.375 -3.828125 L 3.375 -1.90625 L 8.5625 -1.90625 L 8.5625 0 L 0.953125 0 L 0.953125 -9.53125 L 8.40625 -9.53125 Z M 8.40625 -7.625 "/></g></g></g><g fill="#131a44" fill-opacity="1"><g transform="translate(170.792595, 321.893873)"><g/></g></g><g fill="#131a44" fill-opacity="1"><g transform="translate(180.759803, 321.893873)"><g><path d="M 11.421875 0 L 9.28125 0 L 9.265625 -6.1875 L 6.984375 -0.953125 L 5.40625 -0.953125 L 3.109375 -6.1875 L 3.109375 0 L 0.953125 0 L 0.953125 -9.546875 L 3.609375 -9.546875 L 6.1875 -3.859375 L 8.78125 -9.546875 L 11.421875 -9.546875 Z M 11.421875 0 "/></g></g></g><g fill="#131a44" fill-opacity="1"><g transform="translate(199.952715, 321.893873)"><g><path d="M 8.40625 -7.625 L 3.375 -7.625 L 3.375 -5.734375 L 7.921875 -5.734375 L 7.921875 -3.828125 L 3.375 -3.828125 L 3.375 -1.90625 L 8.5625 -1.90625 L 8.5625 0 L 0.953125 0 L 0.953125 -9.53125 L 8.40625 -9.53125 Z M 8.40625 -7.625 "/></g></g></g><g fill="#131a44" fill-opacity="1"><g transform="translate(215.934319, 321.893873)"><g><path d="M 7.28125 -1.75 L 3.109375 -1.75 L 2.421875 0 L -0.0625 0 L 4.046875 -9.53125 L 6.53125 -9.53125 L 10.546875 0 L 7.96875 0 Z M 6.578125 -3.59375 L 5.21875 -7.125 L 3.828125 -3.59375 Z M 6.578125 -3.59375 "/></g></g></g><g fill="#131a44" fill-opacity="1"><g transform="translate(233.222217, 321.893873)"><g><path d="M 3.375 -2.03125 L 7.421875 -2.03125 L 7.421875 0 L 0.953125 0 L 0.953125 -9.53125 L 3.375 -9.53125 Z M 3.375 -2.03125 "/></g></g></g><g fill="#131a44" fill-opacity="1"><g transform="translate(247.652593, 321.893873)"><g/></g></g><g fill="#131a44" fill-opacity="1"><g transform="translate(257.619789, 321.893873)"><g><path d="M 0.953125 -9.53125 L 5.109375 -9.53125 C 6.316406 -9.53125 7.253906 -9.238281 7.921875 -8.65625 C 8.597656 -8.082031 8.9375 -7.265625 8.9375 -6.203125 C 8.9375 -5.085938 8.597656 -4.222656 7.921875 -3.609375 C 7.253906 -2.992188 6.316406 -2.6875 5.109375 -2.6875 L 3.375 -2.6875 L 3.375 0 L 0.953125 0 Z M 3.375 -7.625 L 3.375 -4.59375 L 4.984375 -4.59375 C 5.515625 -4.59375 5.925781 -4.722656 6.21875 -4.984375 C 6.507812 -5.242188 6.65625 -5.625 6.65625 -6.125 C 6.65625 -6.613281 6.507812 -6.984375 6.21875 -7.234375 C 5.925781 -7.492188 5.515625 -7.625 4.984375 -7.625 Z M 3.375 -7.625 "/></g></g></g><g fill="#131a44" fill-opacity="1"><g transform="translate(273.683024, 321.893873)"><g><path d="M 3.375 -2.03125 L 7.421875 -2.03125 L 7.421875 0 L 0.953125 0 L 0.953125 -9.53125 L 3.375 -9.53125 Z M 3.375 -2.03125 "/></g></g></g><g fill="#131a44" fill-opacity="1"><g transform="translate(288.113401, 321.893873)"><g><path d="M 7.28125 -1.75 L 3.109375 -1.75 L 2.421875 0 L -0.0625 0 L 4.046875 -9.53125 L 6.53125 -9.53125 L 10.546875 0 L 7.96875 0 Z M 6.578125 -3.59375 L 5.21875 -7.125 L 3.828125 -3.59375 Z M 6.578125 -3.59375 "/></g></g></g><g fill="#131a44" fill-opacity="1"><g transform="translate(305.401286, 321.893873)"><g><path d="M 9.75 0 L 7.609375 0 L 3.21875 -5.859375 L 3.21875 0 L 0.953125 0 L 0.953125 -9.53125 L 3.09375 -9.53125 L 7.484375 -3.640625 L 7.484375 -9.53125 L 9.75 -9.53125 Z M 9.75 0 "/></g></g></g><g fill="#131a44" fill-opacity="1"><g transform="translate(322.906906, 321.893873)"><g><path d="M 4.609375 -9.640625 C 6.035156 -9.640625 7.289062 -9.285156 8.375 -8.578125 L 7.453125 -6.6875 C 6.953125 -6.976562 6.414062 -7.210938 5.84375 -7.390625 C 5.28125 -7.578125 4.800781 -7.671875 4.40625 -7.671875 C 3.707031 -7.671875 3.359375 -7.441406 3.359375 -6.984375 C 3.359375 -6.679688 3.53125 -6.4375 3.875 -6.25 C 4.21875 -6.070312 4.632812 -5.914062 5.125 -5.78125 C 5.625 -5.65625 6.117188 -5.5 6.609375 -5.3125 C 7.109375 -5.125 7.53125 -4.820312 7.875 -4.40625 C 8.21875 -3.988281 8.390625 -3.460938 8.390625 -2.828125 C 8.390625 -1.910156 8.03125 -1.195312 7.3125 -0.6875 C 6.601562 -0.175781 5.695312 0.078125 4.59375 0.078125 C 3.800781 0.078125 3.019531 -0.0546875 2.25 -0.328125 C 1.476562 -0.597656 0.804688 -0.96875 0.234375 -1.4375 L 1.171875 -3.3125 C 1.648438 -2.894531 2.210938 -2.550781 2.859375 -2.28125 C 3.515625 -2.007812 4.097656 -1.875 4.609375 -1.875 C 5.003906 -1.875 5.3125 -1.941406 5.53125 -2.078125 C 5.75 -2.222656 5.859375 -2.429688 5.859375 -2.703125 C 5.859375 -2.972656 5.734375 -3.195312 5.484375 -3.375 C 5.234375 -3.550781 4.921875 -3.679688 4.546875 -3.765625 C 4.171875 -3.847656 3.765625 -3.960938 3.328125 -4.109375 C 2.898438 -4.253906 2.5 -4.410156 2.125 -4.578125 C 1.75 -4.753906 1.4375 -5.03125 1.1875 -5.40625 C 0.9375 -5.78125 0.8125 -6.234375 0.8125 -6.765625 C 0.8125 -7.640625 1.160156 -8.335938 1.859375 -8.859375 C 2.554688 -9.378906 3.472656 -9.640625 4.609375 -9.640625 Z M 4.609375 -9.640625 "/></g></g></g></svg>